<svg xmlns="http://www.w3.org/2000/svg" width="61" height="60" viewBox="0 0 61 60" fill="none"><path d="M57.3419 5.34211H2.67106C1.96265 5.34211 1.28325 5.0607 0.782334 4.55978C0.281414 4.05886 0 3.37946 0 2.67106C0 1.96265 0.281414 1.28325 0.782334 0.782334C1.28325 0.281414 1.96265 0 2.67106 0H57.3419C58.0503 0 58.7296 0.281414 59.2306 0.782334C59.7315 1.28325 60.0129 1.96265 60.0129 2.67106C60.0129 3.37946 59.7315 4.05886 59.2306 4.55978C58.7296 5.0607 58.0503 5.34211 57.3419 5.34211ZM2.67106 0.923283C2.20752 0.923283 1.76296 1.10742 1.43519 1.43519C1.10742 1.76296 0.923283 2.20752 0.923283 2.67106C0.923283 3.13459 1.10742 3.57915 1.43519 3.90692C1.76296 4.23469 2.20752 4.41883 2.67106 4.41883H57.3419C57.8054 4.41883 58.2499 4.23469 58.5777 3.90692C58.9055 3.57915 59.0896 3.13459 59.0896 2.67106C59.0896 2.20752 58.9055 1.76296 58.5777 1.43519C58.2499 1.10742 57.8054 0.923283 57.3419 0.923283H2.67106Z" fill="#03624C"></path><path d="M56.0092 39.7751H4.0007C3.87827 39.7751 3.76085 39.7264 3.67427 39.6398C3.5877 39.5533 3.53906 39.4358 3.53906 39.3134V4.87912C3.53906 4.75669 3.5877 4.63927 3.67427 4.55269C3.76085 4.46612 3.87827 4.41748 4.0007 4.41748H56.0092C56.1317 4.41748 56.2491 4.46612 56.3356 4.55269C56.4222 4.63927 56.4709 4.75669 56.4709 4.87912V39.3134C56.4709 39.4358 56.4222 39.5533 56.3356 39.6398C56.2491 39.7264 56.1317 39.7751 56.0092 39.7751ZM4.46235 38.8518H55.5476V5.34076H4.46235V38.8518Z" fill="#03624C"></path><path d="M10.8587 59.9811C10.7798 59.9815 10.7021 59.9617 10.633 59.9236C10.564 59.8855 10.5058 59.8303 10.4642 59.7633C10.4225 59.6963 10.3987 59.6197 10.395 59.5409C10.3914 59.4621 10.408 59.3837 10.4432 59.3131L20.5578 39.107C20.5851 39.0528 20.6228 39.0045 20.6687 38.9648C20.7147 38.9252 20.768 38.895 20.8256 38.8759C20.8833 38.8568 20.9441 38.8493 21.0046 38.8538C21.0652 38.8582 21.1242 38.8746 21.1785 38.9018C21.2327 38.9291 21.281 38.9668 21.3207 39.0128C21.3603 39.0587 21.3906 39.1121 21.4096 39.1697C21.4287 39.2273 21.4362 39.2881 21.4317 39.3487C21.4273 39.4092 21.4109 39.4683 21.3837 39.5225L11.6079 59.0499L14.5204 59.0126L24.484 39.107C24.5113 39.0528 24.549 39.0045 24.595 38.9648C24.6409 38.9252 24.6942 38.895 24.7519 38.8759C24.8095 38.8568 24.8703 38.8493 24.9309 38.8538C24.9914 38.8582 25.0505 38.8746 25.1047 38.9018C25.1589 38.9291 25.2073 38.9668 25.2469 39.0128C25.2866 39.0587 25.3168 39.1121 25.3359 39.1697C25.3549 39.2273 25.3624 39.2881 25.358 39.3487C25.3535 39.4092 25.3372 39.4683 25.3099 39.5225L15.2231 59.6778C15.1851 59.7535 15.127 59.8174 15.0552 59.8623C14.9834 59.9073 14.9006 59.9316 14.8159 59.9326L10.8642 59.9834L10.8587 59.9811Z" fill="#03624C"></path><path d="M45.4678 59.9995C45.3809 59.9993 45.2958 59.9746 45.2223 59.9282C45.1488 59.8818 45.0899 59.8157 45.0524 59.7373L35.3344 39.5132C35.3042 39.4582 35.2855 39.3977 35.2795 39.3352C35.2735 39.2728 35.2802 39.2098 35.2994 39.15C35.3185 39.0903 35.3497 39.0351 35.3909 38.9878C35.4321 38.9405 35.4825 38.9021 35.539 38.8749C35.5956 38.8477 35.6571 38.8324 35.7197 38.8297C35.7824 38.8271 35.845 38.8373 35.9036 38.8597C35.9622 38.8821 36.0156 38.9161 36.0606 38.9598C36.1056 39.0035 36.1412 39.056 36.1653 39.1139L45.755 59.0725L48.6846 59.0347L39.3091 39.5132C39.2789 39.4582 39.2602 39.3977 39.2542 39.3352C39.2482 39.2728 39.255 39.2098 39.2741 39.15C39.2933 39.0903 39.3244 39.0351 39.3656 38.9878C39.4068 38.9405 39.4572 38.9021 39.5138 38.8749C39.5703 38.8477 39.6318 38.8324 39.6945 38.8297C39.7571 38.8271 39.8197 38.8373 39.8783 38.8597C39.9369 38.8821 39.9904 38.9161 40.0354 38.9598C40.0804 39.0035 40.116 39.056 40.14 39.1139L49.8299 59.2876C49.8635 59.3575 49.8789 59.4348 49.8748 59.5122C49.8706 59.5897 49.847 59.6648 49.8062 59.7307C49.7653 59.7966 49.7085 59.8512 49.641 59.8894C49.5735 59.9276 49.4975 59.9481 49.42 59.9492L45.4725 59.9999L45.4678 59.9995Z" fill="#03624C"></path><path d="M18.8561 51.8968C18.7505 51.8967 18.6481 51.8605 18.5659 51.7941C18.4838 51.7277 18.4269 51.6352 18.4048 51.5319C18.3827 51.4287 18.3966 51.3209 18.4443 51.2267C18.4919 51.1325 18.5705 51.0574 18.6668 51.0141L29.7984 46.0187C29.8564 45.9928 29.9191 45.9791 29.9827 45.9785C30.0462 45.978 30.1092 45.9905 30.1677 46.0155L41.7655 50.9933C41.878 51.0416 41.9667 51.1327 42.0121 51.2464C42.0576 51.3601 42.0559 51.4872 42.0076 51.5997C41.9593 51.7122 41.8683 51.8009 41.7546 51.8463C41.6409 51.8918 41.5138 51.8901 41.4013 51.8418L29.9913 46.942L19.0444 51.8561C18.9853 51.8829 18.921 51.8968 18.8561 51.8968Z" fill="#03624C"></path><path d="M40.271 34.33H16.7273C16.6048 34.33 16.4874 34.2814 16.4008 34.1948C16.3143 34.1082 16.2656 33.9908 16.2656 33.8684V10.3247C16.2656 10.2022 16.3143 10.0848 16.4008 9.99825C16.4874 9.91167 16.6048 9.86304 16.7273 9.86304C16.8497 9.86304 16.9671 9.91167 17.0537 9.99825C17.1403 10.0848 17.1889 10.2022 17.1889 10.3247V33.4067H40.271C40.3934 33.4067 40.5108 33.4554 40.5974 33.542C40.684 33.6285 40.7326 33.746 40.7326 33.8684C40.7326 33.9908 40.684 34.1082 40.5974 34.1948C40.5108 34.2814 40.3934 34.33 40.271 34.33Z" fill="#03624C"></path><path d="M20.2037 31.3293C20.1124 31.3293 20.0232 31.3022 19.9473 31.2515C19.8714 31.2008 19.8123 31.1287 19.7773 31.0444C19.7424 30.96 19.7332 30.8672 19.7511 30.7777C19.7689 30.6881 19.8128 30.6059 19.8773 30.5413L25.3016 25.117C25.3637 25.0551 25.4421 25.012 25.5277 24.993C25.6133 24.9739 25.7025 24.9796 25.785 25.0095L28.071 25.8358L28.2829 21.4401C28.2867 21.3625 28.31 21.2872 28.3506 21.2211C28.3912 21.1549 28.4478 21.1001 28.5152 21.0616C28.5826 21.0231 28.6586 21.0023 28.7363 21.001C28.8139 20.9997 28.8905 21.018 28.9592 21.0541L31.5624 22.4289L33.4505 17.6565C33.4755 17.5934 33.5141 17.5367 33.5636 17.4902C33.613 17.4438 33.672 17.4088 33.7365 17.3878C33.801 17.3668 33.8693 17.3602 33.9366 17.3686C34.0039 17.377 34.0685 17.4001 34.1259 17.4363L37.5882 19.6207L42.6386 13.4375C42.6767 13.3899 42.7239 13.3503 42.7774 13.321C42.8309 13.2918 42.8897 13.2734 42.9504 13.267C43.011 13.2605 43.0724 13.2662 43.1308 13.2836C43.1893 13.3011 43.2437 13.3299 43.2909 13.3685C43.3382 13.4071 43.3773 13.4546 43.4061 13.5084C43.4348 13.5622 43.4526 13.6212 43.4585 13.6819C43.4643 13.7426 43.458 13.8039 43.44 13.8622C43.4221 13.9205 43.3927 13.9746 43.3537 14.0215L38.0448 20.5209C37.9735 20.6082 37.8727 20.6664 37.7615 20.6845C37.6503 20.7026 37.5363 20.6794 37.441 20.6193L34.1033 18.5142L32.2313 23.2479C32.2074 23.3083 32.171 23.363 32.1245 23.4085C32.078 23.4539 32.0224 23.4889 31.9614 23.5114C31.9004 23.5338 31.8353 23.5431 31.7705 23.5387C31.7056 23.5342 31.6424 23.5162 31.585 23.4856L29.1683 22.2092L28.9611 26.5024C28.9576 26.5746 28.9373 26.645 28.9017 26.7079C28.8661 26.7708 28.8162 26.8245 28.7561 26.8646C28.6959 26.9047 28.6272 26.9301 28.5555 26.9388C28.4837 26.9475 28.4109 26.9393 28.3429 26.9147L25.7453 25.9757L20.5287 31.1922C20.4428 31.2792 20.3259 31.3285 20.2037 31.3293Z" fill="#03624C"></path><path d="M43.284 18.1724C43.1616 18.1724 43.0442 18.1238 42.9576 18.0372C42.871 17.9506 42.8224 17.8332 42.8224 17.7108V13.893H39.0046C38.8822 13.893 38.7648 13.8444 38.6782 13.7578C38.5916 13.6712 38.543 13.5538 38.543 13.4314C38.543 13.3089 38.5916 13.1915 38.6782 13.1049C38.7648 13.0184 38.8822 12.9697 39.0046 12.9697H43.284C43.4065 12.9697 43.5239 13.0184 43.6105 13.1049C43.697 13.1915 43.7457 13.3089 43.7457 13.4314V17.7108C43.7457 17.8332 43.697 17.9506 43.6105 18.0372C43.5239 18.1238 43.4065 18.1724 43.284 18.1724Z" fill="#03624C"></path></svg>