<svg xmlns="http://www.w3.org/2000/svg" width="66" height="60" viewBox="0 0 66 60" fill="none"><path d="M61.2444 17.4841C58.9379 15.1702 55.7906 13.6195 52.2655 13.2732C51.7525 7.21014 47.6682 2.26385 41.7182 0.577712C35.7862 -1.10536 29.7387 0.960717 26.1535 5.84146C22.7585 4.69271 18.8083 5.21153 15.7052 7.53759C12.7107 9.78173 11.0379 13.2746 11.1473 16.9848C7.92045 17.3977 5.10655 18.9896 3.0982 21.3098C-0.191257 25.1092 -0.920527 30.3436 1.19483 34.9712C3.281 39.5341 7.53322 42.2576 12.5712 42.2576H12.5758L15.0211 42.2569L17.5341 58.27C17.6914 59.2727 18.5426 60 19.5573 60H46.0053C47.0205 60 47.8715 59.2727 48.0288 58.27L50.5435 42.2453L51.6483 42.2449C57.1459 42.2437 62.147 38.7427 64.389 33.3277C66.6827 27.7881 65.4776 21.7171 61.2444 17.4841ZM46.6801 58.058C46.6275 58.3919 46.3437 58.6347 46.0053 58.6347H19.5573C19.219 58.6347 18.9355 58.3919 18.8829 58.058L15.6457 37.43C15.5808 37.0154 15.8998 36.642 16.3201 36.642H49.2428C49.6627 36.642 49.9822 37.0151 49.9172 37.43L46.6801 58.058ZM44.8996 33.2918H45.8827C47.0016 33.2918 47.911 34.1729 47.9736 35.2766H17.5895C17.6521 34.1729 18.5614 33.2918 19.6804 33.2918H29.7367C30.8662 33.2918 31.7849 32.3731 31.7849 31.2437V30.8543C31.7849 30.4775 32.0912 30.1716 32.4676 30.1716H42.1689C42.5516 30.1716 42.8516 30.4717 42.8516 30.8543V31.2437C42.8516 32.3731 43.7703 33.2918 44.8996 33.2918ZM63.1278 32.8051C61.0977 37.7088 56.5913 40.8783 51.6477 40.8796L50.758 40.8799L51.266 37.642C51.4528 36.4532 50.5823 35.3465 49.34 35.287C49.2817 33.4255 47.7583 31.9262 45.8827 31.9262H44.8996C44.5232 31.9262 44.2169 31.6202 44.2169 31.2436V30.8541C44.2169 29.7247 43.2982 28.806 42.1688 28.806H32.4674C31.338 28.806 30.4193 29.7247 30.4193 30.8541V31.2436C30.4193 31.6203 30.113 31.9262 29.7366 31.9262H19.6803C17.8047 31.9262 16.2813 33.4255 16.223 35.287C14.9795 35.3465 14.1106 36.4555 14.297 37.642L14.807 40.8915L12.5753 40.8923H12.5713C8.08302 40.8923 4.29445 38.4668 2.43704 34.4039C0.546591 30.2682 1.19534 25.5933 4.13009 22.2031C7.01696 18.8686 11.4406 17.5673 15.5081 18.5808C15.8848 18.6716 16.2466 18.4412 16.3354 18.0828C16.4268 17.7174 16.2037 17.3467 15.8381 17.2554C14.7436 16.9835 13.6293 16.8718 12.5109 16.895C12.4316 13.6477 13.9023 10.595 16.5242 8.63028C20.4863 5.66059 26.0549 6.01543 29.6 9.56168C29.8667 9.82832 30.2987 9.82832 30.5655 9.56168C30.8321 9.29503 30.8321 8.863 30.5655 8.59623C29.6348 7.66547 28.589 6.92583 27.4679 6.37629C30.7356 2.16247 36.0884 0.402339 41.3458 1.89122C46.6794 3.40275 50.3502 7.80436 50.8798 13.2138C46.9992 13.2274 43.3545 14.7404 40.6118 17.4835C40.3451 17.7502 40.3451 18.1822 40.6118 18.449C40.8784 18.7158 41.3105 18.7156 41.5772 18.449C46.8761 13.1502 55.2741 13.4392 60.2689 18.4403C60.272 18.4434 60.2753 18.4459 60.2784 18.449C64.1142 22.2844 65.2059 27.7854 63.1278 32.8051Z" fill="#03624C"></path><path d="M43.6677 54.5383H35.5342C35.1573 54.5383 34.8516 54.8436 34.8516 55.221C34.8516 55.5984 35.1573 55.9037 35.5342 55.9037H43.6677C44.0447 55.9037 44.3504 55.5984 44.3504 55.221C44.3504 54.8436 44.0447 54.5383 43.6677 54.5383Z" fill="#03624C"></path><path d="M43.6677 51.4834H35.5342C35.1573 51.4834 34.8516 51.7887 34.8516 52.1661C34.8516 52.5434 35.1573 52.8488 35.5342 52.8488H43.6677C44.0447 52.8488 44.3504 52.5434 44.3504 52.1661C44.3504 51.7888 44.0447 51.4834 43.6677 51.4834Z" fill="#03624C"></path><path d="M43.6677 48.428H35.5342C35.1573 48.428 34.8516 48.7333 34.8516 49.1107C34.8516 49.488 35.1573 49.7933 35.5342 49.7933H43.6677C44.0447 49.7933 44.3504 49.488 44.3504 49.1107C44.3504 48.7333 44.0447 48.428 43.6677 48.428Z" fill="#03624C"></path></svg>