<svg xmlns="http://www.w3.org/2000/svg" width="73" height="60" viewBox="0 0 73 60" fill="none"><path d="M63.0817 39.9115H54.0871C53.9396 39.9115 53.7981 39.8529 53.6938 39.7486C53.5894 39.6443 53.5308 39.5028 53.5308 39.3553C53.5308 39.2078 53.5894 39.0663 53.6938 38.9619C53.7981 38.8576 53.9396 38.799 54.0871 38.799H63.0817C67.4806 38.799 71.1974 34.9448 71.1974 30.3829V30.3273C71.2589 28.8122 70.8384 27.3166 69.9963 26.0555C69.1542 24.7945 67.934 23.8329 66.511 23.3091C66.4851 23.3006 66.4598 23.2904 66.4353 23.2785C66.1716 23.1526 65.8995 23.045 65.621 22.9564C65.5461 22.9315 65.4774 22.8909 65.4194 22.8373C65.3614 22.7838 65.3154 22.7185 65.2846 22.6459C65.2538 22.5732 65.2387 22.4948 65.2405 22.4159C65.2423 22.337 65.2609 22.2594 65.295 22.1882C65.7496 21.2312 65.9818 20.1838 65.9742 19.1244C65.9713 17.2035 65.2065 15.3622 63.8477 14.0045C62.489 12.6468 60.6471 11.8834 58.7262 11.8819C57.7431 11.8808 56.7704 12.0824 55.8688 12.4744C55.7866 12.5104 55.6969 12.526 55.6074 12.5199C55.5179 12.5138 55.4312 12.4861 55.3547 12.4392C55.2782 12.3923 55.2142 12.3276 55.1681 12.2507C55.122 12.1737 55.0952 12.0867 55.09 11.9971C54.9457 9.60425 54.0333 7.32183 52.4882 5.48897C50.9432 3.65612 48.848 2.37065 46.5141 1.8236C44.1802 1.27654 41.732 1.49709 39.5335 2.45246C37.3349 3.40784 35.5032 5.04706 34.3106 7.12654C34.262 7.21086 34.192 7.28092 34.1078 7.32972C34.0235 7.37853 33.9279 7.40437 33.8306 7.40467C33.7337 7.40462 33.6384 7.37923 33.5543 7.33103C33.4702 7.28283 33.4001 7.21349 33.3511 7.12988C31.9946 4.81955 29.9152 3.02016 27.4339 2.00968C24.9527 0.999192 22.2078 0.833845 19.6232 1.53918C17.0386 2.24451 14.7582 3.78127 13.1342 5.91206C11.5102 8.04285 10.633 10.6491 10.6382 13.3282C10.636 14.5546 10.8223 15.774 11.1905 16.9438C11.2159 17.0232 11.2231 17.1072 11.2116 17.1897C11.2001 17.2722 11.1703 17.351 11.1242 17.4204C11.0782 17.4898 11.0172 17.548 10.9457 17.5907C10.8742 17.6334 10.794 17.6594 10.7111 17.667C8.00573 17.9279 5.50426 19.2188 3.7243 21.2727C1.94434 23.3266 1.02214 25.9863 1.14856 28.7012C1.27498 31.4161 2.44034 33.9785 4.40346 35.8581C6.36659 37.7377 8.97721 38.7907 11.6951 38.799H18.2199C18.3674 38.799 18.5089 38.8576 18.6132 38.9619C18.7176 39.0663 18.7762 39.2078 18.7762 39.3553C18.7762 39.5028 18.7176 39.6443 18.6132 39.7486C18.5089 39.8529 18.3674 39.9115 18.2199 39.9115H11.6951C8.74441 39.9092 5.90349 38.7926 3.74104 36.785C1.57859 34.7775 0.254185 32.0273 0.0329621 29.0849C-0.188261 26.1426 0.710022 23.2252 2.54798 20.9169C4.38595 18.6086 7.02795 17.0797 9.94509 16.6362C9.66528 15.5559 9.52433 14.4442 9.52568 13.3282C9.52143 10.4826 10.4294 7.71057 12.1163 5.41891C13.8032 3.12724 16.1803 1.43663 18.8986 0.595165C21.617 -0.246298 24.5335 -0.194296 27.2201 0.743538C29.9067 1.68137 32.222 3.45565 33.8261 5.806C35.2242 3.73982 37.2197 2.14971 39.5458 1.24831C41.872 0.34691 44.4179 0.177192 46.8432 0.761848C49.2684 1.3465 51.4573 2.65767 53.1172 4.52C54.7771 6.38233 55.8289 8.70705 56.1319 11.1833C57.3864 10.773 58.7202 10.6658 60.0242 10.8704C61.3281 11.075 62.565 11.5856 63.6336 12.3603C64.7022 13.1351 65.572 14.152 66.1718 15.3277C66.7717 16.5034 67.0844 17.8045 67.0845 19.1244C67.0895 20.1442 66.9045 21.1561 66.5388 22.1081C66.6645 22.1593 66.7808 22.211 66.8931 22.265C68.5205 22.8818 69.916 23.9892 70.8864 25.4339C71.8569 26.8786 72.3543 28.5892 72.3099 30.329V30.3846C72.3099 35.5477 68.0824 39.9115 63.0817 39.9115Z" fill="#03624C"></path><path d="M20.5738 48.7954C20.4759 48.7957 20.3796 48.7701 20.2947 48.7213C20.2098 48.6725 20.1394 48.6021 20.0904 48.5173C18.0789 44.9942 17.2812 40.9076 17.8203 36.8868C18.3594 32.8659 20.2054 29.1337 23.0739 26.265C25.9424 23.3962 29.6744 21.5499 33.6952 21.0105C37.716 20.471 41.8027 21.2683 45.3259 23.2795C45.454 23.3527 45.5479 23.4738 45.5867 23.6161C45.6256 23.7585 45.6063 23.9104 45.5331 24.0385C45.4599 24.1667 45.3389 24.2605 45.1965 24.2993C45.0542 24.3382 44.9022 24.3189 44.7741 24.2457C41.463 22.3566 37.6228 21.6081 33.8445 22.1153C30.0663 22.6226 26.5595 24.3575 23.8639 27.0531C21.1682 29.7486 19.4332 33.2554 18.9259 37.0336C18.4186 40.8118 19.167 44.6521 21.056 47.9633C21.1049 48.0479 21.1306 48.1438 21.1306 48.2415C21.1305 48.3392 21.1048 48.4352 21.0559 48.5197C21.007 48.6043 20.9367 48.6745 20.8521 48.7233C20.7675 48.7721 20.6715 48.7977 20.5738 48.7976V48.7954Z" fill="#03624C"></path><path d="M36.1293 57.829C32.9229 57.8315 29.7714 56.9961 26.9873 55.4054C26.9239 55.3692 26.8682 55.3207 26.8235 55.263C26.7787 55.2052 26.7458 55.1391 26.7266 55.0686C26.7074 54.9981 26.7023 54.9245 26.7115 54.852C26.7207 54.7795 26.7441 54.7096 26.7804 54.6461C26.8167 54.5827 26.8651 54.527 26.9229 54.4823C26.9807 54.4376 27.0467 54.4046 27.1172 54.3854C27.1877 54.3662 27.2613 54.3611 27.3338 54.3703C27.4063 54.3795 27.4762 54.4029 27.5397 54.4392C30.8498 56.3275 34.6887 57.0756 38.4656 56.5684C42.2426 56.0612 45.7481 54.3267 48.4427 51.632C51.1374 48.9373 52.8717 45.4318 53.3788 41.6548C53.886 37.8779 53.1378 34.039 51.2494 30.7289C51.1804 30.6011 51.164 30.4514 51.2039 30.3118C51.2438 30.1721 51.3367 30.0536 51.4628 29.9815C51.5889 29.9094 51.7382 29.8896 51.8788 29.9261C52.0193 29.9627 52.14 30.0528 52.2151 30.1771C53.8216 32.9909 54.6604 36.1776 54.6473 39.4177C54.6343 42.6579 53.7698 45.8377 52.1405 48.6384C50.5113 51.4392 48.1745 53.7625 45.3644 55.3755C42.5542 56.9886 39.3695 57.8347 36.1293 57.829Z" fill="#03624C"></path><path d="M40.6689 26.3639C40.5412 26.3638 40.4175 26.3197 40.3184 26.2391C40.2194 26.1585 40.1511 26.0463 40.125 25.9213C40.0989 25.7964 40.1166 25.6662 40.1751 25.5527C40.2337 25.4393 40.3294 25.3494 40.4464 25.2981L44.477 23.5254L42.7025 19.4942C42.6431 19.3591 42.6397 19.206 42.6932 19.0684C42.7466 18.9309 42.8526 18.8202 42.9876 18.7608C43.1227 18.7013 43.2758 18.698 43.4134 18.7514C43.5509 18.8049 43.6616 18.9108 43.721 19.0459L45.7174 23.586C45.7469 23.6529 45.763 23.7249 45.7646 23.798C45.7663 23.871 45.7535 23.9437 45.7271 24.0119C45.7006 24.08 45.661 24.1423 45.6105 24.1951C45.56 24.2479 45.4995 24.2902 45.4326 24.3197L40.8925 26.3166C40.8219 26.3473 40.7458 26.3634 40.6689 26.3639Z" fill="#03624C"></path><path d="M29.2254 60C29.1172 60 29.0114 59.9684 28.9209 59.9091C28.8304 59.8498 28.7592 59.7654 28.7159 59.6663L26.7189 55.1261C26.6895 55.0593 26.6736 54.9872 26.672 54.9142C26.6704 54.8412 26.6833 54.7685 26.7098 54.7005C26.7363 54.6324 26.7759 54.5702 26.8264 54.5174C26.877 54.4647 26.9374 54.4224 27.0043 54.393L31.5444 52.396C31.6782 52.3444 31.8267 52.3463 31.959 52.4015C32.0914 52.4567 32.1973 52.5608 32.2547 52.6922C32.3121 52.8236 32.3165 52.972 32.2671 53.1066C32.2177 53.2412 32.1182 53.3515 31.9894 53.4145L27.9588 55.1873L29.7316 59.2185C29.761 59.2854 29.777 59.3574 29.7785 59.4304C29.7801 59.5034 29.7673 59.5761 29.7408 59.6442C29.7143 59.7122 29.6746 59.7744 29.6241 59.8272C29.5736 59.8799 29.5131 59.9222 29.4462 59.9516C29.3768 59.9829 29.3016 59.9994 29.2254 60Z" fill="#03624C"></path></svg>