<svg xmlns="http://www.w3.org/2000/svg" width="66" height="60" viewBox="0 0 66 60" fill="none"><path d="M32.8042 34.761C32.5522 34.761 32.3477 34.5649 32.3477 34.2418V27.8454C32.3477 27.5228 32.5522 27.3262 32.8042 27.3262C33.0562 27.3262 33.2607 27.5228 33.2607 27.8454V34.2418C33.2607 34.5649 33.0562 34.761 32.8042 34.761Z" fill="#03624C"></path><path d="M32.5411 33.8447C32.7193 33.6665 33.0025 33.6605 33.231 33.889L37.754 38.4119C37.9821 38.64 37.9765 38.9237 37.7983 39.1019C37.6201 39.2801 37.3365 39.2857 37.1083 39.0575L32.5854 34.5346C32.3569 34.3061 32.3629 34.0229 32.5411 33.8447Z" fill="#03624C"></path><path d="M32.9706 33.975C32.7924 33.7969 32.5092 33.7908 32.2807 34.0194L27.7578 38.5423C27.5296 38.7704 27.5352 39.054 27.7134 39.2322C27.8916 39.4104 28.1753 39.416 28.4034 39.1879L32.9263 34.665C33.1548 34.4365 33.1488 34.1532 32.9706 33.975Z" fill="#03624C"></path><path fill-rule="evenodd" clip-rule="evenodd" d="M53.2155 59.0869C59.5548 59.0869 64.6938 53.9479 64.6938 47.6086C64.6938 41.2693 59.5548 36.1303 53.2155 36.1303C46.8763 36.1303 41.7373 41.2693 41.7373 47.6086C41.7373 53.9479 46.8763 59.0869 53.2155 59.0869ZM53.2155 59.9999C60.0591 59.9999 65.6068 54.4521 65.6068 47.6086C65.6068 40.7651 60.0591 35.2173 53.2155 35.2173C46.372 35.2173 40.8242 40.7651 40.8242 47.6086C40.8242 54.4521 46.372 59.9999 53.2155 59.9999Z" fill="#03624C"></path><path d="M53.1598 59.993C51.3792 59.993 49.6557 59.6218 48.0351 58.889C47.7742 58.7706 47.6055 58.5098 47.6055 58.2234V54.8361C47.6055 51.7732 50.097 49.281 53.1598 49.281C56.2227 49.281 58.7149 51.7725 58.7149 54.8361V58.2234C58.7149 58.5105 58.5469 58.7706 58.2853 58.889C56.6647 59.6218 54.9404 59.993 53.1598 59.993ZM48.545 58.2629C51.152 59.3135 55.038 59.3135 57.6442 58.2629V54.8361C57.6442 52.5791 55.4161 50.2206 53.1591 50.2206C50.9021 50.2206 48.5443 52.5791 48.5443 54.8361V58.2629H48.545Z" fill="#03624C"></path><path fill-rule="evenodd" clip-rule="evenodd" d="M53.2162 49.1738C54.6266 49.1738 56.0858 47.6745 56.0858 45.3912C56.0858 43.1079 54.6266 41.6086 53.2162 41.6086C51.8058 41.6086 50.3466 43.1079 50.3466 45.3912C50.3466 47.6745 51.8058 49.1738 53.2162 49.1738ZM53.2162 50.0869C55.3053 50.0869 56.9988 47.9846 56.9988 45.3912C56.9988 42.7979 55.3053 40.6956 53.2162 40.6956C51.1271 40.6956 49.4336 42.7979 49.4336 45.3912C49.4336 47.9846 51.1271 50.0869 53.2162 50.0869Z" fill="#03624C"></path><path fill-rule="evenodd" clip-rule="evenodd" d="M12.3913 59.0871C18.7306 59.0871 23.8696 53.9481 23.8696 47.6088C23.8696 41.2696 18.7306 36.1306 12.3913 36.1306C6.05204 36.1306 0.913044 41.2696 0.913044 47.6088C0.913044 53.9481 6.05204 59.0871 12.3913 59.0871ZM12.3913 60.0002C19.2348 60.0002 24.7826 54.4524 24.7826 47.6088C24.7826 40.7653 19.2348 35.2175 12.3913 35.2175C5.54778 35.2175 0 40.7653 0 47.6088C0 54.4524 5.54778 60.0002 12.3913 60.0002Z" fill="#03624C"></path><path d="M12.3395 59.993C10.5589 59.993 8.83534 59.6218 7.21477 58.889C6.95393 58.7706 6.78516 58.5098 6.78516 58.2234V54.8361C6.78516 51.7732 9.27665 49.281 12.3395 49.281C15.4024 49.281 17.8946 51.7725 17.8946 54.8361V58.2234C17.8946 58.5105 17.7265 58.7706 17.465 58.889C15.8444 59.6218 14.1201 59.993 12.3395 59.993ZM7.7247 58.2629C10.3316 59.3135 14.2177 59.3135 16.8239 58.2629V54.8361C16.8239 52.5791 14.5957 50.2206 12.3388 50.2206C10.0818 50.2206 7.72397 52.5791 7.72397 54.8361V58.2629H7.7247Z" fill="#03624C"></path><path fill-rule="evenodd" clip-rule="evenodd" d="M12.3959 49.1738C13.8063 49.1738 15.2655 47.6745 15.2655 45.3912C15.2655 43.1079 13.8063 41.6086 12.3959 41.6086C10.9855 41.6086 9.52633 43.1079 9.52633 45.3912C9.52633 47.6745 10.9855 49.1738 12.3959 49.1738ZM12.3959 50.0869C14.485 50.0869 16.1785 47.9846 16.1785 45.3912C16.1785 42.7979 14.485 40.6956 12.3959 40.6956C10.3068 40.6956 8.61328 42.7979 8.61328 45.3912C8.61328 47.9846 10.3068 50.0869 12.3959 50.0869Z" fill="#03624C"></path><path fill-rule="evenodd" clip-rule="evenodd" d="M32.8718 23.8696C39.2111 23.8696 44.3501 18.7306 44.3501 12.3913C44.3501 6.05204 39.2111 0.913044 32.8718 0.913044C26.5325 0.913044 21.3935 6.05204 21.3935 12.3913C21.3935 18.7306 26.5325 23.8696 32.8718 23.8696ZM32.8718 24.7826C39.7153 24.7826 45.2631 19.2348 45.2631 12.3913C45.2631 5.54778 39.7153 0 32.8718 0C26.0282 0 20.4805 5.54778 20.4805 12.3913C20.4805 19.2348 26.0282 24.7826 32.8718 24.7826Z" fill="#03624C"></path><path d="M32.8161 24.7757C31.0355 24.7757 29.3119 24.4045 27.6913 23.6717C27.4305 23.5533 27.2617 23.2925 27.2617 23.0061V19.6188C27.2617 16.5559 29.7532 14.0637 32.8161 14.0637C35.8789 14.0637 38.3712 16.5552 38.3712 19.6188V23.0061C38.3712 23.2932 38.2031 23.5533 37.9415 23.6717C36.321 24.4045 34.5967 24.7757 32.8161 24.7757ZM28.2013 23.0456C30.8082 24.0962 34.6942 24.0962 37.3004 23.0456V19.6188C37.3004 17.3618 35.0723 15.0033 32.8153 15.0033C30.5584 15.0033 28.2005 17.3618 28.2005 19.6188V23.0456H28.2013Z" fill="#03624C"></path><path fill-rule="evenodd" clip-rule="evenodd" d="M32.8725 13.9565C34.2828 13.9565 35.742 12.4572 35.742 10.1739C35.742 7.89061 34.2828 6.39132 32.8725 6.39132C31.4621 6.39132 30.0029 7.89061 30.0029 10.1739C30.0029 12.4572 31.4621 13.9565 32.8725 13.9565ZM32.8725 14.8696C34.9615 14.8696 36.6551 12.7673 36.6551 10.1739C36.6551 7.58059 34.9615 5.47827 32.8725 5.47827C30.7834 5.47827 29.0898 7.58059 29.0898 10.1739C29.0898 12.7673 30.7834 14.8696 32.8725 14.8696Z" fill="#03624C"></path></svg>