<svg xmlns="http://www.w3.org/2000/svg" width="62" height="60" viewBox="0 0 62 60" fill="none"><path d="M0.640065 60C0.993962 60 1.28025 59.7133 1.28025 59.3598C1.28025 56.0272 3.99171 53.316 7.32405 53.316L56.5723 53.3154C59.3004 53.1844 61.4595 50.9313 61.4595 48.1863C61.4595 35.4761 61.4595 19.7765 61.4595 5.14068C61.4595 2.30605 59.1531 0 56.3184 0C53.46 0 51.178 2.31121 51.178 5.14068V9.00085H7.32417C3.28539 9.00085 3.9553e-08 12.2866 3.9553e-08 16.3254V59.3598C-0.000122884 59.7133 0.28629 60 0.640065 60ZM52.4586 5.14055C52.4586 2.97992 54.2036 1.28025 56.3186 1.28025C58.4473 1.28025 60.1792 3.012 60.1792 5.14055V44.7908C59.2339 43.7148 57.8485 43.0343 56.3074 43.0343C54.9369 43.0343 53.6446 43.5716 52.6687 44.5476C52.5962 44.6201 52.5261 44.6945 52.4586 44.7708V5.14055ZM1.28038 16.3254C1.28038 12.9928 3.99183 10.2812 7.32417 10.2812H51.1781V47.9633C51.1781 48.3109 51.4557 48.595 51.8027 48.6032C51.8084 48.6036 51.8133 48.6036 51.8183 48.6036C52.1591 48.6036 52.4417 48.336 52.4579 47.994C52.5041 47.0291 52.9005 46.1266 53.5739 45.4529C54.3079 44.719 55.2789 44.3148 56.3072 44.3148C58.4423 44.3148 60.1791 46.0516 60.1791 48.1864C60.1791 50.269 58.5249 51.9388 56.5417 52.0358H7.32417C4.81776 52.0358 2.60144 53.3015 1.28038 55.2267V16.3254Z" fill="#03624C"></path><path d="M41.9551 25.1936H41.9557C42.1596 25.1936 42.3514 25.0963 42.4721 24.9319C42.801 24.4833 45.6826 20.497 45.6826 18.6423C45.6826 16.5873 44.0108 14.9155 41.9557 14.9155C39.9057 14.9155 38.2383 16.5873 38.2383 18.6423C38.2383 20.4964 41.1111 24.4827 41.4387 24.9309C41.5594 25.096 41.7513 25.1936 41.9551 25.1936ZM41.9557 16.1959C43.305 16.1959 44.4022 17.2935 44.4022 18.6423C44.4022 19.5732 43.0611 21.8339 41.9564 23.4442C40.8553 21.8343 39.5187 19.5746 39.5187 18.6423C39.5188 17.2935 40.6123 16.1959 41.9557 16.1959Z" fill="#03624C"></path><path d="M9.05608 39.7797H9.05669C9.2605 39.7797 9.45238 39.6825 9.5731 39.518C9.90192 39.0695 12.7835 35.0832 12.7835 33.2285C12.7835 31.1735 11.1117 29.5017 9.05669 29.5017C7.00731 29.5017 5.33984 31.1735 5.33984 33.2285C5.33984 35.0826 8.21196 39.0685 8.53968 39.5171C8.66039 39.6819 8.85227 39.7795 9.05608 39.7797ZM9.05669 30.7822C10.4059 30.7822 11.5031 31.8798 11.5031 33.2286C11.5031 34.1595 10.162 36.42 9.05731 38.0302C7.95702 36.42 6.62022 34.1599 6.62022 33.2286C6.62034 31.8798 7.71314 30.7822 9.05669 30.7822Z" fill="#03624C"></path><path d="M41.9679 36.9852C41.6241 36.9042 41.279 37.118 41.1983 37.4625C41.1133 37.8263 40.9826 38.1796 40.8101 38.5122C40.6476 38.8261 40.7701 39.2124 41.084 39.375C41.396 39.5373 41.7838 39.416 41.9468 39.1012C42.1681 38.6747 42.3357 38.2218 42.4451 37.7545C42.5257 37.4104 42.3119 37.0659 41.9679 36.9852Z" fill="#03624C"></path><path d="M31.5621 29.7898C31.916 29.7898 32.2023 29.5031 32.2023 29.1496V27.8692C32.2023 27.5157 31.916 27.229 31.5621 27.229C31.2082 27.229 30.9219 27.5157 30.9219 27.8692V29.1496C30.9219 29.5031 31.2083 29.7898 31.5621 29.7898Z" fill="#03624C"></path><path d="M41.9605 32.4978C41.6066 32.4978 41.3203 32.7845 41.3203 33.138V34.4184C41.3203 34.7719 41.6066 35.0586 41.9605 35.0586C42.3144 35.0586 42.6007 34.7719 42.6007 34.4184V33.138C42.6007 32.7845 42.3144 32.4978 41.9605 32.4978Z" fill="#03624C"></path><path d="M14.691 47.4012C15.6616 47.399 15.7503 47.4067 16.0039 47.3934C16.3572 47.3756 16.6285 47.0749 16.611 46.7216C16.593 46.3683 16.2891 46.097 15.9389 46.1148C15.7299 46.1252 15.6506 46.119 14.691 46.1207C14.3371 46.1207 14.0508 46.4074 14.0508 46.7609C14.0508 47.1146 14.3371 47.4012 14.691 47.4012Z" fill="#03624C"></path><path d="M30.9219 33.631C30.9219 33.9845 31.2082 34.2712 31.5621 34.2712C31.916 34.2712 32.2023 33.9845 32.2023 33.631V32.3506C32.2023 31.9971 31.916 31.7104 31.5621 31.7104C31.2082 31.7104 30.9219 31.9971 30.9219 32.3506V33.631Z" fill="#03624C"></path><path d="M41.9605 28.0164C41.6066 28.0164 41.3203 28.303 41.3203 28.6565V29.9369C41.3203 30.2904 41.6066 30.5771 41.9605 30.5771C42.3144 30.5771 42.6007 30.2904 42.6007 29.9369V28.6565C42.6007 28.303 42.3144 28.0164 41.9605 28.0164Z" fill="#03624C"></path><path d="M9.06206 41.2554C8.70816 41.2554 8.42188 41.542 8.42188 41.8956C8.42188 42.1697 8.44191 42.4452 8.48186 42.714C8.53349 43.0637 8.85936 43.305 9.20896 43.2535C9.55904 43.2016 9.80034 42.8762 9.74847 42.5264C9.71786 42.3192 9.70225 42.1072 9.70225 41.8956C9.70225 41.542 9.41596 41.2554 9.06206 41.2554Z" fill="#03624C"></path><path d="M11.8993 45.6036C11.5748 45.4257 11.2735 45.2051 11.0047 44.9474C10.7484 44.7027 10.3432 44.7114 10.0994 44.9677C9.85486 45.2232 9.86433 45.6282 10.1194 45.8727C10.4695 46.2075 10.8615 46.4948 11.2841 46.7264C11.5926 46.8955 11.9829 46.7838 12.1532 46.4726C12.3232 46.1628 12.2093 45.7736 11.8993 45.6036Z" fill="#03624C"></path><path d="M30.9219 23.3877V24.6681C30.9219 25.0216 31.2082 25.3083 31.5621 25.3083C31.916 25.3083 32.2023 25.0216 32.2023 24.6681V23.3877C32.2023 23.0342 31.916 22.7476 31.5621 22.7476C31.2082 22.7476 30.9219 23.0342 30.9219 23.3877Z" fill="#03624C"></path><path d="M25.925 18.3472C26.8818 18.3472 26.9757 18.4616 27.1972 18.4616C27.4936 18.4616 27.7598 18.2544 27.823 17.9523C27.8956 17.6063 27.6736 17.2672 27.3279 17.1946C26.5637 17.0352 25.976 17.0699 25.9087 17.067C25.5554 17.0761 25.276 17.3703 25.2854 17.7238C25.2947 18.0716 25.5792 18.3472 25.925 18.3472Z" fill="#03624C"></path><path d="M20.5777 28.7946C20.9316 28.7946 21.2179 28.508 21.2179 28.1544V26.8741C21.2179 26.5205 20.9316 26.2339 20.5777 26.2339C20.2238 26.2339 19.9375 26.5205 19.9375 26.8741V28.1544C19.9375 28.508 20.2239 28.7946 20.5777 28.7946Z" fill="#03624C"></path><path d="M22.4501 19.965C22.7009 19.6837 22.9853 19.4318 23.2941 19.2161C23.5842 19.0138 23.6549 18.615 23.4529 18.3249C23.2509 18.0351 22.8514 17.9632 22.5613 18.1664C22.1706 18.4387 21.8124 18.7569 21.4947 19.1123C21.2591 19.3761 21.2822 19.7806 21.546 20.0163C21.809 20.2509 22.2142 20.2294 22.4501 19.965Z" fill="#03624C"></path><path d="M20.578 24.3132C20.9319 24.3132 21.2182 24.0266 21.2182 23.6731C21.2239 23.3441 21.1965 22.9828 21.2689 22.4883C21.3201 22.1385 21.0776 21.8135 20.7281 21.7622C20.378 21.7109 20.0529 21.9535 20.0023 22.3033C19.9122 22.9141 19.9447 23.319 19.9379 23.6732C19.9379 24.0266 20.2243 24.3132 20.578 24.3132Z" fill="#03624C"></path><path d="M20.5777 33.2761C20.9316 33.2761 21.2179 32.9894 21.2179 32.6359V31.3555C21.2179 31.002 20.9316 30.7153 20.5777 30.7153C20.2238 30.7153 19.9375 31.002 19.9375 31.3555V32.6359C19.9375 32.9894 20.2239 33.2761 20.5777 33.2761Z" fill="#03624C"></path><path d="M20.5777 37.7575C20.9316 37.7575 21.2179 37.4709 21.2179 37.1173V35.837C21.2179 35.4834 20.9316 35.1968 20.5777 35.1968C20.2238 35.1968 19.9375 35.4834 19.9375 35.837V37.1173C19.9375 37.4709 20.2239 37.7575 20.5777 37.7575Z" fill="#03624C"></path><path d="M34.5761 41.8345C34.8991 41.9663 35.2758 41.8117 35.4096 41.4807C35.5415 41.1527 35.3833 40.7795 35.0551 40.6472C34.7093 40.5075 34.3798 40.3247 34.076 40.1033C33.7897 39.8951 33.3902 39.958 33.1813 40.2437C32.9731 40.5293 33.0363 40.9298 33.322 41.1381C33.7109 41.4213 34.1323 41.6557 34.5761 41.8345Z" fill="#03624C"></path><path d="M19.304 46.0667C19.6703 45.7513 19.9942 45.3887 20.2655 44.9898C20.4649 44.6975 20.3893 44.2992 20.0967 44.1002C19.8054 43.9014 19.4065 43.977 19.2077 44.269C18.9989 44.5757 18.7501 44.8542 18.4687 45.0971C18.2005 45.3278 18.1705 45.732 18.4012 45.9999C18.6333 46.2686 19.0379 46.297 19.304 46.0667Z" fill="#03624C"></path><path d="M38.1031 42.1019C38.5701 41.9921 39.0228 41.8243 39.4491 41.603C39.7629 41.4398 39.8849 41.0534 39.7224 40.7395C39.5598 40.426 39.1728 40.3041 38.8589 40.4663C38.5269 40.6389 38.1738 40.7698 37.8105 40.8552C37.4661 40.9362 37.2528 41.281 37.3334 41.6251C37.4149 41.9711 37.7625 42.1828 38.1031 42.1019Z" fill="#03624C"></path><path d="M30.2104 20.6696C30.3932 20.9688 30.7859 21.0674 31.0907 20.8821C31.3919 20.6977 31.4877 20.3038 31.3032 20.0019C31.055 19.5958 30.7586 19.2182 30.4229 18.8796C30.1735 18.6282 29.7671 18.627 29.5176 18.8765C29.2662 19.1253 29.265 19.5308 29.5138 19.7818C29.7802 20.0497 30.0141 20.3481 30.2104 20.6696Z" fill="#03624C"></path><path d="M20.5777 42.239C20.9316 42.239 21.2179 41.9523 21.2179 41.5988V40.3184C21.2179 39.9649 20.9316 39.6782 20.5777 39.6782C20.2238 39.6782 19.9375 39.9649 19.9375 40.3184V41.5988C19.9375 41.9523 20.2239 42.239 20.5777 42.239Z" fill="#03624C"></path><path d="M31.5272 36.1931C31.1745 36.2212 30.9119 36.5294 30.9395 36.8821C30.9776 37.3616 31.0746 37.8346 31.2277 38.2876C31.3403 38.6216 31.7036 38.8029 32.0393 38.6889C32.3744 38.5757 32.5538 38.2125 32.4406 37.8774C32.3213 37.5241 32.2455 37.1553 32.2162 36.7808C32.188 36.4285 31.8891 36.17 31.5272 36.1931Z" fill="#03624C"></path></svg>