<svg xmlns="http://www.w3.org/2000/svg" width="93" height="60" viewBox="0 0 93 60" fill="none"><path fill-rule="evenodd" clip-rule="evenodd" d="M27.2905 0.96H86.6857C89.0716 0.96 91.0057 2.89413 91.0057 5.28V11.2704C91.0057 13.5216 89.2838 15.3706 87.0852 15.5722C86.9532 15.5631 86.82 15.5585 86.6857 15.5585H26.7631C24.626 15.2984 22.9705 13.4777 22.9705 11.2704V5.28C22.9705 2.89413 24.9046 0.96 27.2905 0.96ZM91.9657 11.2704C91.9657 13.367 90.7437 15.1782 88.9731 16.0306C91.0163 16.9156 92.4457 18.9501 92.4457 21.3185V27.3089C92.4457 29.6702 91.0248 31.6997 88.9914 32.5889C91.0248 33.4781 92.4457 35.5076 92.4457 37.8689V43.8593C92.4457 47.0405 89.8669 49.6193 86.6857 49.6193H56.9881H37.482L38.035 50.3166C38.1195 50.4233 38.164 50.5562 38.1607 50.6923C38.1574 50.8284 38.1065 50.959 38.0169 51.0615L34.9995 54.5156C34.9098 54.618 34.787 54.6858 34.6525 54.707C34.5181 54.7283 34.3804 54.7018 34.2634 54.6321L30.5274 52.4138C29.0337 53.5036 27.3651 54.3308 25.5933 54.8598L25.0948 59.1724C25.0792 59.3077 25.0167 59.4331 24.9182 59.5271C24.8197 59.621 24.6913 59.6775 24.5555 59.6867L19.9797 59.9953L19.9395 60C19.8102 59.9999 19.6846 59.9567 19.5825 59.8773C19.4804 59.7979 19.4077 59.6868 19.3757 59.5615L18.3024 55.3548C16.4752 55.0682 14.7104 54.4716 13.0842 53.5908L9.68299 56.2908C9.57628 56.3753 9.44336 56.4197 9.30728 56.4164C9.17121 56.4131 9.04059 56.3623 8.93811 56.2727L5.48161 53.2547C5.37921 53.165 5.31148 53.0422 5.2902 52.9077C5.26892 52.7733 5.29543 52.6356 5.36513 52.5186L7.58288 48.7831C6.49268 47.2894 5.66545 45.6206 5.13684 43.8485L0.823645 43.35C0.688504 43.3344 0.563087 43.272 0.469154 43.1736C0.375221 43.0752 0.318697 42.947 0.309391 42.8113L0.00130626 38.2349C-0.00780452 38.099 0.0309582 37.9643 0.11086 37.8541C0.190762 37.7438 0.306753 37.6651 0.438682 37.6315L4.64647 36.5593C4.93279 34.7321 5.52899 32.9671 6.40936 31.3405L3.70765 27.9364C3.6229 27.8298 3.57825 27.6967 3.58144 27.5605C3.58463 27.4243 3.63547 27.2936 3.72512 27.191L6.74307 23.7374C6.83281 23.635 6.95559 23.5673 7.09007 23.546C7.22456 23.5247 7.36225 23.5512 7.47922 23.6209L11.2153 25.8387C12.7089 24.7487 14.3775 23.9215 16.1493 23.3926L16.6478 19.08C16.6634 18.9448 16.7259 18.8193 16.8244 18.7253C16.923 18.6314 17.0513 18.5749 17.1871 18.5657L21.6053 18.2683C21.9934 16.9781 23.0457 15.9796 24.3608 15.6637C22.9437 14.7169 22.0105 13.1026 22.0105 11.2704V5.28C22.0105 2.36394 24.3744 0 27.2905 0H86.6857C89.6018 0 91.9657 2.36394 91.9657 5.28V11.2704ZM36.7208 48.6593H56.9881H86.6857C89.3367 48.6593 91.4857 46.5103 91.4857 43.8593V37.8689C91.4857 35.2179 89.3367 33.0689 86.6857 33.0689H56.9881H39.4993H36.1416C36.3153 33.5075 36.47 33.9541 36.6052 34.4074L40.9184 34.9059C41.0535 34.9215 41.1789 34.9839 41.2729 35.0823C41.3668 35.1807 41.4233 35.3089 41.4326 35.4446L41.7413 40.0211C41.7504 40.1569 41.7117 40.2916 41.6318 40.4018C41.5519 40.5121 41.4359 40.5908 41.3039 40.6244L37.0985 41.6943C36.8119 43.5213 36.2157 45.286 35.3356 46.9125L36.7208 48.6593ZM35.7251 32.1089H39.4993H56.9881H86.6857C89.3367 32.1089 91.4857 29.9599 91.4857 27.3089V21.3185C91.4857 18.8034 89.5512 16.74 87.089 16.5352C86.9559 16.5453 86.8214 16.5504 86.6857 16.5504H27.2905C27.0933 16.5504 26.8986 16.5396 26.707 16.5185H25.2534C23.8225 16.5185 22.633 17.5746 22.4334 18.9577L23.4391 22.9017C25.2662 23.1881 27.031 23.7845 28.6573 24.6651L32.062 21.9658C32.1687 21.8812 32.3016 21.8368 32.4377 21.8401C32.5737 21.8434 32.7044 21.8942 32.8068 21.9838L36.261 25.0012C36.3634 25.0909 36.4311 25.2137 36.4524 25.3482C36.4737 25.4827 36.4472 25.6204 36.3775 25.7373L34.1592 29.4728C34.7642 30.3016 35.2882 31.1844 35.7251 32.1089ZM81.7201 13.4792C80.7227 13.4776 79.7476 13.1846 78.9144 12.6363C78.0813 12.088 77.4265 11.3083 77.0305 10.3929C76.6345 9.47757 76.5145 8.46645 76.6853 7.48383C76.8561 6.50121 77.3103 5.58989 77.992 4.86187C78.6737 4.13385 79.5532 3.62085 80.5225 3.38589C81.4918 3.15094 82.5086 3.20427 83.448 3.53934C84.3874 3.87441 85.2084 4.47661 85.8102 5.27195C86.412 6.0673 86.7684 7.02112 86.8354 8.01622C86.8807 8.68688 86.7933 9.35988 86.5784 9.99679C86.3635 10.6337 86.0252 11.222 85.583 11.7282C85.1407 12.2344 84.603 12.6485 84.0007 12.9469C83.3984 13.2452 82.7432 13.4221 82.0725 13.4672C81.954 13.4752 81.8365 13.4792 81.7201 13.4792ZM81.7341 3.7501C81.629 3.7501 81.5234 3.75366 81.4175 3.76078C80.5077 3.82204 79.6366 4.15169 78.9142 4.70806C78.1918 5.26443 77.6506 6.02252 77.3591 6.88647C77.0675 7.75041 77.0387 8.68141 77.2763 9.56172C77.5139 10.442 78.0072 11.2321 78.6938 11.8321C79.3804 12.432 80.2295 12.8149 81.1338 12.9323C82.038 13.0497 82.9567 12.8963 83.7738 12.4915C84.5908 12.0867 85.2695 11.4488 85.7239 10.6583C86.1784 9.86779 86.3882 8.9603 86.3269 8.05055C86.2483 6.88534 85.7305 5.79336 84.878 4.99515C84.0255 4.19694 82.9019 3.75197 81.7341 3.7501ZM13.3194 52.3893C13.2308 52.3386 13.1304 52.3121 13.0282 52.3124V52.3107C12.897 52.3106 12.7695 52.355 12.6666 52.4365L9.33704 55.0759L6.6132 52.6962L8.78203 49.0429C8.84141 48.943 8.86954 48.8276 8.86279 48.7115C8.85605 48.5955 8.81473 48.4841 8.74417 48.3918C7.54746 46.8334 6.66633 45.0565 6.1502 43.1607C6.11956 43.0485 6.05604 42.9481 5.96782 42.8723C5.87959 42.7965 5.7707 42.7489 5.65516 42.7356L1.4369 42.2475L1.19405 38.6396L5.30806 37.5913C5.42076 37.5625 5.52227 37.5007 5.59949 37.4137C5.67672 37.3267 5.72613 37.2186 5.74136 37.1033C5.99931 35.1552 6.63408 33.276 7.61025 31.5706C7.66788 31.4696 7.69397 31.3536 7.68515 31.2377C7.67632 31.1218 7.633 31.0111 7.56075 30.92L4.92135 27.5928L7.30101 24.869L10.9532 27.0384C11.0532 27.0978 11.1688 27.1259 11.2849 27.1191C11.4011 27.1122 11.5125 27.0707 11.6049 26.9999C13.1627 25.803 14.9392 24.9217 16.8348 24.4054C16.9471 24.3749 17.0476 24.3114 17.1235 24.2231C17.1994 24.1349 17.2471 24.026 17.2605 23.9104L17.7474 19.6927L21.3582 19.4498L22.4065 23.5638C22.4352 23.6764 22.4969 23.7778 22.5836 23.855C22.6704 23.9322 22.7783 23.9817 22.8934 23.9971C24.8416 24.2545 26.7209 24.8893 28.4261 25.866C28.527 25.9237 28.6429 25.9499 28.7589 25.9412C28.8748 25.9325 28.9855 25.8893 29.0766 25.8171L32.4067 23.176L35.13 25.5556L32.9618 29.209C32.9024 29.3089 32.8742 29.4243 32.881 29.5403C32.8877 29.6563 32.9291 29.7677 32.9996 29.8601C34.1962 31.4185 35.0773 33.1954 35.5936 35.0911C35.6243 35.2034 35.6879 35.3039 35.7762 35.3797C35.8646 35.4555 35.9736 35.503 36.0892 35.5163L40.3069 36.0037L40.5497 39.6145L36.4357 40.6628C36.3229 40.6915 36.2213 40.7533 36.1439 40.8403C36.0666 40.9273 36.0171 41.0355 36.0018 41.1509C35.7446 43.0991 35.1098 44.9785 34.133 46.6836C34.0753 46.7846 34.0492 46.9005 34.0581 47.0165C34.0669 47.1324 34.1102 47.243 34.1825 47.3341L36.8224 50.6631L34.4469 53.3864L30.7929 51.2175C30.693 51.1582 30.5775 51.1302 30.4615 51.1371C30.3455 51.1439 30.2341 51.1853 30.1418 51.256C28.5836 52.4525 26.8069 53.3336 24.9114 53.8499C24.7992 53.8806 24.6987 53.9441 24.6229 54.0323C24.5472 54.1206 24.4996 54.2294 24.4862 54.345L23.9988 58.5627L20.3879 58.8061L19.3396 54.6921C19.3109 54.5795 19.2491 54.478 19.1622 54.4008C19.0754 54.3236 18.9674 54.2741 18.8522 54.2588C16.9039 54.0012 15.0246 53.3662 13.3194 52.3893ZM16.1261 46.1989C17.5146 47.1127 19.1399 47.601 20.8022 47.6037C20.9962 47.6037 21.192 47.597 21.3895 47.5837C22.5073 47.5085 23.5993 47.2138 24.6032 46.7165C25.607 46.2192 26.5031 45.529 27.2403 44.6854C27.9774 43.8417 28.5412 42.8612 28.8994 41.7997C29.2575 40.7382 29.4031 39.6165 29.3278 38.4987C29.216 36.8402 28.6221 35.2505 27.6191 33.925C26.6161 32.5994 25.2477 31.5957 23.682 31.0373C22.1164 30.4788 20.4217 30.3899 18.8062 30.7815C17.1907 31.1731 15.7249 32.0281 14.5887 33.2415C13.4525 34.4549 12.6956 35.9737 12.4109 37.6114C12.1262 39.2491 12.3261 40.9343 12.9862 42.4599C13.6462 43.9855 14.7375 45.2851 16.1261 46.1989ZM20.2979 31.4063C20.4744 31.3945 20.6503 31.3885 20.8255 31.3885C22.7719 31.3916 24.6446 32.1333 26.0654 33.4636C27.4862 34.794 28.3493 36.6139 28.4802 38.5559C28.5824 40.0722 28.2326 41.5847 27.4752 42.9022C26.7178 44.2196 25.5867 45.2829 24.2249 45.9575C22.8632 46.6322 21.332 46.8878 19.825 46.6922C18.3179 46.4966 16.9027 45.8584 15.7584 44.8585C14.614 43.8586 13.7918 42.5418 13.3959 41.0746C12.9999 39.6074 13.0479 38.0557 13.5338 36.6158C14.0197 35.1759 14.9217 33.9124 16.1257 32.9851C17.3297 32.0579 18.7816 31.5084 20.2979 31.4063ZM78.9144 28.6748C79.7476 29.2231 80.7227 29.5161 81.7201 29.5177C81.8365 29.5177 81.954 29.5137 82.0725 29.5058C82.7432 29.4606 83.3984 29.2838 84.0007 28.9854C84.603 28.687 85.1407 28.2729 85.583 27.7667C86.0252 27.2605 86.3635 26.6722 86.5784 26.0353C86.7933 25.3984 86.8807 24.7254 86.8354 24.0547C86.7684 23.0596 86.412 22.1058 85.8102 21.3105C85.2084 20.5151 84.3874 19.9129 83.448 19.5779C82.5086 19.2428 81.4918 19.1895 80.5225 19.4244C79.5532 19.6594 78.6737 20.1724 77.992 20.9004C77.3103 21.6284 76.8561 22.5397 76.6853 23.5223C76.5145 24.505 76.6345 25.5161 77.0305 26.4315C77.4265 27.3468 78.0813 28.1266 78.9144 28.6748ZM81.4175 19.7993C81.5234 19.7922 81.629 19.7886 81.7341 19.7886C82.9019 19.7905 84.0255 20.2355 84.878 21.0337C85.7305 21.8319 86.2483 22.9239 86.3269 24.0891C86.3882 24.9988 86.1784 25.9063 85.7239 26.6968C85.2695 27.4873 84.5908 28.1252 83.7738 28.53C82.9567 28.9348 82.038 29.0882 81.1338 28.9708C80.2295 28.8534 79.3804 28.4706 78.6938 27.8706C78.0072 27.2707 77.5139 26.4806 77.2763 25.6002C77.0387 24.7199 77.0675 23.7889 77.3591 22.925C77.6506 22.061 78.1918 21.3029 78.9142 20.7466C79.6366 20.1902 80.5077 19.8606 81.4175 19.7993ZM81.7201 46.0681C80.7227 46.0665 79.7476 45.7735 78.9144 45.2252C78.0813 44.6769 77.4265 43.8972 77.0305 42.9818C76.6345 42.0665 76.5145 41.0554 76.6853 40.0727C76.8561 39.0901 77.3103 38.1788 77.992 37.4508C78.6737 36.7228 79.5532 36.2098 80.5225 35.9748C81.4918 35.7398 82.5086 35.7932 83.448 36.1282C84.3874 36.4633 85.2084 37.0655 85.8102 37.8609C86.412 38.6562 86.7684 39.61 86.8354 40.6051C86.8807 41.2758 86.7933 41.9488 86.5784 42.5857C86.3635 43.2226 86.0252 43.8109 85.583 44.3171C85.1407 44.8233 84.603 45.2374 84.0007 45.5358C83.3984 45.8342 82.7432 46.011 82.0725 46.0561C81.954 46.0641 81.8365 46.0681 81.7201 46.0681ZM81.7341 36.339C81.629 36.339 81.5234 36.3426 81.4175 36.3497C80.5077 36.4109 79.6366 36.7406 78.9142 37.297C78.1918 37.8533 77.6506 38.6114 77.3591 39.4754C77.0675 40.3393 77.0387 41.2703 77.2763 42.1506C77.5139 43.0309 78.0072 43.821 78.6938 44.421C79.3804 45.021 80.2295 45.4038 81.1338 45.5212C82.038 45.6386 82.9567 45.4852 83.7738 45.0804C84.5908 44.6756 85.2695 44.0377 85.7239 43.2472C86.1784 42.4567 86.3882 41.5492 86.3269 40.6395C86.2483 39.4742 85.7305 38.3823 84.878 37.5841C84.0255 36.7858 82.9019 36.3409 81.7341 36.339Z" fill="#03624C"></path></svg>