<svg xmlns="http://www.w3.org/2000/svg" width="57" height="60" viewBox="0 0 57 60" fill="none"><path d="M14.744 21.197C12.7582 21.1957 10.8508 20.4216 9.42576 19.0386C8.0007 17.6556 7.16983 15.7723 7.10905 13.7874C7.04828 11.8025 7.76238 9.87189 9.10015 8.40429C10.4379 6.93669 12.2944 6.04735 14.2764 5.92455C16.2584 5.80175 18.2104 6.45515 19.7191 7.74639C21.2278 9.03763 22.1748 10.8653 22.3595 12.8426C22.5442 14.8198 21.9521 16.7912 20.7087 18.3396C19.4652 19.8879 17.668 20.8915 15.6975 21.138C15.3812 21.1772 15.0627 21.1969 14.744 21.197ZM14.7629 6.83069C14.4796 6.83098 14.1966 6.84871 13.9155 6.88377C12.5966 7.04855 11.3562 7.60072 10.3511 8.47045C9.34601 9.34019 8.62139 10.4884 8.26887 11.77C7.91635 13.0515 7.95176 14.4089 8.37063 15.6703C8.7895 16.9317 9.57301 18.0406 10.6221 18.8568C11.6712 19.6729 12.9387 20.1596 14.2644 20.2554C15.5901 20.3512 16.9144 20.0517 18.0699 19.3948C19.2254 18.738 20.1602 17.7532 20.756 16.5651C21.3519 15.377 21.582 14.0389 21.4174 12.7199C21.2145 11.0968 20.4268 9.6033 19.2018 8.5192C17.9769 7.43511 16.3987 6.83479 14.7629 6.83069Z" fill="#03624C"></path><path d="M14.8955 27.1075C14.7974 27.1073 14.702 27.0758 14.623 27.0178C14.544 26.9597 14.4855 26.8779 14.4561 26.7844L13.6286 24.1707C12.4709 24.0492 11.3412 23.7373 10.2852 23.2476L8.23596 25.0721C8.15537 25.144 8.05211 25.1853 7.94416 25.189C7.83622 25.1926 7.73042 25.1583 7.64519 25.0919L5.3121 23.2767C5.22691 23.2105 5.16761 23.1165 5.14451 23.0111C5.1214 22.9057 5.13596 22.7955 5.18564 22.6998L6.4498 20.2642C5.71582 19.3611 5.13616 18.343 4.73426 17.2508L1.99686 17.0921C1.8892 17.0858 1.78714 17.042 1.70839 16.9683C1.62965 16.8946 1.57919 16.7957 1.56579 16.6887L1.19886 13.7551C1.18551 13.6481 1.21006 13.5398 1.26823 13.449C1.3264 13.3582 1.41453 13.2906 1.51733 13.258L4.13148 12.4328C4.25302 11.2753 4.56491 10.1458 5.05456 9.08988L3.22964 7.04064C3.15791 6.96003 3.1167 6.85684 3.11316 6.749C3.10962 6.64115 3.14397 6.53548 3.21025 6.45033L5.02549 4.11679C5.0917 4.0316 5.18568 3.9723 5.29107 3.9492C5.39647 3.92609 5.50663 3.94065 5.60241 3.99033L8.03796 5.25402C8.94099 4.52023 9.95899 3.94058 11.0509 3.53848L11.2101 0.801091C11.2164 0.693429 11.2602 0.591365 11.3339 0.51262C11.4076 0.433874 11.5065 0.383419 11.6135 0.370013L14.547 0.00355086C14.6541 -0.00979831 14.7624 0.0147436 14.8532 0.0729167C14.944 0.13109 15.0115 0.219221 15.0441 0.322013L15.8721 2.93571C17.0297 3.05718 18.1592 3.36908 19.2151 3.85879L21.2643 2.03386C21.3449 1.96202 21.4482 1.92073 21.5562 1.91719C21.6641 1.91365 21.7699 1.94808 21.8551 2.01448L24.1886 3.82925C24.2739 3.89549 24.3333 3.98955 24.3564 4.09505C24.3795 4.20054 24.3649 4.31081 24.3151 4.40664L23.0505 6.84172C23.7829 7.74452 24.3613 8.76205 24.7623 9.85327L27.4997 10.012C27.6074 10.0183 27.7094 10.0621 27.7882 10.1358C27.8669 10.2095 27.9174 10.3084 27.9308 10.4154L28.2972 13.3494C28.3106 13.4561 28.2862 13.5641 28.2284 13.6548C28.1706 13.7455 28.083 13.8131 27.9806 13.846L25.3669 14.6768C25.2454 15.8343 24.9335 16.9639 24.4438 18.0197L26.2688 20.069C26.3405 20.1496 26.3817 20.2528 26.3852 20.3606C26.3888 20.4685 26.3544 20.5741 26.2882 20.6593L24.4729 22.9928C24.4067 23.078 24.3127 23.1373 24.2073 23.1604C24.1019 23.1835 23.9918 23.169 23.896 23.1193L21.4623 21.8528C20.5594 22.5869 19.5414 23.1665 18.4494 23.5684L18.2906 26.3076C18.2843 26.4153 18.2405 26.5173 18.1668 26.5961C18.0932 26.6748 17.9942 26.7253 17.8872 26.7387L14.9532 27.1056C14.934 27.1074 14.9148 27.108 14.8955 27.1075ZM10.2077 22.2396C10.2788 22.2387 10.3491 22.2545 10.413 22.2858C11.5356 22.8472 12.7568 23.1844 14.0084 23.2785C14.1006 23.2855 14.1886 23.3201 14.2609 23.3777C14.3333 23.4353 14.3866 23.5133 14.4141 23.6016L15.2186 26.1401L17.3878 25.8687L17.542 23.2084C17.5472 23.1163 17.5799 23.028 17.6359 22.9547C17.6918 22.8814 17.7684 22.8265 17.8558 22.7971C19.0463 22.3986 20.1475 21.7715 21.0977 20.951C21.1675 20.8908 21.2538 20.853 21.3453 20.8423C21.4369 20.8316 21.5295 20.8485 21.6114 20.891L23.9786 22.1196L25.3217 20.3925L23.5517 18.4014C23.4904 18.3326 23.4511 18.2469 23.4389 18.1555C23.4268 18.0641 23.4422 17.9712 23.4834 17.8887C24.0445 16.7658 24.3811 15.5442 24.4743 14.2924C24.4814 14.2002 24.516 14.1124 24.5736 14.0401C24.6312 13.9679 24.7092 13.9146 24.7974 13.8871L27.3358 13.0822L27.0654 10.913L24.4046 10.7593C24.3125 10.754 24.2241 10.7212 24.1508 10.6652C24.0775 10.6092 24.0227 10.5325 23.9934 10.445C23.5948 9.2545 22.9677 8.15329 22.1472 7.20311C22.087 7.13322 22.049 7.04688 22.0384 6.95523C22.0277 6.86358 22.0447 6.77083 22.0872 6.68895L23.3163 4.32218L21.5888 2.97679L19.5972 4.75048C19.5284 4.81176 19.4429 4.85106 19.3516 4.86332C19.2603 4.87557 19.1674 4.86023 19.0849 4.81925C17.9616 4.25911 16.7399 3.92331 15.4881 3.83064C15.396 3.82353 15.3081 3.78894 15.2359 3.73134C15.1636 3.67374 15.1103 3.59579 15.0829 3.50756L14.278 0.969092L12.1087 1.24048L11.9541 3.90079C11.9489 3.99279 11.9163 4.08112 11.8604 4.15441C11.8046 4.2277 11.7281 4.28259 11.6407 4.31202C10.4502 4.71072 9.34886 5.33781 8.39842 6.15818C8.32857 6.21833 8.24232 6.2562 8.15076 6.26689C8.05921 6.27758 7.96655 6.26062 7.88472 6.21818L5.5161 4.98448L4.17302 6.71157L5.94672 8.70357C6.00793 8.7724 6.04714 8.85797 6.05931 8.94927C6.07148 9.04057 6.05606 9.13342 6.01503 9.21588C5.45427 10.339 5.11784 11.5608 5.02456 12.8127C5.01755 12.9049 4.983 12.9928 4.9254 13.0652C4.86779 13.1375 4.78978 13.1909 4.70149 13.2183L2.16302 14.0228L2.43394 16.192L5.09472 16.3462C5.18683 16.3515 5.27524 16.3843 5.34854 16.4403C5.42184 16.4963 5.47667 16.573 5.50595 16.6605C5.90483 17.8508 6.53191 18.952 7.35211 19.9024C7.41217 19.9722 7.44997 20.0583 7.46066 20.1498C7.47136 20.2413 7.45445 20.3338 7.41211 20.4156L6.18349 22.7828L7.91057 24.1264L9.90073 22.3564C9.98526 22.2811 10.0945 22.2396 10.2077 22.2396Z" fill="#03624C"></path><path d="M14.7047 53.5694C12.5382 53.5701 10.4575 52.7225 8.90832 51.208C7.3591 49.6935 6.46451 47.6326 6.41613 45.4666C6.36775 43.3006 7.16943 41.2018 8.64948 39.6197C10.1295 38.0375 12.1703 37.0978 14.3346 37.0018C16.499 36.9058 18.615 37.6611 20.2293 39.106C21.8436 40.5509 22.828 42.5705 22.9716 44.7322C23.1152 46.8939 22.4066 49.026 20.9975 50.6717C19.5885 52.3174 17.5911 53.346 15.433 53.5371C15.1889 53.5588 14.9456 53.5694 14.7047 53.5694ZM14.7236 37.931C14.5064 37.931 14.2879 37.9406 14.0682 37.9597C12.6187 38.0866 11.2394 38.6405 10.1047 39.5514C8.97004 40.4622 8.13093 41.6891 7.6935 43.0769C7.25607 44.4646 7.23998 45.9509 7.64726 47.3478C8.05454 48.7447 8.8669 49.9894 9.98161 50.9247C11.0963 51.8599 12.4633 52.4435 13.9097 52.6018C15.3561 52.7601 16.817 52.486 18.1076 51.814C19.3982 51.142 20.4606 50.1025 21.1604 48.8267C21.8602 47.551 22.1659 46.0964 22.039 44.6469C21.8786 42.8161 21.0389 41.1117 19.6851 39.8689C18.3313 38.626 16.5614 37.9347 14.7236 37.931Z" fill="#03624C"></path><path d="M14.3441 60C14.2432 59.9999 14.1451 59.9667 14.0648 59.9056C13.9845 59.8444 13.9265 59.7586 13.8997 59.6613L13.0971 56.7582C11.8289 56.5814 10.5994 56.1932 9.45967 55.6099L7.13582 57.5299C7.05292 57.5988 6.9485 57.6366 6.84067 57.6366C6.73284 57.6366 6.62841 57.5988 6.54551 57.5299L4.07951 55.4608C3.99682 55.3915 3.94102 55.2954 3.9218 55.1893C3.90257 55.0831 3.92114 54.9736 3.97428 54.8797L5.46089 52.2577C4.68819 51.2367 4.09222 50.0933 3.69781 48.8751L0.697806 48.5898C0.590532 48.5795 0.490267 48.5319 0.414397 48.4554C0.338527 48.3788 0.291836 48.2781 0.282421 48.1708L0.00180468 44.9645C-0.007728 44.857 0.0207128 44.7495 0.0821829 44.6608C0.143653 44.5721 0.234265 44.5077 0.338267 44.4789L3.24135 43.6768C3.41816 42.4084 3.80647 41.1788 4.39012 40.0389L2.47058 37.7132C2.4015 37.6303 2.36368 37.5258 2.36368 37.4178C2.36368 37.3099 2.4015 37.2054 2.47058 37.1224L4.5392 34.6569C4.60851 34.5741 4.70466 34.5182 4.81092 34.499C4.91717 34.4798 5.02681 34.4984 5.12074 34.5517L7.74275 36.0383C8.76374 35.2657 9.90695 34.6696 11.1249 34.2747L11.4111 31.2747C11.4214 31.1675 11.469 31.0672 11.5456 30.9913C11.6221 30.9155 11.7228 30.8688 11.8301 30.8593L15.0365 30.5787C15.1438 30.5699 15.2509 30.5986 15.3394 30.6599C15.4278 30.7213 15.4922 30.8116 15.5215 30.9152L16.3237 33.8183C17.5925 33.9952 18.8226 34.3836 19.9629 34.9675L22.2872 33.0461C22.3701 32.9772 22.4746 32.9394 22.5824 32.9394C22.6902 32.9394 22.7947 32.9772 22.8776 33.0461L25.3436 35.1147C25.4262 35.184 25.482 35.2801 25.5013 35.3862C25.5205 35.4924 25.5019 35.6019 25.4488 35.6958L23.9617 38.3178C24.7346 39.3388 25.3308 40.4822 25.7253 41.7004L28.7253 41.9857C28.8325 41.996 28.9328 42.0436 29.0087 42.1202C29.0845 42.1967 29.1312 42.2974 29.1406 42.4048L29.4213 45.6111C29.4307 45.7185 29.4022 45.8258 29.3407 45.9144C29.2793 46.003 29.1887 46.0673 29.0848 46.0962L26.1817 46.8988C26.0048 48.1671 25.6165 49.3967 25.0329 50.5366L26.9525 52.86C27.0216 52.9429 27.0594 53.0475 27.0594 53.1554C27.0594 53.2633 27.0216 53.3678 26.9525 53.4508L24.8834 55.9168C24.814 55.9995 24.7178 56.0553 24.6116 56.0744C24.5053 56.0936 24.3957 56.0749 24.3019 56.0216L21.6803 54.5354C20.6592 55.3079 19.5158 55.9039 18.2977 56.2985L18.0115 59.2985C18.0012 59.4058 17.9536 59.506 17.8771 59.5819C17.8005 59.6578 17.6998 59.7045 17.5925 59.7139L14.3848 60C14.3714 60 14.3575 60 14.3441 60ZM9.4029 54.5968C9.48008 54.5968 9.55604 54.616 9.62398 54.6526C10.8275 55.3106 12.1479 55.7275 13.5111 55.8799C13.6027 55.8901 13.6892 55.9275 13.7593 55.9873C13.8295 56.0471 13.8802 56.1266 13.9048 56.2154L14.6894 59.0451L17.1295 58.8309L17.4065 55.9089C17.4152 55.8171 17.4511 55.73 17.5098 55.6589C17.5685 55.5877 17.6471 55.5358 17.7355 55.5097C19.0517 55.1226 20.2797 54.4825 21.3508 53.6252C21.4228 53.5678 21.5104 53.5332 21.6023 53.526C21.6942 53.5187 21.7862 53.5391 21.8663 53.5846L24.4214 55.0334L25.9966 53.1559L24.1256 50.8911C24.0669 50.82 24.0308 50.7331 24.022 50.6413C24.0132 50.5496 24.0321 50.4574 24.0762 50.3765C24.7342 49.1726 25.1509 47.8519 25.3029 46.4885C25.3133 46.3969 25.3508 46.3104 25.4107 46.2404C25.4706 46.1703 25.5501 46.1197 25.6389 46.0952L28.4686 45.3106L28.2545 42.87L25.3325 42.5931C25.2407 42.5844 25.1536 42.5484 25.0824 42.4897C25.0113 42.4311 24.9593 42.3524 24.9333 42.264C24.5463 40.9476 23.906 39.7193 23.0483 38.6483C22.9908 38.5762 22.9563 38.4886 22.949 38.3967C22.9418 38.3049 22.9622 38.2129 23.0077 38.1327L24.4565 35.5777L22.5794 34.0029L20.3142 35.8754C20.2431 35.9341 20.156 35.9702 20.0642 35.979C19.9724 35.9878 19.88 35.9689 19.7991 35.9247C18.5955 35.2664 17.2749 34.8494 15.9115 34.697C15.8199 34.6868 15.7334 34.6494 15.6633 34.5896C15.5931 34.5298 15.5424 34.4504 15.5178 34.3615L14.736 31.5327L12.2954 31.746L12.0184 34.6684C12.0097 34.7602 11.9736 34.8471 11.915 34.9182C11.8563 34.9893 11.7778 35.0412 11.6894 35.0672C10.3734 35.4547 9.14564 36.095 8.07459 36.9521C8.00259 37.0097 7.915 37.0443 7.82312 37.0517C7.73123 37.059 7.63926 37.0386 7.55905 36.9932L5.00351 35.544L3.42689 37.4215L5.29751 39.6863C5.35614 39.7572 5.39222 39.8441 5.4011 39.9357C5.40998 40.0274 5.39127 40.1195 5.34736 40.2004C4.68939 41.4045 4.27268 42.7253 4.12058 44.0889C4.11025 44.1805 4.07273 44.2669 4.01284 44.337C3.95296 44.4071 3.87346 44.4577 3.78458 44.4821L0.954884 45.264L1.16904 47.7051L4.09105 47.982C4.18271 47.9907 4.26967 48.0267 4.34073 48.0853C4.41179 48.1438 4.46371 48.2223 4.48982 48.3106C4.87717 49.6269 5.51742 50.855 6.37474 51.9263C6.43221 51.9984 6.4668 52.086 6.47403 52.1779C6.48127 52.2697 6.46084 52.3617 6.41536 52.4419L4.96705 54.9969L6.84413 56.5717L9.1089 54.7011C9.19183 54.6333 9.29577 54.5964 9.4029 54.5968Z" fill="#03624C"></path><path d="M40.3543 36.1028C38.544 36.0998 36.7739 35.5681 35.2616 34.5728C33.7494 33.5776 32.5608 32.1623 31.8419 30.5007C31.1231 28.8392 30.9054 27.0038 31.2154 25.2202C31.5255 23.4366 32.3499 21.7824 33.5873 20.4609C34.8247 19.1394 36.4212 18.2082 38.1806 17.7818C39.94 17.3553 41.7857 17.4521 43.4908 18.0603C45.196 18.6685 46.6863 19.7616 47.7787 21.2053C48.871 22.649 49.5178 24.3803 49.6396 26.1866C49.7216 27.4039 49.5631 28.6255 49.173 29.7816C48.7829 30.9377 48.1689 32.0056 47.3661 32.9244C46.5633 33.8432 45.5874 34.5949 44.494 35.1365C43.4007 35.6781 42.2114 35.9991 40.994 36.0811C40.779 36.0955 40.5657 36.1028 40.3543 36.1028ZM40.3797 18.4429C40.189 18.4429 39.9974 18.4493 39.8051 18.4623C38.1538 18.5734 36.5725 19.1718 35.2612 20.1817C33.9499 21.1916 32.9676 22.5677 32.4384 24.1359C31.9092 25.7041 31.8569 27.394 32.2882 28.9919C32.7194 30.5898 33.6148 32.024 34.8611 33.113C36.1075 34.202 37.6488 34.897 39.2901 35.1101C40.9314 35.3231 42.599 35.0447 44.0821 34.3099C45.5652 33.5752 46.797 32.4172 47.622 30.9823C48.4469 29.5475 48.8278 27.9002 48.7165 26.2489C48.5739 24.1338 47.634 22.1517 46.0866 20.7028C44.5392 19.2539 42.4996 18.4462 40.3797 18.4429Z" fill="#03624C"></path><path d="M39.63 43.3532C39.5275 43.3531 39.4279 43.3189 39.347 43.2559C39.2662 43.193 39.2085 43.105 39.1832 43.0056L38.3326 39.6719C36.8846 39.4448 35.486 38.972 34.1972 38.2739L31.5018 40.4136C31.4172 40.4806 31.3119 40.5159 31.2041 40.5132C31.0962 40.5106 30.9927 40.4703 30.9115 40.3993L28.1722 38.0076C28.0911 37.9365 28.0374 37.8392 28.0206 37.7326C28.0037 37.6261 28.0247 37.5169 28.0799 37.4243L29.8375 34.4639C28.9735 33.2802 28.3179 31.9577 27.899 30.5533L24.4809 30.1582C24.3738 30.1459 24.2744 30.0964 24.1999 30.0184C24.1255 29.9404 24.0807 29.8389 24.0733 29.7313L23.8292 26.1045C23.8219 25.9969 23.8527 25.8901 23.916 25.8028C23.9793 25.7154 24.0712 25.653 24.1758 25.6264L27.5104 24.7767C27.7373 23.3286 28.2098 21.9299 28.9075 20.6408L26.7664 17.9431C26.6992 17.8586 26.6638 17.7532 26.6664 17.6452C26.6689 17.5373 26.7092 17.4337 26.7802 17.3524L29.1719 14.6154C29.2431 14.5343 29.3404 14.4806 29.4469 14.4637C29.5535 14.4469 29.6626 14.4679 29.7553 14.5231L32.7161 16.2807C33.8998 15.4169 35.2221 14.7613 36.6263 14.3422L37.0213 10.9245C37.0337 10.8173 37.0833 10.7179 37.1613 10.6434C37.2394 10.569 37.3411 10.5242 37.4487 10.517L41.075 10.2728C41.1825 10.2664 41.2888 10.2973 41.376 10.3604C41.4631 10.4236 41.5258 10.5149 41.5532 10.619L42.4034 13.9531C43.8513 14.1801 45.2499 14.6527 46.5387 15.3507L49.2369 13.2114C49.3215 13.1445 49.4268 13.1092 49.5347 13.1118C49.6425 13.1144 49.746 13.1547 49.8272 13.2257L52.5646 15.617C52.6458 15.6881 52.6994 15.7854 52.7163 15.892C52.7332 15.9985 52.7122 16.1077 52.6569 16.2004L50.8989 19.1607C51.763 20.3444 52.4185 21.6669 52.8374 23.0713L56.2555 23.4664C56.3626 23.4787 56.462 23.5282 56.5365 23.6062C56.6109 23.6842 56.6557 23.7857 56.6631 23.8933L56.9077 27.5201C56.9149 27.6277 56.8842 27.7345 56.8209 27.8218C56.7576 27.9092 56.6656 27.9716 56.5611 27.9982L53.2283 28.8461C53.0012 30.294 52.5287 31.6925 51.8312 32.9815L53.9705 35.6792C54.0374 35.7637 54.0727 35.8691 54.0701 35.9769C54.0674 36.0847 54.0271 36.1883 53.9562 36.2695L51.5649 39.0069C51.4938 39.088 51.3965 39.1417 51.2899 39.1586C51.1833 39.1754 51.0742 39.1544 50.9815 39.0992L48.0208 37.3412C46.837 38.2049 45.5147 38.8604 44.1106 39.2796L43.7155 42.6973C43.7031 42.8045 43.6536 42.904 43.5755 42.9784C43.4975 43.0529 43.3958 43.0976 43.2881 43.1049L39.6618 43.3495L39.63 43.3532ZM34.1529 37.2609C34.2338 37.2606 34.3134 37.2816 34.3836 37.3218C35.735 38.0959 37.2243 38.5992 38.7683 38.8033C38.8596 38.8155 38.9452 38.8547 39.014 38.9159C39.0828 38.9771 39.1318 39.0575 39.1546 39.1467L39.9854 42.407L42.8469 42.2141L43.2332 38.8716C43.2438 38.7801 43.2815 38.6938 43.3416 38.6239C43.4016 38.5539 43.4812 38.5036 43.5701 38.4793C45.0723 38.0701 46.4803 37.3719 47.7152 36.4236C47.7884 36.3676 47.8766 36.3348 47.9685 36.3294C48.0605 36.324 48.152 36.3462 48.2312 36.3932L51.1269 38.1119L53.0095 35.9538L50.9174 33.3156C50.8601 33.2434 50.8258 33.1557 50.8188 33.0639C50.8118 32.972 50.8325 32.8801 50.8781 32.8001C51.6523 31.4488 52.1554 29.9594 52.3592 28.4155C52.3713 28.324 52.4105 28.2383 52.4718 28.1694C52.5331 28.1004 52.6137 28.0514 52.7031 28.0287L55.9634 27.1979L55.7709 24.3364L52.4285 23.9501C52.3368 23.9396 52.2504 23.9019 52.1804 23.8418C52.1104 23.7818 52.06 23.7021 52.0357 23.6131C51.6265 22.1108 50.9282 20.7026 49.98 19.4676C49.9241 19.3944 49.8913 19.3061 49.886 19.2142C49.8806 19.1222 49.9029 19.0308 49.95 18.9516L51.6683 16.0564L49.5101 14.1705L46.8711 16.2636C46.7988 16.3208 46.7111 16.355 46.6192 16.3619C46.5273 16.3688 46.4355 16.3481 46.3555 16.3024C45.0041 15.5283 43.5148 15.0253 41.9709 14.8213C41.8797 14.809 41.7942 14.7698 41.7254 14.7086C41.6567 14.6474 41.6078 14.5671 41.585 14.4779L40.7543 11.2176L37.8927 11.41L37.5069 14.7525C37.4963 14.8441 37.4585 14.9305 37.3983 15.0004C37.3382 15.0703 37.2585 15.1206 37.1695 15.1448C35.6673 15.554 34.2595 16.2524 33.0249 17.201C32.9517 17.2571 32.8634 17.2899 32.7713 17.2954C32.6793 17.3008 32.5877 17.2785 32.5084 17.2314L29.6141 15.5122L27.7282 17.6708L29.8199 20.3076C29.8772 20.3798 29.9115 20.4675 29.9185 20.5594C29.9255 20.6512 29.9048 20.7431 29.8592 20.8231C29.0856 22.1747 28.5825 23.6639 28.3781 25.2078C28.366 25.2991 28.3269 25.3848 28.2657 25.4538C28.2045 25.5227 28.124 25.5717 28.0347 25.5945L24.7744 26.4253L24.9669 29.2845L28.3098 29.6713C28.4013 29.6819 28.4876 29.7196 28.5576 29.7797C28.6275 29.8397 28.6778 29.9193 28.7021 30.0082C29.1111 31.5107 29.8094 32.9188 30.7578 34.1538C30.8137 34.227 30.8465 34.3152 30.8518 34.4072C30.8571 34.4991 30.8349 34.5906 30.7878 34.6698L29.069 37.565L31.2276 39.4509L33.8663 37.3592C33.9478 37.2946 34.0488 37.2595 34.1529 37.2595V37.2609Z" fill="#03624C"></path></svg>