<?xml version="1.0"?>
<svg xmlns="http://www.w3.org/2000/svg" width="60" height="60" viewBox="0 0 60 60" fill="none"><path d="M34.0312 60H25.9688C25.5326 60.0002 25.1104 59.8469 24.776 59.567C24.4415 59.2871 24.2163 58.8984 24.1397 58.4691L23.2022 53.2688C21.5138 52.7769 19.8839 52.1029 18.3412 51.2587L14.0025 54.2738C13.6447 54.5227 13.2108 54.6379 12.7767 54.5992C12.3425 54.5604 11.9359 54.3702 11.6278 54.0619L5.93344 48.3675C5.62484 48.0594 5.4345 47.6525 5.39576 47.2182C5.35702 46.7838 5.47236 46.3497 5.72156 45.9919L8.73656 41.6541C7.89242 40.1109 7.21817 38.4808 6.72563 36.7922L1.52531 35.8547C1.09797 35.7771 0.711351 35.5521 0.432676 35.219C0.154002 34.8859 0.000902358 34.4656 2.22126e-07 34.0312V25.9688C-0.000212976 25.5325 0.153052 25.1101 0.432951 24.7756C0.71285 24.441 1.10154 24.2156 1.53094 24.1388L6.73781 23.2013C7.22331 21.512 7.89526 19.8819 8.74125 18.3412L5.72625 14.0025C5.47712 13.6448 5.36182 13.2108 5.40056 12.7766C5.4393 12.3425 5.6296 11.9358 5.93812 11.6278L11.6325 5.93344C11.9404 5.62492 12.3471 5.43461 12.7813 5.39587C13.2155 5.35713 13.6495 5.47243 14.0072 5.72156L18.3459 8.73656C19.8886 7.893 21.5181 7.21907 23.2059 6.72656L24.1434 1.52531C24.2211 1.09766 24.4463 0.71079 24.7798 0.432077C25.1134 0.153365 25.5341 0.000464169 25.9688 3.1187e-07H34.0312C34.4673 -0.000252232 34.8896 0.15288 35.2242 0.432591C35.5587 0.712303 35.7842 1.10077 35.8612 1.53L36.7987 6.73031C38.4868 7.22343 40.1166 7.89766 41.6597 8.74125L45.9975 5.72625C46.3554 5.47705 46.7895 5.36171 47.2238 5.40045C47.6582 5.43919 48.065 5.62953 48.3731 5.93813L54.0675 11.6325C54.3757 11.9406 54.5658 12.3473 54.6045 12.7814C54.6432 13.2155 54.5281 13.6494 54.2794 14.0072L51.2644 18.3459C52.108 19.8889 52.7819 21.5187 53.2744 23.2069L58.4756 24.1444C58.9029 24.2224 59.2893 24.4476 59.5678 24.7809C59.8462 25.1141 59.9992 25.5344 60 25.9688V34.0312C60.0002 34.4672 59.8471 34.8894 59.5673 35.2238C59.2876 35.5582 58.8991 35.7835 58.47 35.8603L53.2688 36.7978C52.7763 38.486 52.1023 40.1158 51.2587 41.6588L54.2738 45.9975C54.5225 46.3553 54.6376 46.7892 54.5989 47.2233C54.5601 47.6574 54.3701 48.064 54.0619 48.3722L48.3675 54.0666C48.0592 54.3748 47.6524 54.5649 47.2181 54.6037C46.7839 54.6424 46.3498 54.5273 45.9919 54.2784L41.6541 51.2644C40.1111 52.108 38.4813 52.7819 36.7931 53.2744L35.8556 58.4747C35.7778 58.9021 35.5527 59.2887 35.2194 59.5674C34.8861 59.8461 34.4657 59.9991 34.0312 60ZM18.3197 50.2378C18.4012 50.2376 18.4813 50.2586 18.5522 50.2988C20.1867 51.2204 21.9265 51.9415 23.7338 52.4466C23.8244 52.4725 23.9051 52.5251 23.9653 52.5975C24.0218 52.6643 24.0613 52.7437 24.0806 52.8291L25.0641 58.3031C25.1019 58.5157 25.2132 58.7082 25.3786 58.847C25.5439 58.9858 25.7528 59.0621 25.9688 59.0625H34.0312C34.2475 59.0626 34.4568 58.9867 34.6227 58.8481C34.7886 58.7094 34.9005 58.5169 34.9388 58.3041L35.9241 52.8178C35.9397 52.7315 35.9793 52.6512 36.0383 52.5863C36.0973 52.5213 36.1734 52.4742 36.2578 52.4503C38.0693 51.9435 39.8129 51.2195 41.4506 50.2941C41.5276 50.2504 41.6154 50.2294 41.7039 50.2336C41.7923 50.2377 41.8777 50.2668 41.9503 50.3175L46.5291 53.4994C46.7065 53.6231 46.9219 53.6804 47.1374 53.6612C47.3529 53.642 47.5547 53.5476 47.7075 53.3944L53.4019 47.7C53.5546 47.5472 53.6489 47.3455 53.6681 47.1303C53.6872 46.9151 53.6302 46.6999 53.5069 46.5225L50.3241 41.9428C50.2734 41.8702 50.2443 41.7848 50.2401 41.6964C50.236 41.6079 50.2569 41.5201 50.3006 41.4431C51.2244 39.8052 51.9469 38.0616 52.4522 36.2503C52.4761 36.1659 52.5232 36.0898 52.5881 36.0308C52.6531 35.9718 52.7333 35.9322 52.8197 35.9166L58.3059 34.9312C58.5172 34.893 58.7085 34.7821 58.8466 34.6178C58.9848 34.4534 59.0611 34.2459 59.0625 34.0312V25.9688C59.0628 25.7524 58.9868 25.5428 58.8479 25.3768C58.7091 25.2109 58.5162 25.0991 58.3031 25.0612L52.8169 24.0759C52.7305 24.0603 52.6503 24.0207 52.5853 23.9617C52.5203 23.9027 52.4732 23.8266 52.4494 23.7422C51.9441 21.9309 51.2216 20.1873 50.2978 18.5494C50.2541 18.4724 50.2332 18.3846 50.2373 18.2961C50.2415 18.2077 50.2706 18.1223 50.3213 18.0497L53.5041 13.47C53.6274 13.2926 53.6844 13.0774 53.6652 12.8622C53.6461 12.647 53.5518 12.4453 53.3991 12.2925L47.7047 6.59813C47.5517 6.44528 47.3499 6.35103 47.1345 6.33184C46.9191 6.31264 46.7038 6.36973 46.5262 6.49312L41.9475 9.68062C41.8749 9.73132 41.7895 9.76042 41.701 9.76457C41.6126 9.76872 41.5248 9.74774 41.4478 9.70406C39.8102 8.77856 38.0666 8.05455 36.255 7.54781C36.1704 7.52387 36.0943 7.47663 36.0353 7.41148C35.9762 7.34633 35.9367 7.2659 35.9213 7.17938L34.9359 1.69594C34.8978 1.48362 34.7863 1.29143 34.621 1.15284C34.4557 1.01425 34.247 0.938044 34.0312 0.9375H25.9688C25.7527 0.937421 25.5434 1.01336 25.3777 1.15202C25.2119 1.29068 25.1003 1.48322 25.0622 1.69594L24.0769 7.18219C24.0612 7.26855 24.0216 7.34878 23.9626 7.41375C23.9036 7.47872 23.8276 7.52582 23.7431 7.54969C21.9317 8.05685 20.1882 8.78084 18.5503 9.70594C18.4733 9.74962 18.3855 9.77059 18.2971 9.76645C18.2087 9.7623 18.1232 9.73319 18.0506 9.6825L13.4709 6.495C13.2935 6.37168 13.0784 6.31463 12.8631 6.33382C12.6479 6.35301 12.4463 6.44723 12.2934 6.6L6.59906 12.2944C6.44603 12.4469 6.35162 12.6484 6.33242 12.8635C6.31322 13.0787 6.37045 13.2938 6.49406 13.4709L9.67594 18.0516C9.72663 18.1241 9.75573 18.2096 9.75988 18.298C9.76403 18.3864 9.74305 18.4742 9.69938 18.5513C8.77659 20.1886 8.0545 21.9311 7.54875 23.7413C7.52012 23.839 7.4614 23.9253 7.38094 23.9878C7.32743 24.0437 7.25473 24.0772 7.1775 24.0816L1.69688 25.0641C1.48431 25.1019 1.29179 25.2132 1.15298 25.3786C1.01417 25.5439 0.9379 25.7528 0.9375 25.9688V34.0312C0.937421 34.2473 1.01336 34.4566 1.15202 34.6223C1.29068 34.7881 1.48322 34.8997 1.69594 34.9378L7.18031 35.9222C7.27431 35.9398 7.36087 35.9852 7.42875 36.0525C7.46612 36.0894 7.49773 36.1318 7.5225 36.1781C8.03724 38.0159 8.76962 39.7856 9.70406 41.4497C9.74774 41.5267 9.76872 41.6145 9.76457 41.7029C9.76042 41.7914 9.73132 41.8768 9.68062 41.9494L6.49875 46.5291C6.37525 46.7064 6.31809 46.9216 6.33728 47.1369C6.35648 47.3522 6.45081 47.5538 6.60375 47.7066L12.2981 53.4009C12.4505 53.5541 12.652 53.6487 12.8673 53.6679C13.0825 53.6871 13.2976 53.6297 13.4747 53.5059L18.0553 50.3241C18.1325 50.2689 18.2248 50.2388 18.3197 50.2378Z" fill="#03624C"/><path fill-rule="evenodd" clip-rule="evenodd" d="M30.0293 46.2891C39.1711 46.2891 46.582 38.8782 46.582 29.7363C46.582 20.5945 39.1711 13.1836 30.0293 13.1836C20.8875 13.1836 13.4766 20.5945 13.4766 29.7363C13.4766 38.8782 20.8875 46.2891 30.0293 46.2891ZM30.0293 47.3145C39.7374 47.3145 47.6074 39.4445 47.6074 29.7363C47.6074 20.0282 39.7374 12.1582 30.0293 12.1582C20.3212 12.1582 12.4512 20.0282 12.4512 29.7363C12.4512 39.4445 20.3212 47.3145 30.0293 47.3145Z" fill="#03624C"/><path fill-rule="evenodd" clip-rule="evenodd" d="M19.6289 38.5986C19.6289 38.3155 19.9371 38.0859 20.3174 38.0859H39.5947C39.975 38.0859 40.2832 38.3155 40.2832 38.5986C40.2832 38.8818 39.975 39.1113 39.5947 39.1113H20.3174C19.9371 39.1113 19.6289 38.8818 19.6289 38.5986Z" fill="#03624C"/><path fill-rule="evenodd" clip-rule="evenodd" d="M26.4041 23.701L29.6668 20.4382C29.8671 20.238 30.1917 20.238 30.3919 20.4382L33.6547 23.701C33.8549 23.9012 33.8549 24.2259 33.6547 24.4261C33.4545 24.6263 33.1298 24.6263 32.9296 24.4261L30.5421 22.0385L30.5421 38.6719C30.5421 38.955 30.3125 39.1846 30.0294 39.1846C29.7462 39.1846 29.5167 38.955 29.5167 38.6719L29.5167 22.0385L27.1291 24.4261C26.9289 24.6263 26.6043 24.6263 26.4041 24.4261C26.2039 24.2259 26.2039 23.9012 26.4041 23.701Z" fill="#03624C"/></svg>
