<svg xmlns="http://www.w3.org/2000/svg" width="60" height="60" viewBox="0 0 60 60" fill="none"><path d="M57.1787 44.5428C57.9142 44.554 58.6241 44.2732 59.153 43.7619C59.6818 43.2506 59.9864 42.5506 60 41.8151V2.72936C59.9868 1.99366 59.6823 1.29322 59.1534 0.781644C58.6246 0.270062 57.9144 -0.0109135 57.1787 0.000324667C56.4429 -0.0109145 55.7327 0.270047 55.2037 0.781615C54.6747 1.29318 54.3702 1.99362 54.3569 2.72936V41.8151C54.3706 42.5506 54.6753 43.2507 55.2042 43.762C55.7331 44.2732 56.4431 44.554 57.1787 44.5428ZM57.1787 0.923388C57.6696 0.911978 58.1451 1.09565 58.5009 1.43416C58.8568 1.77267 59.0639 2.23842 59.0769 2.72936V41.8151C59.0639 42.306 58.8568 42.7718 58.5009 43.1103C58.1451 43.4488 57.6696 43.6325 57.1787 43.6211C56.6876 43.6326 56.212 43.449 55.8561 43.1105C55.5002 42.7719 55.293 42.3061 55.2799 41.8151V2.72936C55.293 2.23834 55.5002 1.77252 55.8561 1.434C56.212 1.09547 56.6876 0.911854 57.1787 0.923388Z" fill="#03624C"></path><path d="M24.2299 13.2855C41.4491 13.2855 54.9568 3.20428 55.0985 3.0972C55.196 3.02327 55.2602 2.91361 55.2769 2.79235C55.2936 2.67109 55.2615 2.54815 55.1876 2.4506C55.1136 2.35304 55.004 2.28885 54.8827 2.27214C54.7614 2.25544 54.6385 2.28759 54.5409 2.36152C54.3951 2.47183 39.7798 13.37 21.684 12.2845C21.5626 12.2799 21.4441 12.3224 21.3532 12.403C21.2624 12.4837 21.2061 12.5963 21.1962 12.7174C21.1889 12.8395 21.2304 12.9596 21.3116 13.0512C21.3927 13.1427 21.507 13.1983 21.6291 13.2057C22.5037 13.2601 23.3728 13.2855 24.2299 13.2855Z" fill="#03624C"></path><path d="M54.8197 42.2472C54.9166 42.2472 55.011 42.2167 55.0896 42.1601C55.1682 42.1034 55.2269 42.0235 55.2576 41.9316C55.2882 41.8397 55.2891 41.7405 55.2603 41.648C55.2314 41.5556 55.1741 41.4745 55.0966 41.4164C54.9462 41.3043 39.7927 30.2012 21.3624 31.3089C21.24 31.3162 21.1255 31.3718 21.044 31.4635C20.9626 31.5552 20.921 31.6755 20.9283 31.7979C20.9356 31.9203 20.9912 32.0348 21.0829 32.1162C21.1746 32.1976 21.2949 32.2392 21.4173 32.2319C39.5162 31.145 54.3974 42.0487 54.546 42.159C54.6254 42.2172 54.7214 42.2481 54.8197 42.2472Z" fill="#03624C"></path><path d="M10.778 33.4417H18.5193C19.6547 33.4597 20.751 33.0271 21.5681 32.2385C22.3853 31.4499 22.8566 30.3697 22.8789 29.2343V14.973C22.8566 13.8377 22.3853 12.7574 21.5681 11.9688C20.751 11.1803 19.6547 10.7476 18.5193 10.7657H10.778C9.6425 10.7475 8.54607 11.1801 7.72885 11.9687C6.91163 12.7573 6.44024 13.8376 6.41792 14.973V29.2343C6.44024 30.3698 6.91163 31.4501 7.72885 32.2387C8.54607 33.0273 9.6425 33.4598 10.778 33.4417ZM18.5193 11.6874C19.4099 11.6693 20.2715 12.0046 20.9155 12.6201C21.5595 13.2356 21.9336 14.0811 21.9558 14.9716V29.233C21.9336 30.1235 21.5595 30.969 20.9155 31.5845C20.2715 32.1999 19.4099 32.5353 18.5193 32.5172H10.778C9.88728 32.5354 9.0256 32.2001 8.38148 31.5846C7.73737 30.9691 7.36325 30.1236 7.34098 29.233V14.9716C7.36325 14.081 7.73737 13.2354 8.38148 12.62C9.0256 12.0045 9.88728 11.6691 10.778 11.6874H18.5193Z" fill="#03624C"></path><path d="M12.9178 11.6849C13.0402 11.6849 13.1576 11.6362 13.2442 11.5497C13.3307 11.4631 13.3794 11.3457 13.3794 11.2233V9.80827C13.402 9.37518 13.59 8.96729 13.9045 8.66873C14.2191 8.37018 14.6363 8.20374 15.0699 8.20374C15.5036 8.20374 15.9208 8.37018 16.2353 8.66873C16.5499 8.96729 16.7379 9.37518 16.7605 9.80827V11.2233C16.7605 11.3457 16.8092 11.4631 16.8957 11.5497C16.9823 11.6362 17.0997 11.6849 17.2221 11.6849C17.3445 11.6849 17.4619 11.6362 17.5484 11.5497C17.635 11.4631 17.6836 11.3457 17.6836 11.2233V9.80827C17.6615 9.12981 17.3765 8.48653 16.8887 8.01441C16.401 7.54228 15.7488 7.27832 15.0699 7.27832C14.3911 7.27832 13.7389 7.54228 13.2512 8.01441C12.7634 8.48653 12.4784 9.12981 12.4563 9.80827V11.2233C12.4563 11.3457 12.5049 11.4631 12.5915 11.5497C12.678 11.6362 12.7954 11.6849 12.9178 11.6849Z" fill="#03624C"></path><path d="M14.648 26.3228C15.4765 26.2927 16.2779 26.0195 16.9522 25.5372C17.6265 25.0549 18.144 24.3848 18.4401 23.6104C18.7362 22.8361 18.7979 21.9917 18.6175 21.1825C18.4371 20.3733 18.0226 19.6351 17.4256 19.0599C16.8286 18.4846 16.0755 18.0978 15.2602 17.9476C14.4448 17.7974 13.6033 17.8904 12.8405 18.2151C12.0777 18.5398 11.4273 19.0818 10.9703 19.7736C10.5134 20.4653 10.2701 21.2763 10.2709 22.1053C10.2938 23.2445 10.7674 24.3281 11.5879 25.1186C12.4084 25.9092 13.5088 26.3422 14.648 26.3228ZM14.648 18.804C15.2936 18.8339 15.9162 19.0526 16.4387 19.4331C16.9611 19.8135 17.3604 20.339 17.587 20.9442C17.8136 21.5495 17.8576 22.2079 17.7135 22.8379C17.5694 23.4679 17.2435 24.0418 16.7763 24.4883C16.3091 24.9349 15.7211 25.2345 15.0852 25.35C14.4493 25.4655 13.7935 25.3918 13.1991 25.138C12.6047 24.8843 12.0979 24.4617 11.7414 23.9226C11.385 23.3835 11.1946 22.7516 11.1939 22.1053C11.2157 21.21 11.5915 20.3598 12.2389 19.741C12.8863 19.1222 13.7527 18.7853 14.648 18.804Z" fill="#03624C"></path><path d="M4.2502 31.943H7.44862C7.57103 31.943 7.68842 31.8944 7.77497 31.8078C7.86153 31.7213 7.91015 31.6039 7.91015 31.4815V31.1755C7.91061 31.0664 7.87243 30.9607 7.80239 30.8771C7.73234 30.7935 7.63496 30.7374 7.5275 30.7188C7.42003 30.7001 7.30945 30.7201 7.21534 30.7753C7.12123 30.8304 7.04969 30.9171 7.0134 31.0199H4.2502C3.38816 31.0383 2.55402 30.7141 1.9306 30.1184C1.30718 29.5228 0.945347 28.7043 0.924407 27.8423V16.6677C0.945347 15.8057 1.30718 14.9872 1.9306 14.3915C2.55402 13.7959 3.38816 13.4717 4.2502 13.49H7.39277C7.45723 13.4972 7.52247 13.4908 7.58431 13.4713C7.64616 13.4518 7.70325 13.4196 7.75194 13.3767C7.80064 13.3339 7.83986 13.2814 7.8671 13.2225C7.89434 13.1637 7.90901 13.0998 7.91015 13.035V13.0285C7.91015 12.9061 7.86153 12.7887 7.77497 12.7021C7.68842 12.6156 7.57103 12.567 7.44862 12.567H4.2502C3.14344 12.5489 2.07468 12.9704 1.27822 13.7391C0.481754 14.5078 0.0225768 15.561 0.00134325 16.6677V27.8423C0.0225768 28.949 0.481754 30.0021 1.27822 30.7708C2.07468 31.5395 3.14344 31.961 4.2502 31.943Z" fill="#03624C"></path><path d="M13.7118 59.9996H16.4251C17.4603 60.0163 18.4599 59.6218 19.2047 58.9027C19.9495 58.1836 20.3788 57.1985 20.3984 56.1634V32.7203C20.3984 32.5979 20.3498 32.4805 20.2633 32.394C20.1767 32.3074 20.0593 32.2588 19.9369 32.2588C19.8145 32.2588 19.6971 32.3074 19.6106 32.394C19.524 32.4805 19.4754 32.5979 19.4754 32.7203V56.1634C19.4559 56.9537 19.1239 57.7042 18.5522 58.2502C17.9804 58.7963 17.2155 59.0934 16.4251 59.0766H13.7118C12.9213 59.0934 12.1565 58.7963 11.5847 58.2502C11.013 57.7042 10.681 56.9537 10.6615 56.1634V32.9386C10.6615 32.8162 10.6129 32.6988 10.5263 32.6123C10.4398 32.5257 10.3224 32.4771 10.2 32.4771C10.0776 32.4771 9.96017 32.5257 9.87362 32.6123C9.78706 32.6988 9.73844 32.8162 9.73844 32.9386V56.1634C9.7581 57.1985 10.1874 58.1836 10.9322 58.9027C11.677 59.6218 12.6766 60.0163 13.7118 59.9996Z" fill="#03624C"></path></svg>