<svg xmlns="http://www.w3.org/2000/svg" width="43" height="60" viewBox="0 0 43 60" fill="none"><path d="M35.1766 60H7.33846C5.39274 59.9982 3.52724 59.2244 2.15141 57.8486C0.77558 56.4728 0.00183299 54.6073 0 52.6615V7.33846C0.00183299 5.39274 0.77558 3.52724 2.15141 2.15141C3.52724 0.775579 5.39274 0.00183299 7.33846 0H35.1766C37.1223 0.00183299 38.9878 0.775579 40.3637 2.15141C41.7395 3.52724 42.5132 5.39274 42.5151 7.33846V52.6615C42.5132 54.6073 41.7395 56.4728 40.3637 57.8486C38.9878 59.2244 37.1223 59.9982 35.1766 60ZM7.33846 0.923077C5.63748 0.924666 4.00663 1.60108 2.80385 2.80385C1.60108 4.00663 0.924666 5.63748 0.923077 7.33846V52.6615C0.924666 54.3625 1.60108 55.9934 2.80385 57.1961C4.00663 58.3989 5.63748 59.0753 7.33846 59.0769H35.1766C36.8776 59.0753 38.5084 58.3989 39.7112 57.1961C40.914 55.9934 41.5904 54.3625 41.592 52.6615V7.33846C41.5904 5.63748 40.914 4.00663 39.7112 2.80385C38.5084 1.60108 36.8776 0.924666 35.1766 0.923077H7.33846Z" fill="#03624C"></path><path d="M38.1581 52.3444H4.1256C4.00319 52.3444 3.8858 52.2958 3.79924 52.2093C3.71269 52.1227 3.66406 52.0053 3.66406 51.8829V6.55382C3.66406 6.43142 3.71269 6.31402 3.79924 6.22747C3.8858 6.14091 4.00319 6.09229 4.1256 6.09229H38.1581C38.2805 6.09229 38.3979 6.14091 38.4844 6.22747C38.571 6.31402 38.6196 6.43142 38.6196 6.55382V51.8843C38.6192 52.0065 38.5704 52.1235 38.4839 52.2098C38.3974 52.296 38.2802 52.3444 38.1581 52.3444ZM4.58714 51.4214H37.6965V7.01536H4.58714V51.4214Z" fill="#03624C"></path><path d="M21.1451 58.4729C20.618 58.4719 20.1029 58.3147 19.6651 58.0211C19.2272 57.7274 18.8863 57.3105 18.6855 56.8231C18.4846 56.3357 18.4328 55.7997 18.5365 55.2828C18.6403 54.7659 18.895 54.2914 19.2685 53.9193C19.6419 53.5472 20.1173 53.2943 20.6346 53.1924C21.1518 53.0905 21.6877 53.1442 22.1743 53.3469C22.661 53.5495 23.0767 53.892 23.3687 54.3308C23.6608 54.7697 23.8161 55.2854 23.8151 55.8126C23.8131 56.5191 23.5308 57.1961 23.0302 57.6948C22.5297 58.1935 21.8517 58.4733 21.1451 58.4729ZM21.1451 54.0656C20.8009 54.0665 20.4647 54.1694 20.1789 54.3612C19.8931 54.553 19.6705 54.8251 19.5392 55.1433C19.4079 55.4615 19.3738 55.8114 19.4412 56.149C19.5085 56.4865 19.6744 56.7965 19.9178 57.0399C20.1612 57.2833 20.4712 57.4492 20.8087 57.5165C21.1463 57.5839 21.4962 57.5498 21.8144 57.4185C22.1326 57.2872 22.4047 57.0646 22.5965 56.7788C22.7883 56.493 22.8912 56.1568 22.8921 55.8126C22.8916 55.3494 22.7074 54.9053 22.3799 54.5778C22.0524 54.2503 21.6083 54.0661 21.1451 54.0656Z" fill="#03624C"></path><path d="M33.3738 47.8016H28.7584C28.636 47.8016 28.5186 47.7529 28.4321 47.6664C28.3455 47.5798 28.2969 47.4624 28.2969 47.34V27.0323C28.2969 26.9099 28.3455 26.7925 28.4321 26.706C28.5186 26.6194 28.636 26.5708 28.7584 26.5708H33.3738C33.4962 26.5708 33.6136 26.6194 33.7002 26.706C33.7867 26.7925 33.8353 26.9099 33.8353 27.0323V47.34C33.8353 47.4624 33.7867 47.5798 33.7002 47.6664C33.6136 47.7529 33.4962 47.8016 33.3738 47.8016ZM29.22 46.8785H32.9123V27.4939H29.22V46.8785Z" fill="#03624C"></path><path d="M23.5652 47.8016H18.9498C18.8274 47.8016 18.71 47.7529 18.6235 47.6664C18.5369 47.5798 18.4883 47.4624 18.4883 47.34V33.0323C18.4883 32.9099 18.5369 32.7925 18.6235 32.706C18.71 32.6194 18.8274 32.5708 18.9498 32.5708H23.5652C23.6876 32.5708 23.805 32.6194 23.8916 32.706C23.9781 32.7925 24.0267 32.9099 24.0267 33.0323V47.34C24.0267 47.4624 23.9781 47.5798 23.8916 47.6664C23.805 47.7529 23.6876 47.8016 23.5652 47.8016ZM19.4114 46.8785H23.1037V33.4939H19.4114V46.8785Z" fill="#03624C"></path><path d="M13.7566 47.8014H9.14123C9.01882 47.8014 8.90142 47.7528 8.81487 47.6662C8.72831 47.5797 8.67969 47.4623 8.67969 47.3399V19.6476C8.67969 19.5252 8.72831 19.4078 8.81487 19.3212C8.90142 19.2347 9.01882 19.186 9.14123 19.186H13.7566C13.879 19.186 13.9964 19.2347 14.083 19.3212C14.1695 19.4078 14.2181 19.5252 14.2181 19.6476V47.3399C14.2181 47.4623 14.1695 47.5797 14.083 47.6662C13.9964 47.7528 13.879 47.8014 13.7566 47.8014ZM9.60276 46.8783H13.2951V20.1091H9.60276V46.8783Z" fill="#03624C"></path><path d="M23.8266 4.0637H18.692C18.5696 4.0637 18.4522 4.01508 18.3656 3.92852C18.2791 3.84196 18.2305 3.72457 18.2305 3.60216C18.2305 3.47976 18.2791 3.36236 18.3656 3.27581C18.4522 3.18925 18.5696 3.14062 18.692 3.14062H23.8266C23.949 3.14062 24.0664 3.18925 24.153 3.27581C24.2395 3.36236 24.2882 3.47976 24.2882 3.60216C24.2882 3.72457 24.2395 3.84196 24.153 3.92852C24.0664 4.01508 23.949 4.0637 23.8266 4.0637Z" fill="#03624C"></path></svg>