<svg xmlns="http://www.w3.org/2000/svg" width="52" height="60" viewBox="0 0 52 60" fill="none"><path d="M18.6952 53.2522C17.2362 53.2522 16.0508 54.4376 16.0508 55.8966C16.0508 57.3555 17.2362 58.541 18.6952 58.541C20.1541 58.541 21.3395 57.3555 21.3395 55.8966C21.3395 54.4376 20.1541 53.2522 18.6952 53.2522ZM18.6952 57.6291C17.7468 57.6291 16.9626 56.8449 16.9626 55.8966C16.9626 54.9482 17.7468 54.1641 18.6952 54.1641C19.6435 54.1641 20.4277 54.9482 20.4277 55.8966C20.4277 56.8449 19.6435 57.6291 18.6952 57.6291Z" fill="#03624C"></path><path d="M14.3143 2.91797C13.6578 2.91797 13.1289 3.44684 13.1289 4.10338C13.1289 4.75991 13.6578 5.28879 14.3143 5.28879C14.9709 5.28879 15.4997 4.75991 15.4997 4.10338C15.4997 3.44684 14.9709 2.91797 14.3143 2.91797ZM14.0408 4.10338C14.0408 3.95748 14.1684 3.82982 14.3143 3.82982C14.4602 3.82982 14.5879 3.95748 14.5879 4.10338C14.5879 4.41341 14.0408 4.39517 14.0408 4.10338Z" fill="#03624C"></path><path d="M17.2362 2.91797C16.5797 2.91797 16.0508 3.44684 16.0508 4.10338C16.0508 4.75991 16.5797 5.28879 17.2362 5.28879C17.8927 5.28879 18.4216 4.75991 18.4216 4.10338C18.4216 3.44684 17.8927 2.91797 17.2362 2.91797ZM16.9626 4.10338C16.9626 3.95748 17.0903 3.82982 17.2362 3.82982C17.3821 3.82982 17.5097 3.95748 17.5097 4.10338C17.5097 4.41341 16.9626 4.41341 16.9626 4.10338Z" fill="#03624C"></path><path d="M20.1503 2.91797C19.4937 2.91797 18.9648 3.44684 18.9648 4.10338C18.9648 4.75991 19.4937 5.28879 20.1503 5.28879C20.8068 5.28879 21.3357 4.75991 21.3357 4.10338C21.3357 3.44684 20.8068 2.91797 20.1503 2.91797ZM19.8767 4.10338C19.8767 3.95748 20.0044 3.82982 20.1503 3.82982C20.2961 3.82982 20.4238 3.95748 20.4238 4.10338C20.4238 4.39517 19.8767 4.41341 19.8767 4.10338Z" fill="#03624C"></path><path d="M23.0721 2.91797C22.4156 2.91797 21.8867 3.44684 21.8867 4.10338C21.8867 4.75991 22.4156 5.28879 23.0721 5.28879C23.7287 5.28879 24.2575 4.75991 24.2575 4.10338C24.2575 3.44684 23.7287 2.91797 23.0721 2.91797ZM22.7986 4.10338C22.7986 3.95748 22.9262 3.82982 23.0721 3.82982C23.218 3.82982 23.3457 3.95748 23.3457 4.10338C23.3457 4.41341 22.7986 4.39517 22.7986 4.10338Z" fill="#03624C"></path><path d="M51.2462 45.6839V36.2006C51.2462 35.9453 51.0456 35.7447 50.7903 35.7447C47.0152 35.7447 43.9514 32.6808 43.9514 28.9058C43.9514 28.6505 43.7508 28.4498 43.4954 28.4498H37.386V7.75076V4.10334C37.386 1.84195 35.5441 0 33.2827 0H4.10334C1.84194 0 0 1.84195 0 4.10334V7.75076V52.2675V55.8967C0 58.1581 1.84194 60 4.10334 60H33.2827C34.0851 60 34.8328 59.7629 35.4711 59.3435C36.1641 59.69 36.6383 59.9088 36.7477 59.9635C36.8024 59.9818 36.8754 60 36.9301 60C36.9848 60 37.0577 59.9818 37.1125 59.9635C37.696 59.7082 51.2462 53.5441 51.2462 45.6839ZM0.911854 4.10334C0.911854 2.35258 2.35258 0.911854 4.10334 0.911854H33.2827C35.0334 0.911854 36.4742 2.35258 36.4742 4.10334V7.29483H0.911854V4.10334ZM0.911854 8.20669H36.4742V28.4498H30.3647C30.1094 28.4498 29.9088 28.6505 29.9088 28.9058C29.9088 32.6808 26.845 35.7447 23.0699 35.7447C22.8146 35.7447 22.614 35.9453 22.614 36.2006V45.6839C22.614 47.8906 23.7082 49.9696 25.2584 51.8115H0.911854V8.20669ZM33.2827 59.0881H4.10334C2.35258 59.0881 0.911854 57.6474 0.911854 55.8967V52.7234H26.0608C28.6869 55.459 32.1884 57.5927 34.4681 58.8328C34.1033 58.9787 33.7021 59.0881 33.2827 59.0881ZM36.9301 59.0334C35.2887 58.2675 23.5258 52.4863 23.5258 45.6839V36.6018C27.4286 36.3647 30.5471 33.2644 30.766 29.3617H43.076C43.3131 33.2644 46.4134 36.383 50.3161 36.6018V45.6839C50.3343 52.4863 38.5714 58.2675 36.9301 59.0334Z" fill="#03624C"></path><path d="M36.9285 34.2856C31.8586 34.2856 27.7188 38.4255 27.7188 43.4954C27.7188 48.5653 31.8586 52.7051 36.9285 52.7051C41.9984 52.7051 46.1382 48.5653 46.1382 43.4954C46.1382 38.4255 41.9984 34.2856 36.9285 34.2856ZM36.9285 51.7932C32.351 51.7932 28.6306 48.0729 28.6306 43.4954C28.6306 38.9179 32.351 35.1975 36.9285 35.1975C41.506 35.1975 45.2263 38.9179 45.2263 43.4954C45.2263 48.0729 41.506 51.7932 36.9285 51.7932Z" fill="#03624C"></path><path d="M37.0247 46.9319C36.1292 46.9322 35.2691 46.5818 34.6287 45.9558C33.9883 45.3297 33.6185 44.4778 33.5985 43.5825C33.5785 42.6872 33.9099 41.8196 34.5217 41.1656C35.1335 40.5116 35.9771 40.1231 36.8717 40.0834C37.7664 40.0438 38.6411 40.356 39.3084 40.9532C39.9757 41.5505 40.3826 42.3853 40.4419 43.2789C40.5013 44.1725 40.2084 45.0538 39.6259 45.7341C39.0435 46.4144 38.2178 46.8395 37.3258 46.9185C37.2248 46.9275 37.1243 46.9319 37.0247 46.9319ZM37.0325 40.4676C36.9427 40.4676 36.8524 40.4715 36.7616 40.4794C36.1624 40.5319 35.5923 40.7608 35.1232 41.1374C34.6542 41.5139 34.3073 42.021 34.1265 42.5947C33.9457 43.1683 33.9391 43.7827 34.1074 44.3601C34.2758 44.9375 34.6116 45.4521 35.0723 45.8386C35.5331 46.2252 36.0982 46.4665 36.6961 46.5319C37.294 46.5974 37.8979 46.484 38.4314 46.2063C38.9648 45.9285 39.404 45.4988 39.6932 44.9714C39.9825 44.4441 40.1089 43.8428 40.0565 43.2437C39.9901 42.4869 39.643 41.7823 39.0834 41.2686C38.5238 40.7548 37.7922 40.4691 37.0325 40.4676Z" fill="#03624C"></path><path d="M36.8072 49.4402C36.7661 49.4401 36.726 49.4266 36.6933 49.4017C36.6606 49.3767 36.6369 49.3417 36.626 49.302L36.2986 48.118C35.7814 48.0459 35.28 47.8876 34.8151 47.6497L33.8673 48.4327C33.8335 48.4609 33.7909 48.4763 33.747 48.4763C33.703 48.4763 33.6604 48.4609 33.6266 48.4327L32.6208 47.5889C32.5871 47.5606 32.5644 47.5214 32.5565 47.4781C32.5487 47.4348 32.5563 47.3902 32.5779 47.3519L33.1842 46.2825C32.8691 45.8661 32.626 45.3998 32.4652 44.9029L31.2416 44.7866C31.1979 44.7824 31.157 44.763 31.126 44.7317C31.0951 44.7005 31.0761 44.6595 31.0722 44.6157L30.9578 43.308C30.9539 43.2641 30.9655 43.2203 30.9905 43.1841C31.0156 43.148 31.0526 43.1217 31.095 43.11L32.279 42.7828C32.3511 42.2655 32.5095 41.764 32.7475 41.2991L31.9646 40.3506C31.9365 40.3168 31.921 40.2741 31.921 40.2301C31.921 40.1861 31.9365 40.1435 31.9646 40.1097L32.8083 39.1041C32.8366 39.0703 32.8758 39.0475 32.9191 39.0397C32.9625 39.0319 33.0072 39.0395 33.0455 39.0612L34.1149 39.6675C34.5313 39.3524 34.9975 39.1093 35.4943 38.9482L35.611 37.7247C35.6152 37.6809 35.6346 37.64 35.6658 37.6091C35.6971 37.5782 35.7381 37.5591 35.7819 37.5553L37.0896 37.4408C37.1334 37.4372 37.177 37.4489 37.2131 37.474C37.2492 37.499 37.2755 37.5358 37.2874 37.5781L37.6146 38.7621C38.1321 38.8342 38.6338 38.9926 39.0988 39.2308L40.0468 38.4471C40.0806 38.419 40.1232 38.4036 40.1672 38.4036C40.2111 38.4036 40.2537 38.419 40.2875 38.4471L41.2933 39.2908C41.327 39.3191 41.3498 39.3583 41.3576 39.4016C41.3655 39.4449 41.3579 39.4895 41.3362 39.5278L40.7297 40.5972C41.0449 41.0136 41.2881 41.4799 41.449 41.9768L42.6725 42.0931C42.7163 42.0973 42.7572 42.1167 42.7881 42.148C42.819 42.1792 42.8381 42.2202 42.8419 42.264L42.9564 43.5717C42.9602 43.6155 42.9486 43.6593 42.9235 43.6954C42.8985 43.7316 42.8615 43.7578 42.8191 43.7695L41.6351 44.0969C41.563 44.6142 41.4046 45.1157 41.1666 45.5806L41.9495 46.5282C41.9777 46.562 41.9931 46.6046 41.9931 46.6486C41.9931 46.6927 41.9777 46.7353 41.9495 46.7691L41.1056 47.7749C41.0773 47.8086 41.0381 47.8313 40.9948 47.8391C40.9514 47.847 40.9067 47.8393 40.8684 47.8176L39.7993 47.2115C39.3828 47.5265 38.9165 47.7696 38.4197 47.9305L38.303 49.1541C38.2987 49.1978 38.2793 49.2387 38.2481 49.2697C38.2169 49.3006 38.1758 49.3196 38.132 49.3235L36.8238 49.4402C36.8183 49.4402 36.8127 49.4402 36.8072 49.4402ZM34.792 47.2365C34.8234 47.2365 34.8544 47.2443 34.8821 47.2593C35.373 47.5276 35.9115 47.6976 36.4675 47.7598C36.5048 47.764 36.5401 47.7792 36.5687 47.8036C36.5973 47.828 36.618 47.8604 36.628 47.8966L36.948 49.0507L37.9432 48.9634L38.0562 47.7717C38.0597 47.7342 38.0744 47.6987 38.0983 47.6697C38.1223 47.6406 38.1543 47.6195 38.1904 47.6088C38.7272 47.4509 39.228 47.1899 39.6649 46.8403C39.6942 46.8168 39.73 46.8027 39.7675 46.7998C39.8049 46.7968 39.8424 46.8051 39.8751 46.8237L40.9172 47.4146L41.5597 46.6488L40.7965 45.7251C40.7726 45.6962 40.7579 45.6607 40.7543 45.6233C40.7507 45.5859 40.7584 45.5483 40.7764 45.5153C41.0448 45.0243 41.2147 44.4856 41.2767 43.9295C41.2809 43.8922 41.2962 43.8569 41.3207 43.8284C41.3451 43.7998 41.3775 43.7792 41.4138 43.7692L42.5678 43.4492L42.4805 42.4538L41.2888 42.3408C41.2513 42.3373 41.2158 42.3226 41.1868 42.2987C41.1578 42.2748 41.1366 42.2427 41.126 42.2066C40.9681 41.6697 40.707 41.1688 40.3572 40.732C40.3338 40.7026 40.3196 40.6668 40.3167 40.6294C40.3137 40.5919 40.3221 40.5544 40.3406 40.5217L40.9315 39.4796L40.1659 38.8374L39.2421 39.601C39.2131 39.625 39.1776 39.6397 39.1401 39.6433C39.1027 39.6469 39.065 39.6392 39.032 39.6212C38.5411 39.3527 38.0025 39.1826 37.4465 39.1205C37.4091 39.1163 37.3738 39.101 37.3452 39.0767C37.3166 39.0523 37.296 39.0199 37.2859 38.9836L36.967 37.8299L35.9716 37.9169L35.8587 39.1088C35.8551 39.1462 35.8404 39.1817 35.8165 39.2107C35.7926 39.2397 35.7605 39.2608 35.7245 39.2714C35.1878 39.4295 34.687 39.6906 34.2502 40.0402C34.2209 40.0637 34.1851 40.0778 34.1477 40.0808C34.1102 40.0838 34.0727 40.0755 34.04 40.0569L32.9977 39.4659L32.3547 40.2316L33.1176 41.1553C33.1415 41.1843 33.1562 41.2197 33.1598 41.257C33.1635 41.2944 33.1558 41.332 33.1379 41.365C32.8696 41.8561 32.6996 42.3948 32.6376 42.9509C32.6334 42.9883 32.6181 43.0235 32.5937 43.0521C32.5692 43.0807 32.5368 43.1013 32.5006 43.1113L31.3465 43.4302L31.4338 44.4257L32.6255 44.5387C32.6629 44.5422 32.6984 44.5569 32.7274 44.5808C32.7564 44.6047 32.7775 44.6367 32.7882 44.6727C32.9462 45.2095 33.2073 45.7104 33.5569 46.1474C33.5804 46.1767 33.5945 46.2125 33.5974 46.2499C33.6004 46.2874 33.5921 46.3249 33.5735 46.3576L32.9828 47.3997L33.7484 48.042L34.6721 47.279C34.7059 47.2514 34.7483 47.2363 34.792 47.2365Z" fill="#03624C"></path><path fill-rule="evenodd" clip-rule="evenodd" d="M36.1055 42.6791L36.8691 41.9154C36.916 41.8685 36.992 41.8685 37.0388 41.9154L37.8025 42.6791C37.8494 42.7259 37.8494 42.8019 37.8025 42.8488C37.7557 42.8956 37.6797 42.8956 37.6328 42.8488L37.074 42.2899L37.074 44.8802C37.074 44.9465 37.0203 45.0002 36.954 45.0002C36.8877 45.0002 36.834 44.9465 36.834 44.8802L36.834 42.2899L36.2752 42.8488C36.2283 42.8956 36.1523 42.8956 36.1055 42.8488C36.0586 42.8019 36.0586 42.7259 36.1055 42.6791Z" fill="#03624C"></path><path fill-rule="evenodd" clip-rule="evenodd" d="M35.1562 44.8803C35.1562 44.814 35.21 44.7603 35.2762 44.7603H38.6363C38.7025 44.7603 38.7563 44.814 38.7563 44.8803C38.7563 44.9465 38.7025 45.0003 38.6363 45.0003H35.2762C35.21 45.0003 35.1562 44.9465 35.1562 44.8803Z" fill="#03624C"></path></svg>