<svg xmlns="http://www.w3.org/2000/svg" width="60" height="60" viewBox="0 0 60 60" fill="none"><path d="M30 60C24.0666 60 18.2664 58.2405 13.3329 54.9441C8.39943 51.6477 4.55426 46.9623 2.28363 41.4805C0.0129985 35.9987 -0.581101 29.9667 0.576455 24.1473C1.73401 18.3279 4.59123 12.9824 8.78681 8.78681C12.9824 4.59123 18.3279 1.73401 24.1473 0.576455C29.9667 -0.581101 35.9987 0.0129985 41.4805 2.28363C46.9623 4.55426 51.6477 8.39943 54.9441 13.3329C58.2405 18.2664 60 24.0666 60 30C59.991 37.9537 56.8274 45.5791 51.2032 51.2032C45.5791 56.8274 37.9537 59.991 30 60ZM30 0.92309C24.2491 0.92309 18.6274 2.62842 13.8457 5.82343C9.06406 9.01845 5.3372 13.5596 3.13644 18.8728C0.935676 24.1859 0.359856 30.0323 1.4818 35.6726C2.60373 41.313 5.37304 46.494 9.43952 50.5605C13.506 54.627 18.687 57.3963 24.3274 58.5182C29.9678 59.6402 35.8141 59.0643 41.1273 56.8636C46.4404 54.6628 50.9816 50.9359 54.1766 46.1543C57.3716 41.3726 59.0769 35.7509 59.0769 30C59.0681 22.291 56.0019 14.9003 50.5508 9.44923C45.0997 3.99816 37.709 0.931885 30 0.92309Z" fill="#03624C"></path><path d="M30.0012 48.9231C26.2586 48.9231 22.6 47.8132 19.4881 45.7339C16.3762 43.6547 13.9508 40.6993 12.5186 37.2415C11.0863 33.7838 10.7116 29.979 11.4417 26.3083C12.1719 22.6376 13.9741 19.2658 16.6206 16.6194C19.267 13.9729 22.6388 12.1707 26.3095 11.4405C29.9802 10.7104 33.785 11.0851 37.2428 12.5173C40.7005 13.9496 43.6559 16.375 45.7352 19.4869C47.8145 22.5988 48.9243 26.2574 48.9243 30C48.9185 35.0169 46.923 39.8268 43.3755 43.3743C39.828 46.9218 35.0182 48.9173 30.0012 48.9231ZM30.0012 12C26.4411 12 22.961 13.0557 20.0009 15.0335C17.0409 17.0114 14.7338 19.8226 13.3714 23.1117C12.009 26.4008 11.6525 30.02 12.3471 33.5116C13.0416 37.0033 14.7559 40.2106 17.2733 42.7279C19.7906 45.2452 22.9979 46.9596 26.4896 47.6541C29.9812 48.3487 33.6004 47.9922 36.8895 46.6298C40.1786 45.2674 42.9898 42.9603 44.9677 40.0002C46.9455 37.0402 48.0012 33.56 48.0012 30C47.9958 25.2277 46.0977 20.6525 42.7232 17.278C39.3487 13.9035 34.7735 12.0054 30.0012 12Z" fill="#03624C"></path><path d="M30.0003 45.2308C26.9879 45.2308 24.0432 44.3376 21.5385 42.664C19.0339 40.9904 17.0817 38.6117 15.9289 35.8286C14.7761 33.0456 14.4745 29.9832 15.0622 27.0287C15.6499 24.0742 17.1005 21.3603 19.2305 19.2303C21.3606 17.1002 24.0744 15.6496 27.0289 15.0619C29.9834 14.4743 33.0458 14.7759 35.8289 15.9287C38.6119 17.0814 40.9906 19.0336 42.6642 21.5383C44.3378 24.043 45.2311 26.9877 45.2311 30.0001C45.2264 34.0381 43.6203 37.9094 40.765 40.7647C37.9096 43.62 34.0383 45.2262 30.0003 45.2308ZM30.0003 15.6924C27.1705 15.6924 24.4043 16.5315 22.0514 18.1037C19.6985 19.6758 17.8646 21.9104 16.7817 24.5247C15.6988 27.1391 15.4155 30.0159 15.9675 32.7913C16.5196 35.5668 17.8823 38.1162 19.8832 40.1171C21.8842 42.1181 24.4336 43.4808 27.209 44.0328C29.9844 44.5849 32.8612 44.3016 35.4756 43.2186C38.09 42.1357 40.3246 40.3019 41.8967 37.949C43.4689 35.5961 44.308 32.8299 44.308 30.0001C44.3037 26.2067 42.7949 22.57 40.1126 19.8877C37.4304 17.2054 33.7936 15.6966 30.0003 15.6924Z" fill="#03624C"></path><path d="M17.8165 16.6098C17.6955 16.61 17.5793 16.5622 17.4934 16.4769L9.58634 8.6806C9.53923 8.63914 9.50106 8.58851 9.47418 8.5318C9.44729 8.47509 9.43226 8.4135 9.42999 8.35078C9.42772 8.28806 9.43827 8.22554 9.46098 8.16704C9.4837 8.10853 9.51811 8.05528 9.56211 8.01053C9.60611 7.96577 9.65877 7.93046 9.71688 7.90676C9.77499 7.88305 9.83732 7.87144 9.90007 7.87264C9.96281 7.87385 10.0247 7.88783 10.0818 7.91375C10.139 7.93966 10.1902 7.97696 10.2325 8.02337L18.1396 15.8197C18.2047 15.8839 18.2493 15.966 18.2676 16.0556C18.286 16.1453 18.2773 16.2383 18.2427 16.323C18.2081 16.4076 18.1491 16.4801 18.0732 16.5312C17.9973 16.5823 17.908 16.6096 17.8165 16.6098Z" fill="#03624C"></path><path d="M37.486 58.4307C37.3792 58.4306 37.2757 58.3935 37.1932 58.3257C37.1108 58.2578 37.0544 58.1635 37.0336 58.0587L34.9932 47.7327C34.9814 47.6733 34.9814 47.6121 34.9933 47.5526C35.0052 47.4932 35.0286 47.4367 35.0623 47.3863C35.096 47.3359 35.1393 47.2927 35.1898 47.259C35.2402 47.2254 35.2967 47.202 35.3562 47.1902C35.4156 47.1784 35.4768 47.1785 35.5363 47.1903C35.5957 47.2022 35.6523 47.2256 35.7026 47.2593C35.753 47.2931 35.7963 47.3364 35.8299 47.3868C35.8636 47.4372 35.8869 47.4938 35.8987 47.5532L37.9387 57.8769C37.952 57.9439 37.9503 58.013 37.9337 58.0792C37.9171 58.1454 37.886 58.2072 37.8426 58.2599C37.7993 58.3127 37.7448 58.3552 37.683 58.3843C37.6212 58.4134 37.5538 58.4285 37.4855 58.4284L37.486 58.4307Z" fill="#03624C"></path><path d="M37.4846 13.5919C37.4074 13.5919 37.3314 13.5724 37.2636 13.5354C37.1958 13.4983 37.1384 13.4448 37.0967 13.3799C37.0549 13.3149 37.0301 13.2404 37.0246 13.1634C37.0191 13.0863 37.033 13.0091 37.0651 12.9389L41.6712 2.85286C41.7239 2.7445 41.8168 2.66102 41.9302 2.62025C42.0435 2.57948 42.1683 2.58465 42.2779 2.63466C42.3875 2.68468 42.4732 2.77556 42.5167 2.88791C42.5602 3.00026 42.5581 3.12516 42.5107 3.23594L37.9046 13.3219C37.8679 13.4025 37.8087 13.4708 37.7343 13.5186C37.6598 13.5665 37.5731 13.592 37.4846 13.5919Z" fill="#03624C"></path><path d="M59.5385 30.4617H48.4615C48.3391 30.4617 48.2217 30.413 48.1352 30.3265C48.0486 30.2399 48 30.1225 48 30.0001C48 29.8777 48.0486 29.7603 48.1352 29.6738C48.2217 29.5872 48.3391 29.5386 48.4615 29.5386H59.5385C59.6609 29.5386 59.7783 29.5872 59.8648 29.6738C59.9514 29.7603 60 29.8777 60 30.0001C60 30.1225 59.9514 30.2399 59.8648 30.3265C59.7783 30.413 59.6609 30.4617 59.5385 30.4617Z" fill="#03624C"></path><path d="M30.0003 39.4061C28.692 39.4048 27.4377 38.8846 26.5127 37.9595C25.5877 37.0343 25.0675 35.78 25.0664 34.4718C25.0664 34.3493 25.115 34.2319 25.2016 34.1454C25.2881 34.0588 25.4055 34.0102 25.5279 34.0102C25.6504 34.0102 25.7677 34.0588 25.8543 34.1454C25.9409 34.2319 25.9895 34.3493 25.9895 34.4718C25.9894 35.265 26.2245 36.0405 26.6652 36.7001C27.1058 37.3598 27.7322 37.8739 28.4651 38.1775C29.1979 38.4812 30.0044 38.5607 30.7824 38.406C31.5605 38.2513 32.2752 37.8693 32.8361 37.3084C33.3971 36.7475 33.7791 36.0329 33.9339 35.2548C34.0887 34.4768 34.0093 33.6704 33.7058 32.9375C33.4022 32.2046 32.8881 31.5781 32.2286 31.1374C31.569 30.6967 30.7935 30.4614 30.0003 30.4614C29.0244 30.4614 28.0705 30.1721 27.2592 29.6299C26.4478 29.0878 25.8154 28.3172 25.442 27.4157C25.0685 26.5142 24.9708 25.5221 25.1612 24.5651C25.3516 23.608 25.8215 22.7289 26.5115 22.0388C27.2015 21.3488 28.0806 20.8789 29.0377 20.6886C29.9948 20.4982 30.9868 20.5959 31.8884 20.9693C32.7899 21.3427 33.5605 21.9751 34.1026 22.7865C34.6447 23.5979 34.9341 24.5518 34.9341 25.5276C34.9341 25.65 34.8855 25.7674 34.7989 25.854C34.7124 25.9405 34.595 25.9891 34.4726 25.9891C34.3502 25.9891 34.2328 25.9405 34.1462 25.854C34.0596 25.7674 34.011 25.65 34.011 25.5276C34.011 24.7343 33.7758 23.9589 33.3351 23.2993C32.8944 22.6398 32.268 22.1257 31.5351 21.8221C30.8022 21.5186 29.9958 21.4391 29.2178 21.5939C28.4398 21.7487 27.7251 22.1306 27.1642 22.6916C26.6033 23.2525 26.2213 23.9671 26.0666 24.7451C25.9118 25.5231 25.9912 26.3296 26.2948 27.0625C26.5984 27.7953 27.1124 28.4217 27.772 28.8624C28.4316 29.3031 29.207 29.5384 30.0003 29.5384C31.3088 29.5384 32.5637 30.0582 33.489 30.9835C34.4143 31.9087 34.9341 33.1637 34.9341 34.4722C34.9341 35.7807 34.4143 37.0357 33.489 37.961C32.5637 38.8862 31.3088 39.4061 30.0003 39.4061Z" fill="#03624C"></path><path d="M30.0006 41.1642C29.8782 41.1642 29.7608 41.1156 29.6742 41.029C29.5877 40.9425 29.5391 40.8251 29.5391 40.7027V19.297C29.5391 19.1746 29.5877 19.0572 29.6742 18.9706C29.7608 18.8841 29.8782 18.8354 30.0006 18.8354C30.123 18.8354 30.2404 18.8841 30.327 18.9706C30.4135 19.0572 30.4621 19.1746 30.4621 19.297V40.7027C30.4621 40.8251 30.4135 40.9425 30.327 41.029C30.2404 41.1156 30.123 41.1642 30.0006 41.1642Z" fill="#03624C"></path></svg>