<svg xmlns="http://www.w3.org/2000/svg" width="58" height="60" viewBox="0 0 58 60" fill="none"><path d="M0.462134 30.0027H0.431208C0.370709 29.9987 0.311589 29.9828 0.257225 29.956C0.202861 29.9291 0.154318 29.8918 0.114368 29.8462C0.0744191 29.8006 0.043846 29.7476 0.0243959 29.6902C0.00494587 29.6328 -0.00300016 29.5721 0.00101159 29.5116C0.49831 22.2817 3.71787 15.5091 9.01074 10.5589C14.3036 5.60878 21.2762 2.84911 28.5232 2.83618C28.6456 2.83618 28.763 2.88481 28.8496 2.97138C28.9361 3.05794 28.9848 3.17535 28.9848 3.29777C28.9848 3.42018 28.9361 3.53759 28.8496 3.62415C28.763 3.71072 28.6456 3.75935 28.5232 3.75935C21.5104 3.77127 14.7629 6.44116 9.6407 11.2309C4.51847 16.0206 1.40237 22.574 0.920486 29.5702C0.913117 29.6869 0.861691 29.7965 0.776604 29.8768C0.691518 29.9571 0.579119 30.0021 0.462134 30.0027Z" fill="#03624C"></path><path d="M24.8199 7.27236C24.7263 7.27238 24.635 7.24394 24.5579 7.19083C24.4808 7.13773 24.4218 7.06245 24.3885 6.97498C24.3552 6.88752 24.3492 6.792 24.3715 6.7011C24.3937 6.61019 24.4431 6.52819 24.513 6.46597L28.0118 3.35582L24.1405 0.854038C24.0883 0.821726 24.0431 0.779328 24.0075 0.729326C23.9719 0.679324 23.9466 0.622722 23.9331 0.562833C23.9197 0.502944 23.9183 0.440971 23.929 0.380541C23.9398 0.32011 23.9625 0.262436 23.9959 0.210895C24.0292 0.159353 24.0725 0.114978 24.1232 0.0803677C24.1739 0.0457572 24.231 0.0216063 24.2911 0.00932811C24.3513 -0.00295011 24.4133 -0.00310891 24.4735 0.00886106C24.5337 0.020831 24.5909 0.0446893 24.6418 0.0790396L29.0227 2.90993C29.0824 2.94857 29.1323 3.00048 29.1687 3.06161C29.205 3.12275 29.2267 3.19145 29.2321 3.26236C29.2375 3.33327 29.2265 3.40447 29.1998 3.4704C29.1732 3.53634 29.1317 3.59522 29.0785 3.64246L25.1278 7.15419C25.0432 7.23015 24.9336 7.27222 24.8199 7.27236Z" fill="#03624C"></path><path d="M28.5896 60C23.5628 60.005 18.6231 58.6876 14.2665 56.1799C9.90979 53.6723 6.28945 50.0627 3.76884 45.7136C3.70763 45.6075 3.69107 45.4814 3.7228 45.3631C3.75452 45.2449 3.83194 45.144 3.93801 45.0828C4.04409 45.0216 4.17014 45.005 4.28843 45.0368C4.40672 45.0685 4.50756 45.1459 4.56877 45.252C8.08577 51.3186 13.7716 55.8266 20.4805 57.8674C27.1893 59.9082 34.4223 59.3301 40.7218 56.2497C40.8316 56.1963 40.9579 56.1886 41.0733 56.2281C41.1888 56.2677 41.2838 56.3513 41.3377 56.4607C41.3917 56.5702 41.4001 56.6965 41.3611 56.8121C41.3222 56.9278 41.239 57.0233 41.1299 57.0777C37.2296 59.0017 32.9386 60.0016 28.5896 60Z" fill="#03624C"></path><path d="M3.782 50.9369H3.75846C3.63631 50.9307 3.52163 50.8763 3.43958 50.7856C3.35754 50.6949 3.31485 50.5753 3.32087 50.4532L3.58213 45.2437C3.58564 45.1727 3.60552 45.1034 3.64022 45.0413C3.67493 44.9792 3.72351 44.926 3.78218 44.8858C3.84085 44.8456 3.90802 44.8195 3.97845 44.8095C4.04888 44.7995 4.12066 44.806 4.18819 44.8283L9.20699 46.4942C9.26457 46.5133 9.31783 46.5435 9.36373 46.5832C9.40962 46.6229 9.44725 46.6712 9.47447 46.7254C9.50169 46.7796 9.51796 46.8387 9.52236 46.8992C9.52675 46.9597 9.51919 47.0205 9.50009 47.0781C9.481 47.1357 9.45075 47.1889 9.41107 47.2348C9.3714 47.2807 9.32307 47.3183 9.26885 47.3455C9.21463 47.3728 9.15557 47.389 9.09507 47.3934C9.03456 47.3978 8.97378 47.3903 8.91619 47.3712L4.47345 45.8964L4.24266 50.4998C4.2364 50.6178 4.18514 50.7288 4.09944 50.8102C4.01375 50.8915 3.90013 50.9368 3.782 50.9369Z" fill="#03624C"></path><path d="M52.8794 45.9443C52.7984 45.9442 52.7189 45.9228 52.6488 45.8822C52.5786 45.8417 52.5204 45.7834 52.48 45.7133C52.4395 45.6431 52.4182 45.5635 52.4183 45.4826C52.4183 45.4016 52.4396 45.322 52.4801 45.2519C55.9756 39.1727 57.0367 31.9945 55.4496 25.164C53.8625 18.3335 49.7452 12.3586 43.9274 8.44336C43.8771 8.40963 43.8338 8.36631 43.8002 8.31586C43.7666 8.26542 43.7432 8.20885 43.7314 8.14938C43.7197 8.08991 43.7197 8.0287 43.7316 7.96926C43.7435 7.90981 43.767 7.85329 43.8007 7.80292C43.8345 7.75254 43.8778 7.70931 43.9282 7.67568C43.9787 7.64205 44.0352 7.61869 44.0947 7.60692C44.1542 7.59516 44.2154 7.59522 44.2748 7.60711C44.3343 7.619 44.3908 7.64248 44.4412 7.67621C50.4532 11.722 54.708 17.8964 56.3482 24.955C57.9883 32.0135 56.8918 39.4313 53.2796 45.7135C53.239 45.7837 53.1807 45.842 53.1104 45.8825C53.0402 45.923 52.9605 45.9443 52.8794 45.9443Z" fill="#03624C"></path><path d="M52.7524 46.1618C52.6461 46.1617 52.543 46.1249 52.4607 46.0576C52.3784 45.9904 52.3218 45.8967 52.3005 45.7925L51.2338 40.6136C51.2125 40.495 51.2385 40.3727 51.3062 40.273C51.3738 40.1733 51.4777 40.104 51.5958 40.0799C51.7139 40.0558 51.8367 40.0788 51.938 40.144C52.0393 40.2092 52.1111 40.3115 52.138 40.4289L53.0824 45.0138L57.1841 42.9123C57.2381 42.8846 57.297 42.8679 57.3574 42.863C57.4178 42.8581 57.4787 42.8652 57.5364 42.8838C57.5941 42.9024 57.6476 42.9322 57.6938 42.9715C57.74 43.0108 57.778 43.0588 57.8056 43.1128C57.8332 43.1668 57.85 43.2257 57.8549 43.2861C57.8597 43.3466 57.8527 43.4074 57.834 43.4651C57.8154 43.5228 57.7856 43.5763 57.7463 43.6225C57.707 43.6687 57.659 43.7067 57.605 43.7343L52.9629 46.112C52.8977 46.1452 52.8256 46.1623 52.7524 46.1618Z" fill="#03624C"></path><path d="M24.1038 37.4802H21.3421C21.2337 37.4802 21.1287 37.4421 21.0456 37.3725C20.9624 37.3028 20.9065 37.2062 20.8875 37.0994L20.3664 34.1757C19.0525 33.8957 17.801 33.3776 16.6737 32.647L14.2384 34.3456C14.1494 34.4075 14.0416 34.4362 13.9336 34.4265C13.8257 34.4169 13.7246 34.3696 13.648 34.293L11.695 32.34C11.6184 32.2634 11.5711 32.1623 11.5615 32.0544C11.5518 31.9464 11.5805 31.8386 11.6424 31.7496L13.3411 29.3143C12.6104 28.187 12.0923 26.9355 11.8123 25.6217L8.88862 25.1005C8.78185 25.0816 8.68517 25.0256 8.61553 24.9425C8.5459 24.8593 8.50777 24.7543 8.50781 24.6459V21.8833C8.50787 21.7749 8.54606 21.67 8.61568 21.587C8.68531 21.504 8.78193 21.4481 8.88862 21.4291L11.8128 20.9094C12.0929 19.5955 12.611 18.3441 13.3415 17.2167L11.6429 14.7814C11.581 14.6924 11.5523 14.5846 11.5619 14.4766C11.5715 14.3687 11.6188 14.2676 11.6955 14.191L13.6485 12.238C13.7251 12.1614 13.8262 12.1142 13.9342 12.1047C14.0421 12.0952 14.15 12.1239 14.2388 12.1859L16.6741 13.8845C17.8015 13.1539 19.053 12.6357 20.3668 12.3553L20.8879 9.43208C20.9069 9.3253 20.9629 9.22862 21.046 9.15899C21.1292 9.08936 21.2342 9.05122 21.3426 9.05127H24.1043C24.2126 9.05133 24.3175 9.08952 24.4006 9.15914C24.4836 9.22876 24.5395 9.32538 24.5585 9.43208L25.0796 12.3553C26.3934 12.6357 27.6448 13.154 28.7723 13.8845L31.2076 12.1859C31.2964 12.1239 31.4043 12.0952 31.5122 12.1047C31.6202 12.1142 31.7213 12.1614 31.7979 12.238L33.7509 14.191C33.8275 14.2676 33.8747 14.3688 33.8842 14.4767C33.8938 14.5846 33.865 14.6925 33.8031 14.7814L32.1044 17.2167C32.8345 18.3443 33.3526 19.5957 33.6332 20.9094L36.5569 21.4305C36.6635 21.4495 36.76 21.5055 36.8295 21.5885C36.899 21.6715 36.9372 21.7764 36.9372 21.8847V24.6463C36.9373 24.7547 36.8992 24.8597 36.8297 24.9428C36.7601 25.0259 36.6635 25.0819 36.5569 25.101L33.6332 25.6221C33.3528 26.9358 32.8347 28.1873 32.1044 29.3148L33.8026 31.7501C33.8646 31.839 33.8933 31.9468 33.8838 32.0548C33.8742 32.1627 33.827 32.2638 33.7504 32.3405L31.7975 34.2934C31.7209 34.3701 31.6198 34.4174 31.5119 34.427C31.4039 34.4366 31.296 34.408 31.2071 34.3461L28.7718 32.6474C27.6445 33.3781 26.393 33.8962 25.0791 34.1762L24.558 37.0999C24.5389 37.2065 24.483 37.303 24.4 37.3725C24.3169 37.442 24.2121 37.4802 24.1038 37.4802ZM21.7285 36.557H23.7175L24.2252 33.704C24.2416 33.6117 24.2857 33.5265 24.3517 33.4599C24.4176 33.3933 24.5023 33.3483 24.5945 33.331C26.0013 33.0727 27.3374 32.5191 28.5147 31.7067C28.5919 31.6532 28.6836 31.6245 28.7776 31.6245C28.8715 31.6245 28.9632 31.6532 29.0404 31.7067L31.4167 33.3643L32.8231 31.9583L31.1656 29.5816C31.1122 29.5044 31.0836 29.4128 31.0836 29.3189C31.0836 29.2251 31.1122 29.1335 31.1656 29.0563C31.9775 27.8791 32.5306 26.5431 32.7885 25.1365C32.8058 25.0443 32.8509 24.9596 32.9176 24.8936C32.9843 24.8276 33.0695 24.7836 33.1619 24.7673L36.0145 24.2595V22.2696L33.1619 21.7619C33.0695 21.7456 32.9843 21.7015 32.9176 21.6355C32.8509 21.5696 32.8058 21.4848 32.7885 21.3926C32.5306 19.986 31.9775 18.6501 31.1656 17.4729C31.1121 17.3956 31.0834 17.3039 31.0834 17.21C31.0834 17.116 31.1121 17.0243 31.1656 16.9471L32.8231 14.5709L31.4181 13.1626L29.0418 14.8201C28.9646 14.8736 28.8729 14.9023 28.7789 14.9023C28.685 14.9023 28.5933 14.8736 28.5161 14.8201C27.3384 14.0098 26.0025 13.4579 24.5963 13.2009C24.5042 13.1836 24.4195 13.1386 24.3535 13.072C24.2875 13.0054 24.2434 12.9203 24.227 12.8279L23.7193 9.9749H21.7294L21.2217 12.8279C21.2053 12.9203 21.1612 13.0054 21.0952 13.072C21.0292 13.1386 20.9445 13.1836 20.8524 13.2009C19.4447 13.458 18.1075 14.0105 16.9289 14.822C16.8517 14.8755 16.76 14.9042 16.6661 14.9042C16.5721 14.9042 16.4804 14.8755 16.4032 14.822L14.0265 13.1644L12.6205 14.5709L14.2781 16.9471C14.3316 17.0243 14.3602 17.116 14.3602 17.21C14.3602 17.3039 14.3316 17.3956 14.2781 17.4729C13.4662 18.6502 12.913 19.9861 12.6547 21.3926C12.6374 21.4848 12.5924 21.5695 12.5258 21.6354C12.4592 21.7014 12.374 21.7455 12.2817 21.7619L9.42867 22.2696V24.2586L12.2817 24.7663C12.374 24.7827 12.4592 24.8268 12.5258 24.8928C12.5924 24.9588 12.6374 25.0435 12.6547 25.1356C12.913 26.5422 13.4662 27.8781 14.2781 29.0554C14.3315 29.1326 14.3601 29.2242 14.3601 29.318C14.3601 29.4119 14.3315 29.5035 14.2781 29.5807L12.6214 31.9597L14.0274 33.3656L16.4041 31.7081C16.4813 31.6546 16.5731 31.6259 16.667 31.6259C16.7609 31.6259 16.8526 31.6546 16.9299 31.7081C18.1071 32.52 19.443 33.0731 20.8496 33.331C20.9418 33.3483 21.0265 33.3933 21.0924 33.4599C21.1584 33.5265 21.2025 33.6117 21.2189 33.704L21.7285 36.557Z" fill="#03624C"></path><path d="M22.7213 30.6653C21.2576 30.6653 19.8267 30.2313 18.6097 29.4181C17.3926 28.6049 16.444 27.4491 15.8838 26.0968C15.3236 24.7445 15.177 23.2564 15.4625 21.8208C15.748 20.3852 16.4527 19.0664 17.4877 18.0313C18.5227 16.9962 19.8413 16.2913 21.2769 16.0056C22.7125 15.7199 24.2006 15.8664 25.553 16.4264C26.9053 16.9864 28.0613 17.9349 28.8746 19.1519C29.688 20.3688 30.1222 21.7996 30.1224 23.2634C30.1204 25.2258 29.3401 27.1072 27.9526 28.4949C26.5651 29.8826 24.6837 30.6631 22.7213 30.6653ZM22.7213 16.7865C21.4401 16.7865 20.1876 17.1664 19.1223 17.8782C18.057 18.5901 17.2268 19.6018 16.7365 20.7856C16.2462 21.9693 16.118 23.2718 16.368 24.5284C16.618 25.785 17.2351 26.9393 18.1411 27.8452C19.0472 28.7511 20.2015 29.368 21.4581 29.6178C22.7148 29.8677 24.0173 29.7393 25.201 29.2488C26.3846 28.7584 27.3963 27.928 28.1079 26.8626C28.8196 25.7972 29.1994 24.5446 29.1992 23.2634C29.197 21.5461 28.5138 19.8998 27.2994 18.6856C26.085 17.4714 24.4386 16.7884 22.7213 16.7865Z" fill="#03624C"></path><path d="M42.2022 50.966C42.1223 50.966 42.0437 50.9452 41.9742 50.9057C41.9047 50.8662 41.8467 50.8094 41.8057 50.7407L40.8166 49.0813C39.9556 49.2011 39.0806 49.1734 38.2289 48.9996L37.1368 50.5925C37.0756 50.6819 36.9849 50.7468 36.8806 50.776C36.7763 50.8052 36.665 50.7968 36.5663 50.7523L34.8464 49.9749C34.7478 49.9303 34.668 49.8524 34.621 49.7548C34.574 49.6573 34.5628 49.5463 34.5893 49.4414L35.0629 47.5696C34.3698 47.0448 33.7707 46.4063 33.2909 45.6813L31.3929 46.0358C31.2863 46.0558 31.176 46.0376 31.0815 45.9844C30.987 45.9312 30.9142 45.8465 30.8759 45.745L30.2094 43.9794C30.1711 43.878 30.1698 43.7664 30.2056 43.6642C30.2414 43.5619 30.312 43.4754 30.4051 43.42L32.0645 42.4313C31.9446 41.5701 31.972 40.6947 32.1457 39.8427L30.5528 38.7515C30.4634 38.6903 30.3983 38.5995 30.3691 38.4951C30.3399 38.3907 30.3484 38.2793 30.3931 38.1806L31.1704 36.4612C31.215 36.3624 31.2929 36.2826 31.3904 36.2355C31.488 36.1884 31.599 36.1771 31.704 36.2036L33.5762 36.6772C34.1007 35.9838 34.7393 35.3847 35.4645 34.9052L35.11 33.0071C35.0901 32.9007 35.1083 32.7906 35.1614 32.6961C35.2144 32.6017 35.299 32.529 35.4003 32.4906L37.1659 31.8236C37.2673 31.7854 37.3789 31.7841 37.4812 31.8198C37.5835 31.8556 37.6699 31.9262 37.7253 32.0193L38.7154 33.6783C39.5766 33.5589 40.4517 33.5867 41.3035 33.7604L42.3952 32.167C42.4565 32.0778 42.5472 32.013 42.6515 31.9838C42.7558 31.9547 42.867 31.9632 42.9657 32.0078L44.6856 32.7846C44.7844 32.8292 44.8643 32.9072 44.9114 33.0048C44.9585 33.1025 44.9697 33.2136 44.9431 33.3187L44.4691 35.1904C45.1619 35.715 45.7604 36.3536 46.2392 37.0788L48.1377 36.7243C48.2442 36.7044 48.3543 36.7225 48.4487 36.7756C48.5432 36.8287 48.6159 36.9133 48.6543 37.0146L49.3208 38.7802C49.359 38.8815 49.3604 38.9932 49.3246 39.0954C49.2888 39.1977 49.2182 39.2841 49.1251 39.3396L47.4661 40.3288C47.5857 41.1899 47.558 42.065 47.3844 42.9169L48.9774 44.0085C49.0668 44.0698 49.1318 44.1606 49.161 44.265C49.1902 44.3694 49.1817 44.4807 49.1371 44.5795L48.3602 46.2989C48.3156 46.3977 48.2377 46.4777 48.14 46.5248C48.0424 46.5719 47.9313 46.5831 47.8262 46.5565L45.954 46.0824C45.4297 46.7758 44.7913 47.3751 44.0661 47.8544L44.4206 49.7529C44.4405 49.8595 44.4222 49.9696 44.3691 50.064C44.3159 50.1585 44.2312 50.2312 44.1298 50.2694L42.3643 50.936C42.3125 50.9557 42.2576 50.9659 42.2022 50.966ZM41.0534 48.1148C41.1333 48.1148 41.2119 48.1355 41.2814 48.175C41.3509 48.2145 41.4089 48.2713 41.4499 48.34L42.4007 49.9357L43.443 49.5424L43.1019 47.7164C43.0846 47.624 43.0959 47.5285 43.1343 47.4428C43.1728 47.357 43.2365 47.285 43.317 47.2364C44.1362 46.7427 44.8414 46.081 45.3862 45.2949C45.4398 45.2177 45.5156 45.1586 45.6036 45.1256C45.6916 45.0926 45.7876 45.0873 45.8788 45.1103L47.6789 45.5664L48.1377 44.5509L46.6057 43.5012C46.5282 43.4482 46.4688 43.3727 46.4353 43.285C46.4018 43.1972 46.3959 43.1013 46.4183 43.0101C46.6482 42.0816 46.6787 41.1149 46.5079 40.1737C46.4914 40.0813 46.5034 39.9862 46.5423 39.9008C46.5812 39.8155 46.6452 39.744 46.7258 39.6959L48.3215 38.7446L47.9282 37.7028L46.1022 38.0435C46.0098 38.0608 45.9144 38.0495 45.8286 38.0112C45.7428 37.9728 45.6708 37.9092 45.6221 37.8288C45.1286 37.0095 44.4669 36.3043 43.6807 35.7596C43.6034 35.706 43.5444 35.6302 43.5114 35.5422C43.4784 35.4542 43.473 35.3582 43.4961 35.267L43.9516 33.4669L42.9362 33.0085L41.8861 34.5405C41.833 34.618 41.7575 34.6775 41.6698 34.711C41.582 34.7444 41.4861 34.7504 41.3949 34.7279C40.4667 34.4971 39.5002 34.4657 38.559 34.6356C38.4666 34.6522 38.3713 34.6403 38.2858 34.6014C38.2004 34.5624 38.1288 34.4984 38.0808 34.4177L37.1294 32.822L36.0872 33.2158L36.4283 35.0413C36.4456 35.1337 36.4344 35.2291 36.396 35.3149C36.3577 35.4007 36.294 35.4727 36.2137 35.5214C35.3947 36.0158 34.6899 36.6783 34.1458 37.4651C34.0922 37.5424 34.0164 37.6014 33.9284 37.6344C33.8404 37.6674 33.7444 37.6728 33.6532 37.6497L31.8531 37.1942L31.3947 38.2096L32.9267 39.2597C33.0042 39.3128 33.0637 39.3883 33.0972 39.476C33.1306 39.5638 33.1366 39.6597 33.1141 39.7509C32.884 40.6794 32.8535 41.6461 33.0246 42.5873C33.0412 42.6797 33.0294 42.7749 32.9905 42.8603C32.9517 42.9458 32.8877 43.0173 32.8072 43.0655L31.2115 44.0164L31.6052 45.0586L33.4308 44.7175C33.5231 44.6996 33.6188 44.7106 33.7046 44.7491C33.7905 44.7876 33.8623 44.8517 33.9104 44.9326C34.4043 45.7518 35.0663 46.4571 35.8527 47.0019C35.93 47.0554 35.989 47.1313 36.022 47.2193C36.055 47.3073 36.0604 47.4033 36.0373 47.4944L35.5817 49.2946L36.5972 49.7534L37.6473 48.2214C37.7004 48.1439 37.7759 48.0844 37.8636 48.0509C37.9514 48.0175 38.0472 48.0115 38.1385 48.034C39.0668 48.2641 40.0334 48.2946 40.9744 48.1235C41.0005 48.1185 41.0269 48.1156 41.0534 48.1148Z" fill="#03624C"></path><path d="M39.7679 46.5831C38.4689 46.5846 37.2162 46.1001 36.2562 45.2249C35.2963 44.3496 34.6984 43.1469 34.5802 41.8532C34.462 40.5595 34.832 39.2684 35.6174 38.2337C36.4028 37.1989 37.5469 36.4954 38.8248 36.2614C40.1026 36.0274 41.4217 36.2798 42.5229 36.9691C43.624 37.6584 44.4275 38.7346 44.7754 39.9862C45.1233 41.2379 44.9904 42.5744 44.4029 43.733C43.8154 44.8916 42.8157 45.7886 41.6004 46.2476C41.0147 46.4686 40.394 46.5823 39.7679 46.5831ZM39.7578 37.0999C38.8455 37.1007 37.9574 37.3929 37.2229 37.9339C36.4884 38.475 35.9459 39.2366 35.6747 40.1076C35.4035 40.9786 35.4176 41.9135 35.7151 42.7759C36.0125 43.6383 36.5778 44.3831 37.3283 44.9016C38.0789 45.4202 38.9755 45.6854 39.8873 45.6586C40.7992 45.6317 41.6786 45.3143 42.3974 44.7524C43.1161 44.1906 43.6366 43.4139 43.8828 42.5355C44.129 41.6571 44.0882 40.723 43.7662 39.8694C43.4617 39.0531 42.9141 38.3499 42.1973 37.8546C41.4805 37.3594 40.629 37.096 39.7578 37.0999Z" fill="#03624C"></path></svg>