<svg xmlns="http://www.w3.org/2000/svg" width="79" height="60" viewBox="0 0 79 60" fill="none"><path d="M77.3965 34.1679C76.6963 33.2646 75.6922 32.6447 74.5698 32.4227C73.4474 32.2008 72.2825 32.3918 71.2902 32.9604L67.1192 35.3005V13.016C67.1189 12.9018 67.095 12.7889 67.049 12.6843C67.0031 12.5797 66.9361 12.4857 66.8523 12.408L58.7272 0.366413C58.6507 0.2534 58.5476 0.160882 58.4268 0.0969914C58.3061 0.0331011 58.1715 -0.00020457 58.0349 9.45365e-07H34.4439C34.3072 -0.00020457 34.1726 0.0331011 34.0519 0.0969914C33.9312 0.160882 33.828 0.2534 33.7515 0.366413L25.6014 12.408C25.5175 12.4857 25.4506 12.5797 25.4046 12.6843C25.3587 12.7889 25.3348 12.9018 25.3345 13.016V32.7689H15.5827V28.0222C15.5827 27.8013 15.4948 27.5895 15.3384 27.4334C15.182 27.2772 14.9698 27.1894 14.7485 27.1894H0.834194C0.612952 27.1894 0.400771 27.2772 0.24433 27.4334C0.087888 27.5895 0 27.8013 0 28.0222V59.1506C0 59.3714 0.087888 59.5833 0.24433 59.7394C0.400771 59.8956 0.612952 59.9833 0.834194 59.9833H14.7485C14.9698 59.9833 15.182 59.8956 15.3384 59.7394C15.4948 59.5833 15.5827 59.3714 15.5827 59.1506V53.5295L41.8682 59.8001C42.4482 59.9333 43.0415 60.0003 43.6367 60C45.0717 60.0023 46.4788 59.6043 47.6992 58.8508L76.1619 41.1464C76.7291 40.7921 77.2155 40.3228 77.5896 39.769C77.9637 39.2151 78.2172 38.589 78.3335 37.9312C78.4499 37.2734 78.4266 36.5985 78.2652 35.9503C78.1038 35.302 77.8078 34.6948 77.3965 34.1679ZM13.9144 58.3178H1.66839V28.855H13.9144V58.3178ZM52.0787 35.5337H36.7963C34.8646 35.5259 32.9627 35.0577 31.2489 34.1679C29.924 33.4788 28.4858 33.0332 27.0028 32.8522V13.8487H38.7316V33.6183C38.7278 33.7912 38.7779 33.961 38.8751 34.1042C38.9724 34.2473 39.1118 34.3567 39.2741 34.4171C39.4365 34.4776 39.6136 34.486 39.781 34.4414C39.9484 34.3967 40.0976 34.3011 40.2081 34.1679L46.2394 26.8563L52.2706 34.1679C52.349 34.2619 52.4472 34.3375 52.5582 34.3894C52.6693 34.4412 52.7904 34.4679 52.9129 34.4677C53.0096 34.4676 53.1056 34.4507 53.1965 34.4178C53.3577 34.3596 53.4971 34.2532 53.5956 34.1131C53.6941 33.9731 53.747 33.8061 53.7471 33.635V13.8487H65.4759V36.2332L57.1339 40.9549C57.1339 40.83 57.1339 40.6967 57.1339 40.5635C57.1384 39.9003 57.0106 39.2429 56.7579 38.6295C56.5052 38.0162 56.1327 37.4592 55.6622 36.991C55.1917 36.5228 54.6325 36.1529 54.0172 35.9027C53.402 35.6524 52.743 35.527 52.0787 35.5337ZM52.0787 13.882V31.2949L46.8984 25.0076C46.8141 24.9174 46.7121 24.8454 46.5987 24.7961C46.4853 24.7469 46.363 24.7215 46.2394 24.7215C46.1157 24.7215 45.9934 24.7469 45.88 24.7961C45.7667 24.8454 45.6646 24.9174 45.5803 25.0076L40.4 31.2866V13.8487L52.0787 13.882ZM57.5594 1.69049L64.7084 12.1832H53.6637L52.4708 1.69049H57.5594ZM50.7523 1.69049L51.9786 12.1832H40.5335L42.0934 1.69049H50.7523ZM34.886 1.69049H40.4083L38.8484 12.1832H27.7703L34.886 1.69049ZM76.6958 37.6655C76.6206 38.0931 76.4563 38.5001 76.2134 38.8602C75.9705 39.2203 75.6545 39.5254 75.286 39.7557L46.8149 57.4351C46.1411 57.8534 45.3909 58.1343 44.6077 58.2615C43.8245 58.3887 43.0238 58.3597 42.2519 58.1763L16.5337 52.0389L15.5827 51.814V34.4344H25.4679C27.2103 34.4377 28.9265 34.8574 30.4731 35.6586C32.4246 36.6681 34.59 37.1963 36.7879 37.1992H52.0787C52.9736 37.1992 53.8319 37.5541 54.4647 38.1858C55.0975 38.8175 55.453 39.6743 55.453 40.5677C55.453 41.461 55.0975 42.3178 54.4647 42.9495C53.8319 43.5813 52.9736 43.9362 52.0787 43.9362H33.1258V45.6017H52.0787C53.0064 45.6043 53.9165 45.3494 54.7075 44.8657C55.4986 44.3819 56.1393 43.6881 56.5583 42.8619L56.6918 43.1034L72.116 34.4011C72.6285 34.1127 73.2125 33.9755 73.8 34.0058C74.3875 34.036 74.9543 34.2323 75.4343 34.5719C75.9143 34.9114 76.2878 35.3802 76.5111 35.9235C76.7345 36.4668 76.7985 37.0623 76.6958 37.6405V37.6655Z" fill="#03624C"></path></svg>