<svg xmlns="http://www.w3.org/2000/svg" width="47" height="60" viewBox="0 0 47 60" fill="none"><path d="M46.5378 59.9999H0.461525C0.339121 59.9999 0.221731 59.9513 0.135178 59.8647C0.0486253 59.7782 0 59.6608 0 59.5384V0.463234C0 0.34083 0.0486253 0.223439 0.135178 0.136887C0.221731 0.0503342 0.339121 0.00170928 0.461525 0.00170928H32.9381C33.0586 0.00157455 33.1744 0.048238 33.2612 0.131859L46.8595 13.3398C46.9036 13.383 46.9385 13.4345 46.9623 13.4914C46.9861 13.5484 46.9982 13.6095 46.998 13.6711V59.5384C46.998 59.6606 46.9496 59.7777 46.8633 59.8643C46.777 59.9508 46.66 59.9996 46.5378 59.9999ZM0.923049 59.0769H46.0763V13.8673L32.7507 0.924759H0.923049V59.0769Z" fill="#03624C"></path><path d="M46.5378 14.1337H32.9381C32.8157 14.1337 32.6983 14.085 32.6117 13.9985C32.5252 13.9119 32.4766 13.7945 32.4766 13.6721V0.463309C32.4762 0.372269 32.5028 0.283159 32.553 0.20719C32.6031 0.131221 32.6747 0.071787 32.7585 0.0363656C32.8424 0.000944175 32.9349 -0.00888231 33.0243 0.00812283C33.1137 0.025128 33.1961 0.0682048 33.2612 0.131934L46.8595 13.3398C46.9256 13.4039 46.971 13.4863 46.99 13.5764C47.0089 13.6664 47.0004 13.7601 46.9657 13.8454C46.931 13.9306 46.8715 14.0035 46.795 14.0547C46.7186 14.1059 46.6285 14.1331 46.5365 14.1327L46.5378 14.1337ZM33.3996 13.2106H45.3993L33.3996 1.55481V13.2106Z" fill="#03624C"></path><path d="M39.9616 55.3428H35.692C35.5696 55.3428 35.4522 55.2941 35.3656 55.2076C35.2791 55.121 35.2305 55.0036 35.2305 54.8812V35.805C35.2305 35.6826 35.2791 35.5652 35.3656 35.4787C35.4522 35.3921 35.5696 35.3435 35.692 35.3435H39.9616C40.084 35.3435 40.2014 35.3921 40.2879 35.4787C40.3745 35.5652 40.4231 35.6826 40.4231 35.805V54.8812C40.4231 55.0036 40.3745 55.121 40.2879 55.2076C40.2014 55.2941 40.084 55.3428 39.9616 55.3428ZM36.1535 54.4197H39.5V36.2666H36.1535V54.4197Z" fill="#03624C"></path><path d="M30.4108 55.3428H26.1412C26.0188 55.3428 25.9014 55.2941 25.8149 55.2076C25.7283 55.121 25.6797 55.0036 25.6797 54.8812V40.4208C25.6797 40.2983 25.7283 40.181 25.8149 40.0944C25.9014 40.0079 26.0188 39.9592 26.1412 39.9592H30.4108C30.5332 39.9592 30.6506 40.0079 30.7371 40.0944C30.8237 40.181 30.8723 40.2983 30.8723 40.4208V54.8812C30.8723 55.0036 30.8237 55.121 30.7371 55.2076C30.6506 55.2941 30.5332 55.3428 30.4108 55.3428ZM26.6027 54.4197H29.9493V40.8823H26.6027V54.4197Z" fill="#03624C"></path><path d="M20.86 55.3428H16.5904C16.468 55.3428 16.3506 55.2942 16.2641 55.2077C16.1775 55.1211 16.1289 55.0037 16.1289 54.8813V33.0355C16.1289 32.9131 16.1775 32.7957 16.2641 32.7092C16.3506 32.6226 16.468 32.574 16.5904 32.574H20.86C20.9824 32.574 21.0998 32.6226 21.1863 32.7092C21.2729 32.7957 21.3215 32.9131 21.3215 33.0355V54.8813C21.3215 55.0037 21.2729 55.1211 21.1863 55.2077C21.0998 55.2942 20.9824 55.3428 20.86 55.3428ZM17.052 54.4198H20.3985V33.497H17.052V54.4198Z" fill="#03624C"></path><path d="M11.3092 55.3428H7.03965C6.91725 55.3428 6.79985 55.2941 6.7133 55.2076C6.62675 55.121 6.57812 55.0036 6.57812 54.8812V45.036C6.57812 44.9136 6.62675 44.7962 6.7133 44.7096C6.79985 44.6231 6.91725 44.5745 7.03965 44.5745H11.3092C11.4316 44.5745 11.549 44.6231 11.6356 44.7096C11.7221 44.7962 11.7707 44.9136 11.7707 45.036V54.8812C11.7707 55.0036 11.7221 55.121 11.6356 55.2076C11.549 55.2941 11.4316 55.3428 11.3092 55.3428ZM7.50117 54.4197H10.8477V45.4975H7.50117V54.4197Z" fill="#03624C"></path><path d="M26.9102 34.102C26.7952 34.1022 26.6844 34.0592 26.5996 33.9816L19.3578 27.3859C19.2673 27.3035 19.2132 27.1885 19.2075 27.0662C19.2018 26.9439 19.2449 26.8243 19.3274 26.7338C19.4098 26.6433 19.5248 26.5892 19.6471 26.5835C19.7694 26.5778 19.889 26.6209 19.9795 26.7033L27.2208 33.299C27.2898 33.3617 27.3381 33.4437 27.3596 33.5344C27.381 33.6251 27.3745 33.7201 27.3408 33.807C27.3072 33.8939 27.2481 33.9686 27.1713 34.0213C27.0944 34.0739 27.0034 34.1021 26.9102 34.102Z" fill="#03624C"></path><path d="M10.2425 36.1418C10.1551 36.1418 10.0695 36.1169 9.99563 36.0701C9.92179 36.0233 9.86277 35.9564 9.82543 35.8774C9.7881 35.7983 9.774 35.7103 9.78476 35.6235C9.79553 35.5367 9.83072 35.4548 9.88624 35.3872L16.7348 27.0512C16.8127 26.9572 16.9247 26.898 17.0462 26.8864C17.1677 26.8748 17.2888 26.9118 17.3831 26.9893C17.4774 27.0668 17.5372 27.1785 17.5493 27.2999C17.5614 27.4214 17.525 27.5427 17.4479 27.6373L10.5988 35.9729C10.5556 36.0257 10.5012 36.0681 10.4396 36.0974C10.378 36.1266 10.3107 36.1418 10.2425 36.1418Z" fill="#03624C"></path><path d="M29.5846 34.0422C29.4933 34.0418 29.4042 34.0143 29.3285 33.9633C29.2528 33.9123 29.194 33.84 29.1594 33.7555C29.1248 33.671 29.1161 33.5782 29.1342 33.4887C29.1524 33.3993 29.1967 33.3172 29.2615 33.253L36.1876 26.3896C36.2748 26.3033 36.3928 26.2552 36.5154 26.2559C36.5762 26.2562 36.6363 26.2685 36.6923 26.292C36.7483 26.3156 36.7991 26.3499 36.8418 26.3931C36.8846 26.4363 36.9184 26.4874 36.9413 26.5437C36.9643 26.5999 36.9759 26.6602 36.9756 26.7209C36.9753 26.7817 36.963 26.8417 36.9394 26.8978C36.9159 26.9538 36.8816 27.0046 36.8384 27.0473L29.909 33.9083C29.8227 33.9939 29.7061 34.042 29.5846 34.0422Z" fill="#03624C"></path><path d="M37.8225 27.7275C37.3663 27.7266 36.9206 27.5905 36.5418 27.3364C36.1629 27.0823 35.8678 26.7216 35.6939 26.2998C35.5199 25.8781 35.4749 25.4142 35.5644 24.9669C35.654 24.5196 35.8741 24.1088 36.1971 23.7866C36.52 23.4643 36.9311 23.245 37.3787 23.1563C37.8262 23.0676 38.2899 23.1136 38.7113 23.2884C39.1327 23.4632 39.4928 23.759 39.7462 24.1384C39.9996 24.5177 40.1348 24.9637 40.1348 25.4199C40.134 26.0325 39.8901 26.6197 39.4564 27.0525C39.0228 27.4852 38.4351 27.728 37.8225 27.7275ZM37.8225 24.0354C37.5489 24.0363 37.2817 24.1182 37.0546 24.2709C36.8275 24.4236 36.6507 24.6402 36.5467 24.8933C36.4426 25.1463 36.4158 25.4246 36.4698 25.6929C36.5237 25.9611 36.6559 26.2074 36.8497 26.4006C37.0436 26.5938 37.2903 26.7252 37.5587 26.7782C37.8272 26.8313 38.1053 26.8036 38.3581 26.6987C38.6108 26.5937 38.8268 26.4163 38.9787 26.1887C39.1306 25.9611 39.2117 25.6936 39.2117 25.4199C39.2117 25.2377 39.1758 25.0573 39.1059 24.889C39.036 24.7207 38.9336 24.5679 38.8046 24.4392C38.6755 24.3106 38.5223 24.2087 38.3538 24.1394C38.1853 24.0701 38.0048 24.0347 37.8225 24.0354Z" fill="#03624C"></path><path d="M28.2713 37.1895C27.8151 37.1885 27.3695 37.0523 26.9906 36.7981C26.6118 36.5439 26.3168 36.1832 26.143 35.7614C25.9691 35.3397 25.9241 34.8758 26.0137 34.4285C26.1033 33.9812 26.3235 33.5705 26.6464 33.2483C26.9694 32.9261 27.3805 32.7068 27.828 32.6182C28.2755 32.5296 28.7393 32.5756 29.1606 32.7504C29.582 32.9252 29.9421 33.2209 30.1954 33.6003C30.4488 33.9797 30.584 34.4256 30.584 34.8818C30.5833 35.4945 30.3392 36.0818 29.9055 36.5146C29.4718 36.9473 28.884 37.1901 28.2713 37.1895ZM28.2713 33.4973C27.9977 33.4983 27.7305 33.5803 27.5035 33.7331C27.2764 33.8858 27.0998 34.1024 26.9957 34.3555C26.8917 34.6086 26.865 34.8868 26.919 35.1551C26.973 35.4233 27.1053 35.6695 27.2991 35.8627C27.493 36.0558 27.7397 36.1872 28.0081 36.2402C28.2766 36.2932 28.5547 36.2655 28.8074 36.1605C29.0601 36.0556 29.276 35.8781 29.428 35.6505C29.5799 35.423 29.6609 35.1555 29.6609 34.8818C29.661 34.6995 29.6251 34.519 29.5552 34.3507C29.4853 34.1823 29.3829 34.0294 29.2538 33.9007C29.1247 33.772 28.9714 33.6701 28.8028 33.6008C28.6342 33.5315 28.4536 33.4966 28.2713 33.4973Z" fill="#03624C"></path><path d="M18.2288 28.2009C17.7726 28.2 17.3269 28.0639 16.948 27.8098C16.5691 27.5557 16.2741 27.195 16.1001 26.7732C15.9262 26.3515 15.8811 25.8876 15.9707 25.4403C16.0602 24.993 16.2804 24.5822 16.6033 24.26C16.9262 23.9377 17.3374 23.7184 17.7849 23.6297C18.2324 23.541 18.6962 23.587 19.1176 23.7618C19.539 23.9366 19.8991 24.2324 20.1524 24.6117C20.4058 24.9911 20.541 25.4371 20.541 25.8933C20.5403 26.5059 20.2963 27.0931 19.8627 27.5259C19.4291 27.9586 18.8414 28.2014 18.2288 28.2009ZM18.2288 24.5087C17.9551 24.5097 17.6879 24.5916 17.4608 24.7443C17.2337 24.897 17.057 25.1136 16.9529 25.3667C16.8488 25.6197 16.8221 25.898 16.876 26.1662C16.9299 26.4345 17.0622 26.6808 17.256 26.874C17.4498 27.0672 17.6965 27.1986 17.965 27.2516C18.2334 27.3047 18.5116 27.277 18.7643 27.172C19.0171 27.0671 19.233 26.8896 19.385 26.6621C19.5369 26.4345 19.618 26.167 19.618 25.8933C19.618 25.7111 19.582 25.5307 19.5121 25.3624C19.4423 25.1941 19.3399 25.0413 19.2108 24.9126C19.0818 24.784 18.9286 24.6821 18.7601 24.6128C18.5915 24.5435 18.411 24.5081 18.2288 24.5087Z" fill="#03624C"></path><path d="M9.1741 39.4971C8.7179 39.4962 8.27219 39.3601 7.89332 39.1059C7.51444 38.8518 7.21938 38.4911 7.04543 38.0694C6.87148 37.6476 6.82644 37.1838 6.916 36.7364C7.00556 36.2891 7.2257 35.8784 7.54861 35.5561C7.87152 35.2338 8.28271 35.0145 8.73022 34.9258C9.17773 34.8372 9.64148 34.8831 10.0629 35.0579C10.4843 35.2327 10.8444 35.5285 11.0978 35.9079C11.3511 36.2873 11.4863 36.7332 11.4863 37.1895C11.4856 37.802 11.2416 38.3893 10.808 38.822C10.3744 39.2547 9.7867 39.4976 9.1741 39.4971ZM9.1741 35.8049C8.90046 35.8058 8.63322 35.8878 8.40614 36.0405C8.17905 36.1932 8.00231 36.4097 7.89822 36.6628C7.79413 36.9159 7.76737 37.1941 7.82131 37.4624C7.87526 37.7307 8.00749 37.9769 8.20131 38.1701C8.39513 38.3633 8.64184 38.4947 8.91029 38.5478C9.17875 38.6008 9.4569 38.5731 9.70963 38.4682C9.96236 38.3633 10.1783 38.1858 10.3303 37.9582C10.4822 37.7306 10.5633 37.4631 10.5633 37.1895C10.5633 37.0072 10.5273 36.8268 10.4575 36.6585C10.3876 36.4902 10.2852 36.3374 10.1561 36.2088C10.0271 36.0801 9.87389 35.9783 9.70537 35.9089C9.53686 35.8396 9.35632 35.8043 9.1741 35.8049Z" fill="#03624C"></path><path d="M26.2706 6.68867H5.65293C5.53053 6.68867 5.41314 6.64005 5.32658 6.5535C5.24003 6.46694 5.19141 6.34955 5.19141 6.22715C5.19141 6.10475 5.24003 5.98735 5.32658 5.9008C5.41314 5.81425 5.53053 5.76562 5.65293 5.76562H26.2706C26.393 5.76562 26.5104 5.81425 26.597 5.9008C26.6835 5.98735 26.7322 6.10475 26.7322 6.22715C26.7322 6.34955 26.6835 6.46694 26.597 6.5535C26.5104 6.64005 26.393 6.68867 26.2706 6.68867Z" fill="#03624C"></path><path d="M26.2706 14.1335H5.65293C5.53053 14.1335 5.41314 14.0849 5.32658 13.9983C5.24003 13.9118 5.19141 13.7944 5.19141 13.672C5.19141 13.5496 5.24003 13.4322 5.32658 13.3456C5.41314 13.2591 5.53053 13.2104 5.65293 13.2104H26.2706C26.393 13.2104 26.5104 13.2591 26.597 13.3456C26.6835 13.4322 26.7322 13.5496 26.7322 13.672C26.7322 13.7944 26.6835 13.9118 26.597 13.9983C26.5104 14.0849 26.393 14.1335 26.2706 14.1335Z" fill="#03624C"></path></svg>