<svg xmlns="http://www.w3.org/2000/svg" width="66" height="60" viewBox="0 0 66 60" fill="none"><path d="M59.1717 19.6689C59.4609 18.4685 59.6066 17.2346 59.6066 15.9977C59.6066 7.17662 52.439 0 43.6301 0C37.2535 0 31.5848 3.71372 29.0189 9.5159C27.4068 8.48734 25.5621 7.94728 23.6446 7.94728C18.1337 7.94728 13.6513 12.4337 13.6513 17.9496C13.6513 18.4796 13.6938 19.0146 13.7757 19.5354C12.5985 19.0439 11.3121 18.7881 10.0023 18.7881C4.48637 18.7881 0 23.2755 0 28.7904C0 34.3003 4.48637 38.7837 10.0023 38.7837H24.396V53.6163C24.396 54.8653 23.3796 55.8817 22.1316 55.8817H20.0461C19.7984 54.1291 18.3036 52.7728 16.4842 52.7728C14.4979 52.7728 12.8817 54.394 12.8817 56.3864C12.8817 58.3788 14.4979 60 16.4842 60C18.3026 60 19.7974 58.6448 20.0461 56.8931H22.1316C23.9379 56.8931 25.4074 55.4236 25.4074 53.6163V38.7837H32.0318V52.8244C30.2852 53.0732 28.934 54.567 28.934 56.3864C28.934 58.3788 30.5501 60 32.5365 60C34.5288 60 36.1501 58.3788 36.1501 56.3864C36.1501 54.567 34.7948 53.0732 33.0432 52.8244V38.7837H39.6878V53.6163C39.6878 55.4236 41.1573 56.8931 42.9646 56.8931H45.0379C45.2857 58.6448 46.7754 60 48.5888 60C50.5802 60 52.2014 58.3788 52.2014 56.3864C52.2014 54.394 50.5802 52.7728 48.5888 52.7728C46.7744 52.7728 45.2847 54.1291 45.0369 55.8817H42.9646C41.7156 55.8817 40.6992 54.8653 40.6992 53.6163V38.7837H44.5059C44.785 38.7837 45.0116 38.5571 45.0116 38.278C45.0116 37.9989 44.785 37.7723 44.5059 37.7723H40.2127C40.2066 37.7723 40.2006 37.7683 40.1935 37.7683C40.1864 37.7683 40.1803 37.7723 40.1732 37.7723H32.5567C32.5496 37.7723 32.5435 37.7683 32.5375 37.7683C32.5304 37.7683 32.5243 37.7723 32.5172 37.7723H24.9209C24.9138 37.7723 24.9088 37.7683 24.9017 37.7683C24.8946 37.7683 24.8886 37.7723 24.8815 37.7723H10.0023C5.04464 37.7723 1.01133 33.743 1.01133 28.7904C1.01133 23.8337 5.04464 19.7994 10.0023 19.7994C11.5062 19.7994 12.9717 20.1746 14.242 20.8826C14.419 20.9817 14.6374 20.9645 14.7992 20.8391C14.9611 20.7127 15.0298 20.5023 14.9742 20.3051C14.7699 19.5668 14.6627 18.7516 14.6627 17.9496C14.6627 12.9919 18.6919 8.95864 23.6446 8.95864C25.5581 8.95864 27.3927 9.55736 28.9481 10.6911C29.0736 10.7821 29.2364 10.8094 29.3851 10.768C29.5357 10.7245 29.6571 10.6132 29.7158 10.4686C31.9984 4.72305 37.4608 1.01136 43.6301 1.01136C51.8828 1.01136 58.5952 7.73489 58.5952 15.9977C58.5952 17.2943 58.4233 18.5848 58.0854 19.8338C58.0187 20.0826 58.1492 20.3425 58.3888 20.4356C61.8416 21.7948 64.0727 25.0737 64.0727 28.7904C64.0727 33.743 60.0435 37.7723 55.0908 37.7723H44.5059C44.2268 37.7723 44.0002 37.9989 44.0002 38.278C44.0002 38.5571 44.2268 38.7837 44.5059 38.7837H55.0908C60.6017 38.7837 65.0841 34.3003 65.0841 28.7904C65.0841 24.8056 62.7782 21.273 59.1717 19.6689ZM16.4842 58.9886C15.0551 58.9886 13.8931 57.8205 13.8931 56.3864C13.8931 54.9513 15.0551 53.7842 16.4842 53.7842C17.9183 53.7842 19.0864 54.9513 19.0864 56.3864C19.0864 57.8205 17.9183 58.9886 16.4842 58.9886ZM48.5888 53.7842C50.0229 53.7842 51.19 54.9513 51.19 56.3864C51.19 57.8205 50.0229 58.9886 48.5888 58.9886C47.1618 58.9886 46.0007 57.8225 45.9977 56.3904C45.9977 56.3894 45.9987 56.3884 45.9987 56.3874C45.9987 56.3864 45.9977 56.3854 45.9977 56.3834C45.9997 54.9493 47.1618 53.7842 48.5888 53.7842ZM32.5203 53.7862C32.5264 53.7862 32.5314 53.7892 32.5375 53.7892C32.5425 53.7892 32.5465 53.7862 32.5527 53.7862C33.9797 53.7953 35.1387 54.9574 35.1387 56.3864C35.1387 57.8205 33.9716 58.9886 32.5365 58.9886C31.1084 58.9886 29.9454 57.8205 29.9454 56.3864C29.9454 54.9563 31.1003 53.7943 32.5203 53.7862Z" fill="#03624C"></path></svg>