<svg xmlns="http://www.w3.org/2000/svg" width="70" height="60" viewBox="0 0 70 60" fill="none"><path d="M17.5935 10.8819H0.53844C0.395637 10.8819 0.258683 10.8251 0.157706 10.7242C0.0567284 10.6232 0 10.4862 0 10.3434V0.53844C0 0.395637 0.0567284 0.258682 0.157706 0.157705C0.258683 0.0567279 0.395637 0 0.53844 0H17.5935C17.7363 0 17.8733 0.0567279 17.9743 0.157705C18.0752 0.258682 18.132 0.395637 18.132 0.53844V10.3434C18.132 10.4862 18.0752 10.6232 17.9743 10.7242C17.8733 10.8251 17.7363 10.8819 17.5935 10.8819ZM1.07688 9.80499H17.0551V1.07688H1.07688V9.80499Z" fill="#03624C"></path><path d="M23.5846 26.8887H6.53063C6.38782 26.8887 6.25087 26.832 6.14989 26.731C6.04892 26.63 5.99219 26.4931 5.99219 26.3503V16.548C5.99219 16.4052 6.04892 16.2682 6.14989 16.1672C6.25087 16.0662 6.38782 16.0095 6.53063 16.0095H23.5846C23.7274 16.0095 23.8644 16.0662 23.9654 16.1672C24.0663 16.2682 24.1231 16.4052 24.1231 16.548V26.3503C24.1231 26.4931 24.0663 26.63 23.9654 26.731C23.8644 26.832 23.7274 26.8887 23.5846 26.8887ZM7.06799 25.8118H23.0462V17.0864H7.06907L7.06799 25.8118Z" fill="#03624C"></path><path d="M17.5935 41.9117H0.53844C0.395637 41.9117 0.258683 41.855 0.157706 41.754C0.0567284 41.653 0 41.5161 0 41.3733V31.5704C0 31.4276 0.0567284 31.2907 0.157706 31.1897C0.258683 31.0887 0.395637 31.032 0.53844 31.032H17.5935C17.7363 31.032 17.8733 31.0887 17.9743 31.1897C18.0752 31.2907 18.132 31.4276 18.132 31.5704V41.3733C18.132 41.5161 18.0752 41.653 17.9743 41.754C17.8733 41.855 17.7363 41.9117 17.5935 41.9117ZM1.07688 40.8348H17.0551V32.1089H1.07688V40.8348Z" fill="#03624C"></path><path d="M60.0375 15.7839H41.1986C41.0558 15.7839 40.9188 15.7272 40.8179 15.6262C40.7169 15.5252 40.6602 15.3883 40.6602 15.2455V5.44103C40.6602 5.29822 40.7169 5.16127 40.8179 5.06029C40.9188 4.95932 41.0558 4.90259 41.1986 4.90259H60.0375C60.1803 4.90259 60.3173 4.95932 60.4183 5.06029C60.5192 5.16127 60.576 5.29822 60.576 5.44103V15.2455C60.576 15.3883 60.5192 15.5252 60.4183 15.6262C60.3173 15.7272 60.1803 15.7839 60.0375 15.7839ZM41.7349 14.707H59.4991V5.97947H41.737L41.7349 14.707Z" fill="#03624C"></path><path d="M69.4577 31.2402H50.6166C50.4738 31.2402 50.3368 31.1835 50.2358 31.0825C50.1349 30.9815 50.0781 30.8446 50.0781 30.7018V20.8973C50.0781 20.7545 50.1349 20.6176 50.2358 20.5166C50.3368 20.4156 50.4738 20.3589 50.6166 20.3589H69.4577C69.6005 20.3589 69.7374 20.4156 69.8384 20.5166C69.9394 20.6176 69.9961 20.7545 69.9961 20.8973V30.7018C69.9961 30.8446 69.9394 30.9815 69.8384 31.0825C69.7374 31.1835 69.6005 31.2402 69.4577 31.2402ZM51.155 30.1633H68.9192V21.4358H51.155V30.1633Z" fill="#03624C"></path><path d="M66.1185 46.814H54.0736C53.9308 46.814 53.7938 46.7573 53.6929 46.6563C53.5919 46.5554 53.5352 46.4184 53.5352 46.2756V36.4701C53.5352 36.3273 53.5919 36.1903 53.6929 36.0893C53.7938 35.9884 53.9308 35.9316 54.0736 35.9316H66.1185C66.2613 35.9316 66.3983 35.9884 66.4992 36.0893C66.6002 36.1903 66.6569 36.3273 66.6569 36.4701V46.2745C66.6571 46.3453 66.6433 46.4155 66.6163 46.4809C66.5893 46.5464 66.5496 46.6058 66.4996 46.656C66.4496 46.7061 66.3902 46.7458 66.3248 46.773C66.2594 46.8001 66.1893 46.814 66.1185 46.814ZM54.6137 45.7372H65.5801V37.0085H54.612L54.6137 45.7372Z" fill="#03624C"></path><path d="M9.06523 32.1087C8.9557 32.1086 8.84881 32.0751 8.75882 32.0126C8.66884 31.9502 8.60003 31.8618 8.56159 31.7592C8.52315 31.6567 8.51691 31.5448 8.54369 31.4386C8.57047 31.3324 8.629 31.2369 8.71148 31.1648L14.7027 25.9457C14.8104 25.8519 14.9509 25.8047 15.0934 25.8145C15.2359 25.8243 15.3686 25.8903 15.4624 25.998C15.5563 26.1056 15.6035 26.2462 15.5937 26.3886C15.5839 26.5311 15.5179 26.6639 15.4102 26.7577L9.41845 31.9746C9.32092 32.0608 9.19536 32.1084 9.06523 32.1087Z" fill="#03624C"></path><path d="M15.0573 17.0863C14.985 17.0864 14.9134 17.0719 14.8468 17.0436C14.7803 17.0153 14.7202 16.9737 14.6701 16.9215L8.67838 10.7171C8.5792 10.6143 8.5249 10.4764 8.52743 10.3336C8.52995 10.1908 8.58909 10.0549 8.69184 9.95572C8.79459 9.85655 8.93252 9.80225 9.0753 9.80477C9.21809 9.8073 9.35402 9.86644 9.45319 9.96919L15.4444 16.1709C15.5188 16.2468 15.5691 16.343 15.5889 16.4474C15.6087 16.5518 15.5972 16.6597 15.5558 16.7576C15.5144 16.8555 15.445 16.9389 15.3563 16.9974C15.2676 17.0559 15.1635 17.0868 15.0573 17.0863Z" fill="#03624C"></path><path d="M23.5818 21.9861C23.4651 21.9862 23.3514 21.9484 23.258 21.8782C23.1647 21.8081 23.0966 21.7095 23.0642 21.5973C23.0317 21.4851 23.0366 21.3655 23.0781 21.2563C23.1197 21.1472 23.1955 21.0545 23.2943 20.9922L40.9067 9.8874C41.0273 9.81671 41.1707 9.79569 41.3065 9.82879C41.4423 9.86189 41.5599 9.94652 41.6345 10.0648C41.709 10.183 41.7347 10.3257 41.706 10.4625C41.6772 10.5993 41.5965 10.7196 41.4807 10.7979L23.8699 21.9032C23.7838 21.9579 23.6838 21.9867 23.5818 21.9861Z" fill="#03624C"></path><path d="M60.0976 21.4359C60.0007 21.436 59.9057 21.4099 59.8224 21.3605L50.3448 15.708C50.2221 15.6349 50.1335 15.516 50.0985 15.3776C50.0635 15.2392 50.0848 15.0925 50.158 14.9698C50.2311 14.8471 50.3499 14.7585 50.4884 14.7235C50.6268 14.6885 50.7735 14.7098 50.8962 14.783L60.3759 20.4366C60.4772 20.497 60.5559 20.5889 60.5999 20.6984C60.6439 20.8078 60.6507 20.9286 60.6193 21.0423C60.5879 21.156 60.5201 21.2563 60.4262 21.3277C60.3324 21.3991 60.2176 21.4377 60.0997 21.4375L60.0976 21.4359Z" fill="#03624C"></path><path d="M60.0974 37.0085C60.0588 37.0086 60.0204 37.0045 59.9827 36.9961C59.8432 36.9658 59.7215 36.8813 59.6442 36.7613C59.567 36.6412 59.5406 36.4954 59.5708 36.3559L60.8232 30.5865C60.8368 30.5161 60.8644 30.449 60.9042 30.3894C60.9441 30.3297 60.9955 30.2787 61.0554 30.2391C61.1153 30.1996 61.1825 30.1725 61.253 30.1593C61.3235 30.1461 61.396 30.1472 61.4661 30.1624C61.5362 30.1776 61.6026 30.2067 61.6613 30.2479C61.72 30.2891 61.7699 30.3417 61.808 30.4025C61.8462 30.4632 61.8717 30.531 61.8833 30.6018C61.8949 30.6727 61.8922 30.7451 61.8753 30.8148L60.6229 36.5842C60.5969 36.7043 60.5306 36.8118 60.435 36.889C60.3394 36.9662 60.2203 37.0083 60.0974 37.0085Z" fill="#03624C"></path><path d="M35.7881 46.5389C35.374 46.5397 34.9618 46.4854 34.5621 46.3774C30.927 45.3867 29.5923 41.8416 29.3726 41.1793C27.6539 38.9448 26.9496 37.0915 27.284 35.6716C27.3951 35.1605 27.6686 34.699 28.0636 34.3562C26.9636 26.6274 32.1256 25.3244 32.1784 25.3126C35.9275 24.3331 38.7797 24.4613 40.6416 25.6981C41.4774 26.2344 42.1 27.0453 42.4023 27.9913C42.5861 28.0947 42.7479 28.233 42.8788 28.3984C43.5728 29.248 43.8017 30.9053 43.5605 33.3289C43.7722 33.3834 43.9658 33.493 44.1215 33.6465C44.7547 34.2679 44.7741 35.5386 44.1807 37.5303C44.1484 37.6294 43.4958 39.592 42.1449 40.537C41.8794 41.4065 40.7013 44.7061 37.7458 46.1017C37.1335 46.3901 36.4649 46.5394 35.7881 46.5389ZM36.6065 25.7465C35.1966 25.7743 33.7958 25.9798 32.4374 26.3582C32.2473 26.4051 28.0453 27.5223 29.1771 34.5156C29.1958 34.6301 29.177 34.7475 29.1235 34.8504C29.0701 34.9534 28.9848 35.0363 28.8804 35.0869C28.7333 35.1843 28.608 35.3111 28.5124 35.4594C28.4167 35.6077 28.3529 35.7742 28.3248 35.9484C28.1632 36.7081 28.37 38.1307 30.282 40.593C30.3228 40.6458 30.3536 40.7057 30.373 40.7696C30.3838 40.8062 31.5037 44.425 34.8453 45.3361C35.6578 45.5599 36.5235 45.4864 37.2866 45.1288C40.1694 43.7676 41.152 40.0981 41.1633 40.0615C41.1988 39.9247 41.2866 39.8073 41.4078 39.7347C42.35 39.1693 42.9886 37.7209 43.155 37.211C43.8087 35.0147 43.4517 34.5005 43.3731 34.4197C43.3368 34.3919 43.2946 34.373 43.2497 34.3645C43.2048 34.356 43.1585 34.3581 43.1146 34.3707C43.0285 34.3938 42.9381 34.3955 42.8512 34.3759C42.7643 34.3563 42.6834 34.3159 42.6155 34.2582C42.548 34.2013 42.4956 34.1286 42.4629 34.0466C42.4301 33.9647 42.418 33.8759 42.4276 33.7881C42.973 29.3896 41.8692 28.9255 41.8579 28.9217C41.7424 28.9117 41.6343 28.8605 41.5533 28.7775C41.4722 28.6945 41.4237 28.5852 41.4164 28.4694C41.3203 28.0775 41.1474 27.7085 40.9078 27.3838C40.6681 27.0592 40.3664 26.7852 40.0202 26.5779C38.986 25.9781 37.8007 25.6895 36.6065 25.7465Z" fill="#03624C"></path><path d="M35.166 60C25.4634 60 19.4339 57.5771 19.3445 57.541C19.2485 57.5013 19.1659 57.4347 19.1069 57.3492C19.0479 57.2637 19.0148 57.1629 19.0118 57.0591C18.9299 54.2355 20.1349 51.7194 21.1607 50.1062C21.8779 48.9834 22.9108 48.0974 24.1296 47.5594L31.9284 44.0741C31.993 44.0452 32.0626 44.0294 32.1332 44.0274C32.2039 44.0255 32.2743 44.0375 32.3404 44.0627C32.4064 44.0879 32.4668 44.126 32.5182 44.1746C32.5695 44.2232 32.6108 44.2814 32.6397 44.346C32.6685 44.4105 32.6844 44.4801 32.6863 44.5508C32.6883 44.6215 32.6763 44.6919 32.651 44.7579C32.6258 44.824 32.5878 44.8844 32.5392 44.9358C32.4906 44.9871 32.4323 45.0284 32.3678 45.0572L24.5674 48.5415C23.5417 48.9942 22.6727 49.74 22.0696 50.685C20.8782 52.4637 20.1924 54.5327 20.0854 56.6709C22.2268 57.4381 34.5657 61.3607 51.5809 56.6359C51.4667 54.51 50.7814 52.4543 49.5973 50.685C48.9934 49.7405 48.1238 48.9955 47.0979 48.5436L39.0127 44.9016C38.8824 44.843 38.7808 44.7351 38.7302 44.6015C38.6795 44.468 38.684 44.3198 38.7426 44.1896C38.8012 44.0593 38.9092 43.9577 39.0427 43.9071C39.1763 43.8564 39.3245 43.8609 39.4547 43.9195L47.5383 47.561C48.7569 48.0988 49.7894 48.9846 50.5062 50.1073C51.5319 51.7226 52.7369 54.2366 52.6551 57.0601C52.6518 57.1746 52.6121 57.2849 52.5418 57.3753C52.4715 57.4656 52.3743 57.5312 52.2642 57.5625C46.7051 59.1625 40.9508 59.9828 35.166 60Z" fill="#03624C"></path></svg>