<svg xmlns="http://www.w3.org/2000/svg" width="60" height="60" viewBox="0 0 60 60" fill="none"><path d="M43.0832 36.3692H15.7474C14.5117 36.3673 13.3271 35.8756 12.4533 35.0018C11.5795 34.128 11.0878 32.9434 11.0859 31.7077V28.2955C11.0878 27.0598 11.5795 25.8752 12.4533 25.0014C13.3271 24.1276 14.5117 23.6359 15.7474 23.634H43.0832C44.3194 23.6353 45.5046 24.1267 46.3789 25.0006C47.2532 25.8744 47.7452 27.0594 47.747 28.2955V31.7044C47.7461 32.9411 47.2544 34.1269 46.38 35.0015C45.5056 35.8761 44.3199 36.3679 43.0832 36.3692ZM15.7474 24.5539C14.7564 24.5555 13.8065 24.9498 13.1057 25.6506C12.405 26.3513 12.0106 27.3013 12.009 28.2923V31.7012C12.0106 32.6922 12.405 33.6422 13.1057 34.3429C13.8065 35.0437 14.7564 35.4381 15.7474 35.4396H43.0832C44.0746 35.4387 45.0252 35.0445 45.7264 34.3437C46.4277 33.6429 46.8224 32.6926 46.824 31.7012V28.2955C46.8224 27.3041 46.4277 26.3538 45.7264 25.653C45.0252 24.9522 44.0746 24.5581 43.0832 24.5571L15.7474 24.5539Z" fill="#03624C"></path><path d="M11.034 9.24616H4.66939C4.0584 9.25227 3.45227 9.1372 2.88603 8.90761C2.31979 8.67802 1.80468 8.33847 1.37047 7.90858C0.93627 7.47869 0.591587 6.967 0.356353 6.40308C0.121118 5.83916 0 5.23421 0 4.6232C0 4.01218 0.121118 3.40723 0.356353 2.84331C0.591587 2.27939 0.93627 1.7677 1.37047 1.33781C1.80468 0.907924 2.31979 0.56837 2.88603 0.338782C3.45227 0.109194 4.0584 -0.00587409 4.66939 0.000230786H11.034C12.252 0.0124018 13.4161 0.504823 14.2731 1.37048C15.1302 2.23613 15.611 3.40505 15.611 4.6232C15.611 5.84134 15.1302 7.01026 14.2731 7.87592C13.4161 8.74157 12.252 9.23399 11.034 9.24616ZM4.66939 0.923301C4.18003 0.917835 3.69446 1.0095 3.24077 1.19298C2.78709 1.37647 2.37431 1.64813 2.02633 1.99224C1.67836 2.33635 1.4021 2.74607 1.21356 3.19768C1.02502 3.64929 0.927938 4.13381 0.927938 4.6232C0.927938 5.11258 1.02502 5.5971 1.21356 6.04871C1.4021 6.50032 1.67836 6.91004 2.02633 7.25415C2.37431 7.59826 2.78709 7.86992 3.24077 8.05341C3.69446 8.23689 4.18003 8.32856 4.66939 8.32309H11.034C12.0081 8.31221 12.9386 7.91761 13.6236 7.22493C14.3086 6.53225 14.6928 5.59737 14.6928 4.6232C14.6928 3.64902 14.3086 2.71415 13.6236 2.02146C12.9386 1.32878 12.0081 0.934181 11.034 0.923301H4.66939Z" fill="#03624C"></path><path d="M33.0792 9.24616H26.7124C26.1014 9.25227 25.4952 9.1372 24.929 8.90761C24.3628 8.67802 23.8476 8.33847 23.4134 7.90858C22.9792 7.47869 22.6346 6.967 22.3993 6.40308C22.1641 5.83916 22.043 5.23421 22.043 4.6232C22.043 4.01218 22.1641 3.40723 22.3993 2.84331C22.6346 2.27939 22.9792 1.7677 23.4134 1.33781C23.8476 0.907924 24.3628 0.56837 24.929 0.338782C25.4952 0.109194 26.1014 -0.00587409 26.7124 0.000230786H33.0792C33.6902 -0.00587409 34.2963 0.109194 34.8626 0.338782C35.4288 0.56837 35.9439 0.907924 36.3781 1.33781C36.8123 1.7677 37.157 2.27939 37.3923 2.84331C37.6275 3.40723 37.7486 4.01218 37.7486 4.6232C37.7486 5.23421 37.6275 5.83916 37.3923 6.40308C37.157 6.967 36.8123 7.47869 36.3781 7.90858C35.9439 8.33847 35.4288 8.67802 34.8626 8.90761C34.2963 9.1372 33.6902 9.25227 33.0792 9.24616ZM26.7124 0.923301C26.223 0.917835 25.7374 1.0095 25.2837 1.19298C24.8301 1.37647 24.4173 1.64813 24.0693 1.99224C23.7213 2.33635 23.4451 2.74607 23.2565 3.19768C23.068 3.64929 22.9709 4.13381 22.9709 4.6232C22.9709 5.11258 23.068 5.5971 23.2565 6.04871C23.4451 6.50032 23.7213 6.91004 24.0693 7.25415C24.4173 7.59826 24.8301 7.86992 25.2837 8.05341C25.7374 8.23689 26.223 8.32856 26.7124 8.32309H33.0792C33.5686 8.32856 34.0542 8.23689 34.5078 8.05341C34.9615 7.86992 35.3743 7.59826 35.7223 7.25415C36.0703 6.91004 36.3465 6.50032 36.5351 6.04871C36.7236 5.5971 36.8207 5.11258 36.8207 4.6232C36.8207 4.13381 36.7236 3.64929 36.5351 3.19768C36.3465 2.74607 36.0703 2.33635 35.7223 1.99224C35.3743 1.64813 34.9615 1.37647 34.5078 1.19298C34.0542 1.0095 33.5686 0.917835 33.0792 0.923301H26.7124Z" fill="#03624C"></path><path d="M55.1173 9.24616H48.7528C47.5347 9.23399 46.3706 8.74157 45.5136 7.87592C44.6565 7.01026 44.1758 5.84134 44.1758 4.6232C44.1758 3.40505 44.6565 2.23613 45.5136 1.37048C46.3706 0.504823 47.5347 0.0124018 48.7528 0.000230786H55.1173C55.7283 -0.00587409 56.3345 0.109194 56.9007 0.338782C57.4669 0.56837 57.9821 0.907924 58.4163 1.33781C58.8505 1.7677 59.1952 2.27939 59.4304 2.84331C59.6656 3.40723 59.7867 4.01218 59.7867 4.6232C59.7867 5.23421 59.6656 5.83916 59.4304 6.40308C59.1952 6.967 58.8505 7.47869 58.4163 7.90858C57.9821 8.33847 57.4669 8.67802 56.9007 8.90761C56.3345 9.1372 55.7283 9.25227 55.1173 9.24616ZM48.7528 0.923301C47.7787 0.934181 46.8481 1.32878 46.1632 2.02146C45.4782 2.71415 45.094 3.64902 45.094 4.6232C45.094 5.59737 45.4782 6.53225 46.1632 7.22493C46.8481 7.91761 47.7787 8.31221 48.7528 8.32309H55.1173C55.6067 8.32856 56.0923 8.23689 56.546 8.05341C56.9997 7.86992 57.4124 7.59826 57.7604 7.25415C58.1084 6.91004 58.3846 6.50032 58.5732 6.04871C58.7617 5.5971 58.8588 5.11258 58.8588 4.6232C58.8588 4.13381 58.7617 3.64929 58.5732 3.19768C58.3846 2.74607 58.1084 2.33635 57.7604 1.99224C57.4124 1.64813 56.9997 1.37647 56.546 1.19298C56.0923 1.0095 55.6067 0.917835 55.1173 0.923301H48.7528Z" fill="#03624C"></path><path d="M29.8951 24.5538C29.7727 24.5538 29.6553 24.5052 29.5688 24.4186C29.4822 24.3321 29.4336 24.2147 29.4336 24.0923V8.78453C29.4336 8.66213 29.4822 8.54473 29.5688 8.45818C29.6553 8.37162 29.7727 8.323 29.8951 8.323C30.0175 8.323 30.1349 8.37162 30.2215 8.45818C30.308 8.54473 30.3567 8.66213 30.3567 8.78453V24.0923C30.3567 24.2147 30.308 24.3321 30.2215 24.4186C30.1349 24.5052 30.0175 24.5538 29.8951 24.5538Z" fill="#03624C"></path><path d="M43.9391 17.2408H15.8469C13.6049 17.2383 11.4554 16.3466 9.8701 14.7613C8.28478 13.176 7.39307 11.0265 7.39062 8.78453C7.39063 8.66213 7.43925 8.54473 7.52581 8.45818C7.61236 8.37162 7.72975 8.323 7.85216 8.323C7.97457 8.323 8.09196 8.37162 8.17851 8.45818C8.26507 8.54473 8.31369 8.66213 8.31369 8.78453C8.31589 10.7818 9.11027 12.6966 10.5225 14.1089C11.9348 15.5211 13.8496 16.3155 15.8469 16.3177H43.9391C45.9364 16.3155 47.8513 15.5211 49.2636 14.1089C50.676 12.6966 51.4704 10.7818 51.4727 8.78453C51.4727 8.66213 51.5214 8.54473 51.6079 8.45818C51.6945 8.37162 51.8119 8.323 51.9343 8.323C52.0567 8.323 52.1741 8.37162 52.2606 8.45818C52.3472 8.54473 52.3958 8.66213 52.3958 8.78453C52.3933 11.0266 51.5014 13.176 49.916 14.7613C48.3307 16.3466 46.1811 17.2383 43.9391 17.2408Z" fill="#03624C"></path><path d="M11.034 59.9998H4.66939C4.0584 60.0059 3.45227 59.8909 2.88603 59.6613C2.31979 59.4317 1.80468 59.0921 1.37047 58.6622C0.93627 58.2324 0.591587 57.7207 0.356353 57.1567C0.121118 56.5928 0 55.9879 0 55.3769C0 54.7658 0.121118 54.1609 0.356353 53.597C0.591587 53.0331 0.93627 52.5214 1.37047 52.0915C1.80468 51.6616 2.31979 51.322 2.88603 51.0924C3.45227 50.8629 4.0584 50.7478 4.66939 50.7539H11.034C12.252 50.7661 13.4161 51.2585 14.2731 52.1241C15.1302 52.9898 15.611 54.1587 15.611 55.3769C15.611 56.595 15.1302 57.7639 14.2731 58.6296C13.4161 59.4952 12.252 59.9877 11.034 59.9998ZM4.66939 51.677C4.18003 51.6715 3.69446 51.7632 3.24077 51.9466C2.78709 52.1301 2.37431 52.4018 2.02633 52.7459C1.67836 53.09 1.4021 53.4997 1.21356 53.9513C1.02502 54.4029 0.927938 54.8875 0.927938 55.3769C0.927938 55.8662 1.02502 56.3508 1.21356 56.8024C1.4021 57.254 1.67836 57.6637 2.02633 58.0078C2.37431 58.3519 2.78709 58.6236 3.24077 58.8071C3.69446 58.9906 4.18003 59.0822 4.66939 59.0768H11.034C12.0081 59.0659 12.9386 58.6713 13.6236 57.9786C14.3086 57.2859 14.6928 56.351 14.6928 55.3769C14.6928 54.4027 14.3086 53.4678 13.6236 52.7751C12.9386 52.0824 12.0081 51.6878 11.034 51.677H4.66939Z" fill="#03624C"></path><path d="M33.0792 59.9998H26.7124C26.1014 60.0059 25.4952 59.8909 24.929 59.6613C24.3628 59.4317 23.8476 59.0921 23.4134 58.6622C22.9792 58.2324 22.6346 57.7207 22.3993 57.1567C22.1641 56.5928 22.043 55.9879 22.043 55.3769C22.043 54.7658 22.1641 54.1609 22.3993 53.597C22.6346 53.0331 22.9792 52.5214 23.4134 52.0915C23.8476 51.6616 24.3628 51.322 24.929 51.0924C25.4952 50.8629 26.1014 50.7478 26.7124 50.7539H33.0792C33.6902 50.7478 34.2963 50.8629 34.8626 51.0924C35.4288 51.322 35.9439 51.6616 36.3781 52.0915C36.8123 52.5214 37.157 53.0331 37.3923 53.597C37.6275 54.1609 37.7486 54.7658 37.7486 55.3769C37.7486 55.9879 37.6275 56.5928 37.3923 57.1567C37.157 57.7207 36.8123 58.2324 36.3781 58.6622C35.9439 59.0921 35.4288 59.4317 34.8626 59.6613C34.2963 59.8909 33.6902 60.0059 33.0792 59.9998ZM26.7147 51.677C26.2253 51.6715 25.7397 51.7632 25.286 51.9466C24.8324 52.1301 24.4196 52.4018 24.0716 52.7459C23.7236 53.09 23.4474 53.4997 23.2588 53.9513C23.0703 54.4029 22.9732 54.8875 22.9732 55.3769C22.9732 55.8662 23.0703 56.3508 23.2588 56.8024C23.4474 57.254 23.7236 57.6637 24.0716 58.0078C24.4196 58.3519 24.8324 58.6236 25.286 58.8071C25.7397 58.9906 26.2253 59.0822 26.7147 59.0768H33.0792C33.5686 59.0822 34.0542 58.9906 34.5078 58.8071C34.9615 58.6236 35.3743 58.3519 35.7223 58.0078C36.0703 57.6637 36.3465 57.254 36.5351 56.8024C36.7236 56.3508 36.8207 55.8662 36.8207 55.3769C36.8207 54.8875 36.7236 54.4029 36.5351 53.9513C36.3465 53.4997 36.0703 53.09 35.7223 52.7459C35.3743 52.4018 34.9615 52.1301 34.5078 51.9466C34.0542 51.7632 33.5686 51.6715 33.0792 51.677H26.7147Z" fill="#03624C"></path><path d="M55.1173 59.9998H48.7528C47.5347 59.9877 46.3706 59.4952 45.5136 58.6296C44.6565 57.7639 44.1758 56.595 44.1758 55.3769C44.1758 54.1587 44.6565 52.9898 45.5136 52.1241C46.3706 51.2585 47.5347 50.7661 48.7528 50.7539H55.1173C55.7283 50.7478 56.3345 50.8629 56.9007 51.0924C57.4669 51.322 57.9821 51.6616 58.4163 52.0915C58.8505 52.5214 59.1952 53.0331 59.4304 53.597C59.6656 54.1609 59.7867 54.7658 59.7867 55.3769C59.7867 55.9879 59.6656 56.5928 59.4304 57.1567C59.1952 57.7207 58.8505 58.2324 58.4163 58.6622C57.9821 59.0921 57.4669 59.4317 56.9007 59.6613C56.3345 59.8909 55.7283 60.0059 55.1173 59.9998ZM48.7528 51.677C47.7787 51.6878 46.8481 52.0824 46.1632 52.7751C45.4782 53.4678 45.094 54.4027 45.094 55.3769C45.094 56.351 45.4782 57.2859 46.1632 57.9786C46.8481 58.6713 47.7787 59.0659 48.7528 59.0768H55.1173C55.6067 59.0822 56.0923 58.9906 56.546 58.8071C56.9997 58.6236 57.4124 58.3519 57.7604 58.0078C58.1084 57.6637 58.3846 57.254 58.5732 56.8024C58.7617 56.3508 58.8588 55.8662 58.8588 55.3769C58.8588 54.8875 58.7617 54.4029 58.5732 53.9513C58.3846 53.4997 58.1084 53.09 57.7604 52.7459C57.4124 52.4018 56.9997 52.1301 56.546 51.9466C56.0923 51.7632 55.6067 51.6715 55.1173 51.677H48.7528Z" fill="#03624C"></path><path d="M29.8951 51.6768C29.7727 51.6768 29.6553 51.6282 29.5688 51.5417C29.4822 51.4551 29.4336 51.3377 29.4336 51.2153V35.9076C29.4336 35.7852 29.4822 35.6678 29.5688 35.5812C29.6553 35.4947 29.7727 35.446 29.8951 35.446C30.0175 35.446 30.1349 35.4947 30.2215 35.5812C30.308 35.6678 30.3567 35.7852 30.3567 35.9076V51.2167C30.3563 51.3389 30.3075 51.4559 30.221 51.5422C30.1345 51.6284 30.0173 51.6768 29.8951 51.6768Z" fill="#03624C"></path><path d="M51.9343 51.6768C51.8119 51.6768 51.6945 51.6282 51.6079 51.5416C51.5214 51.4551 51.4727 51.3377 51.4727 51.2153C51.4704 49.218 50.676 47.3032 49.2636 45.8909C47.8513 44.4787 45.9364 43.6843 43.9391 43.6821H15.8469C13.8496 43.6843 11.9348 44.4787 10.5225 45.8909C9.11027 47.3032 8.31589 49.218 8.31369 51.2153C8.31369 51.3377 8.26507 51.4551 8.17851 51.5416C8.09196 51.6282 7.97457 51.6768 7.85216 51.6768C7.72975 51.6768 7.61236 51.6282 7.52581 51.5416C7.43925 51.4551 7.39062 51.3377 7.39062 51.2153C7.39307 48.9733 8.28478 46.8238 9.8701 45.2385C11.4554 43.6532 13.6049 42.7615 15.8469 42.759H43.9391C46.1811 42.7615 48.3307 43.6532 49.916 45.2385C51.5014 46.8238 52.3933 48.9733 52.3958 51.2153C52.3958 51.3377 52.3472 51.4551 52.2606 51.5416C52.1741 51.6282 52.0567 51.6768 51.9343 51.6768Z" fill="#03624C"></path></svg>