<svg xmlns="http://www.w3.org/2000/svg" width="62" height="60" viewBox="0 0 62 60" fill="none"><path d="M58.0104 49.9026H3.45533C2.53605 49.8983 1.656 49.5296 1.00823 48.8773C0.360458 48.2251 -0.002129 47.3425 9.40518e-06 46.4232V3.47943C-0.002129 2.56015 0.360458 1.67755 1.00823 1.02526C1.656 0.372971 2.53605 0.00425463 3.45533 0H58.0104C58.9297 0.00425463 59.8097 0.372971 60.4575 1.02526C61.1053 1.67755 61.4679 2.56015 61.4657 3.47943V46.4232C61.4679 47.3425 61.1053 48.2251 60.4575 48.8773C59.8097 49.5296 58.9297 49.8983 58.0104 49.9026ZM3.45533 0.945627C2.78677 0.949629 2.14709 1.21864 1.67661 1.69364C1.20612 2.16865 0.943245 2.81087 0.945636 3.47943V46.4232C0.943245 47.0917 1.20612 47.734 1.67661 48.209C2.14709 48.684 2.78677 48.953 3.45533 48.957H58.0104C58.679 48.953 59.3186 48.684 59.7891 48.209C60.2596 47.734 60.5225 47.0917 60.5201 46.4232V3.47943C60.5225 2.81087 60.2596 2.16865 59.7891 1.69364C59.3186 1.21864 58.679 0.949629 58.0104 0.945627H3.45533Z" fill="#03624C"></path><path d="M60.9929 40.2728H0.472813C0.347415 40.2728 0.227154 40.223 0.138484 40.1343C0.0498142 40.0456 0 39.9254 0 39.8C0 39.6746 0.0498142 39.5543 0.138484 39.4656C0.227154 39.377 0.347415 39.3271 0.472813 39.3271H60.9929C61.1183 39.3271 61.2386 39.377 61.3272 39.4656C61.4159 39.5543 61.4657 39.6746 61.4657 39.8C61.4657 39.9254 61.4159 40.0456 61.3272 40.1343C61.2386 40.223 61.1183 40.2728 60.9929 40.2728Z" fill="#03624C"></path><path d="M42.5549 60.0001H19.387C19.2946 60.0001 19.2043 59.9731 19.1271 59.9223C19.0499 59.8715 18.9892 59.7992 18.9527 59.7144C18.9161 59.6295 18.9052 59.5358 18.9213 59.4448C18.9374 59.3538 18.9798 59.2696 19.0433 59.2024L23.4636 54.5249V49.4298C23.4636 49.3044 23.5134 49.1842 23.6021 49.0955C23.6908 49.0068 23.811 48.957 23.9364 48.957C24.0618 48.957 24.1821 49.0068 24.2708 49.0955C24.3594 49.1842 24.4093 49.3044 24.4093 49.4298V54.7131C24.4093 54.8338 24.3631 54.9501 24.2802 55.0379L20.4844 59.0544H41.4561L37.5762 54.949C37.4932 54.8612 37.447 54.745 37.4471 54.6242V49.4298C37.4471 49.3044 37.4969 49.1842 37.5856 49.0955C37.6742 49.0068 37.7945 48.957 37.9199 48.957C38.0453 48.957 38.1656 49.0068 38.2542 49.0955C38.3429 49.1842 38.3927 49.3044 38.3927 49.4298V54.436L42.8972 59.2024C42.9606 59.2695 43.003 59.3536 43.0191 59.4445C43.0353 59.5353 43.0245 59.6289 42.9881 59.7137C42.9517 59.7985 42.8913 59.8708 42.8143 59.9217C42.7374 59.9726 42.6472 59.9998 42.5549 60.0001Z" fill="#03624C"></path><path d="M30.7373 47.1783C30.1919 47.1832 29.6573 47.026 29.2014 46.7264C28.7455 46.4269 28.389 45.9986 28.1771 45.496C27.9652 44.9934 27.9074 44.4391 28.0112 43.9036C28.115 43.3682 28.3756 42.8756 28.7599 42.4885C29.1442 42.1015 29.6349 41.8374 30.1697 41.7298C30.7044 41.6222 31.2591 41.6761 31.7632 41.8844C32.2673 42.0928 32.6981 42.4463 33.0008 42.9C33.3036 43.3537 33.4646 43.8872 33.4635 44.4326C33.4636 45.1575 33.1769 45.8529 32.6662 46.3673C32.1555 46.8816 31.4621 47.1732 30.7373 47.1783ZM30.7373 42.6218C30.3794 42.6168 30.028 42.7183 29.7279 42.9135C29.4278 43.1086 29.1925 43.3885 29.0518 43.7177C28.9112 44.0469 28.8715 44.4104 28.9379 44.7622C29.0043 45.1139 29.1737 45.438 29.4247 45.6933C29.6757 45.9485 29.9969 46.1234 30.3475 46.1957C30.6981 46.268 31.0622 46.2345 31.3937 46.0994C31.7252 45.9643 32.0091 45.7337 32.2092 45.4369C32.4094 45.1402 32.5168 44.7906 32.5179 44.4326C32.5191 43.9575 32.3327 43.501 31.9993 43.1624C31.666 42.8238 31.2124 42.6304 30.7373 42.6241V42.6218Z" fill="#03624C"></path><path d="M7.64124 35.1319C6.88645 35.1321 6.14856 34.9084 5.52089 34.4892C4.89321 34.07 4.40395 33.4741 4.11497 32.7768C3.826 32.0796 3.75029 31.3122 3.89743 30.5719C4.04457 29.8316 4.40794 29.1516 4.94159 28.6178C5.47524 28.084 6.1552 27.7205 6.89547 27.5732C7.63574 27.4258 8.40308 27.5013 9.10043 27.7902C9.79778 28.079 10.3938 28.5681 10.8132 29.1956C11.2325 29.8232 11.4564 30.561 11.4564 31.3158C11.4552 32.3274 11.053 33.2972 10.3378 34.0126C9.62256 34.728 8.65282 35.1305 7.64124 35.1319ZM7.64124 28.4459C7.07346 28.4457 6.51838 28.6139 6.0462 28.9292C5.57402 29.2445 5.20596 29.6928 4.98857 30.2173C4.77118 30.7418 4.71423 31.319 4.82492 31.8759C4.93561 32.4328 5.20897 32.9443 5.61041 33.3459C6.01186 33.7474 6.52337 34.0208 7.08024 34.1316C7.63711 34.2424 8.21433 34.1855 8.73888 33.9682C9.26343 33.7509 9.71176 33.3829 10.0272 32.9108C10.3425 32.4387 10.5108 31.8836 10.5107 31.3158C10.5097 30.5551 10.2071 29.8257 9.66921 29.2877C9.1313 28.7497 8.40202 28.447 7.64124 28.4459Z" fill="#03624C"></path><path d="M14.5417 15.9325C13.7871 15.9324 13.0494 15.7085 12.422 15.2892C11.7946 14.8699 11.3056 14.2739 11.0169 13.5767C10.7282 12.8795 10.6527 12.1123 10.7999 11.3722C10.9472 10.6321 11.3107 9.95224 11.8443 9.41867C12.3779 8.88509 13.0578 8.52174 13.798 8.37455C14.5381 8.22736 15.3053 8.30295 16.0024 8.59176C16.6996 8.88057 17.2955 9.36963 17.7148 9.99709C18.134 10.6246 18.3578 11.3622 18.3578 12.1169C18.3565 13.1285 17.9541 14.0984 17.2387 14.8137C16.5233 15.529 15.5534 15.9314 14.5417 15.9325ZM14.5417 9.2469C13.9741 9.24699 13.4193 9.41539 12.9473 9.73081C12.4754 10.0462 12.1077 10.4945 11.8905 11.0189C11.6734 11.5433 11.6166 12.1204 11.7274 12.6771C11.8382 13.2338 12.1116 13.7451 12.513 14.1464C12.9143 14.5477 13.4257 14.821 13.9824 14.9317C14.5391 15.0424 15.1162 14.9856 15.6406 14.7683C16.165 14.5511 16.6132 14.1833 16.9285 13.7113C17.2438 13.2393 17.4121 12.6845 17.4121 12.1169C17.4111 11.3559 17.1084 10.6265 16.5703 10.0884C16.0322 9.55041 15.3026 9.24777 14.5417 9.2469Z" fill="#03624C"></path><path d="M28.7692 29.5035C28.0145 29.5036 27.2768 29.2799 26.6492 28.8607C26.0217 28.4415 25.5326 27.8456 25.2437 27.1484C24.9548 26.4512 24.8792 25.684 25.0264 24.9438C25.1736 24.2036 25.5369 23.5237 26.0705 22.99C26.6041 22.4564 27.284 22.0929 28.0242 21.9457C28.7643 21.7984 29.5316 21.8739 30.2288 22.1627C30.926 22.4515 31.522 22.9405 31.9413 23.568C32.3605 24.1955 32.5843 24.9332 32.5843 25.6879C32.5832 26.6995 32.1809 27.6692 31.4657 28.3845C30.7505 29.0999 29.7807 29.5023 28.7692 29.5035ZM28.7692 22.8179C28.2016 22.8178 27.6466 22.9861 27.1746 23.3014C26.7026 23.6167 26.3346 24.0649 26.1174 24.5893C25.9001 25.1137 25.8432 25.6908 25.9538 26.2475C26.0645 26.8043 26.3378 27.3157 26.7392 27.7171C27.1405 28.1186 27.6519 28.3919 28.2087 28.5027C28.7654 28.6135 29.3425 28.5567 29.8669 28.3395C30.3914 28.1223 30.8396 27.7544 31.155 27.2824C31.4704 26.8105 31.6387 26.2556 31.6387 25.6879C31.6378 24.9271 31.3352 24.1977 30.7973 23.6597C30.2594 23.1217 29.53 22.8189 28.7692 22.8179Z" fill="#03624C"></path><path d="M39.4172 17.6705C38.6625 17.6705 37.9248 17.4467 37.2973 17.0275C36.6699 16.6082 36.1808 16.0123 35.892 15.3151C35.6032 14.6179 35.5277 13.8507 35.6749 13.1105C35.8221 12.3704 36.1855 11.6905 36.7191 11.1569C37.2528 10.6233 37.9326 10.2599 38.6728 10.1126C39.4129 9.9654 40.1801 10.041 40.8773 10.3298C41.5745 10.6185 42.1705 11.1076 42.5897 11.7351C43.009 12.3625 43.2328 13.1003 43.2328 13.8549C43.2316 14.8665 42.8293 15.8364 42.114 16.5517C41.3986 17.267 40.4288 17.6694 39.4172 17.6705ZM39.4172 10.9849C38.8495 10.9849 38.2947 11.1533 37.8227 11.4686C37.3507 11.784 36.9829 12.2322 36.7657 12.7566C36.5484 13.281 36.4916 13.8581 36.6023 14.4148C36.7131 14.9715 36.9864 15.4829 37.3878 15.8843C37.7892 16.2857 38.3005 16.559 38.8573 16.6697C39.414 16.7805 39.991 16.7236 40.5155 16.5064C41.0399 16.2892 41.4881 15.9213 41.8035 15.4494C42.1188 14.9774 42.2871 14.4225 42.2871 13.8549C42.2863 13.094 41.9836 12.3645 41.4456 11.8265C40.9075 11.2885 40.1781 10.9858 39.4172 10.9849Z" fill="#03624C"></path><path d="M53.8268 31.7887C53.0722 31.7886 52.3346 31.5647 51.7071 31.1454C51.0797 30.7261 50.5908 30.1301 50.302 29.4329C50.0133 28.7357 49.9378 27.9685 50.0851 27.2284C50.2324 26.4883 50.5958 25.8084 51.1295 25.2749C51.6631 24.7413 52.343 24.3779 53.0831 24.2308C53.8233 24.0836 54.5904 24.1592 55.2876 24.448C55.9848 24.7368 56.5807 25.2258 56.9999 25.8533C57.4192 26.4808 57.6429 27.2184 57.6429 27.9731C57.6418 28.9848 57.2394 29.9547 56.524 30.67C55.8085 31.3854 54.8385 31.7877 53.8268 31.7887ZM53.8268 25.1031C53.2592 25.1032 52.7044 25.2716 52.2325 25.587C51.7606 25.9024 51.3928 26.3507 51.1757 26.8751C50.9585 27.3995 50.9018 27.9766 51.0126 28.5333C51.1233 29.09 51.3967 29.6013 51.7981 30.0026C52.1995 30.4039 52.7109 30.6772 53.2676 30.7879C53.8243 30.8986 54.4013 30.8418 54.9257 30.6245C55.4501 30.4073 55.8983 30.0395 56.2137 29.5675C56.529 29.0955 56.6973 28.5407 56.6973 27.9731C56.6964 27.2121 56.3937 26.4825 55.8556 25.9445C55.3174 25.4064 54.5878 25.1038 53.8268 25.1031Z" fill="#03624C"></path><path d="M31.0078 23.6785C30.9165 23.6785 30.827 23.652 30.7504 23.6022C30.6738 23.5524 30.6132 23.4815 30.576 23.398C30.5389 23.3145 30.5267 23.222 30.541 23.1318C30.5553 23.0415 30.5954 22.9573 30.6565 22.8894L36.8334 16.0194C36.8745 15.972 36.9247 15.9332 36.981 15.9054C37.0373 15.8776 37.0986 15.8612 37.1613 15.8574C37.2239 15.8535 37.2868 15.8621 37.3461 15.8828C37.4054 15.9034 37.46 15.9357 37.5067 15.9777C37.5534 16.0197 37.5912 16.0705 37.618 16.1273C37.6449 16.1841 37.6601 16.2456 37.6629 16.3084C37.6657 16.3711 37.6559 16.4338 37.6342 16.4927C37.6125 16.5516 37.5793 16.6056 37.5365 16.6516L31.3596 23.5225C31.3152 23.5717 31.2609 23.611 31.2003 23.6379C31.1397 23.6648 31.0741 23.6786 31.0078 23.6785Z" fill="#03624C"></path><path d="M51.4362 26.104C51.3123 26.1043 51.1934 26.0557 51.1052 25.9688L41.474 16.5315C41.3844 16.4437 41.3333 16.3239 41.3321 16.1985C41.3308 16.0731 41.3794 15.9523 41.4671 15.8627C41.5549 15.7731 41.6747 15.722 41.8001 15.7207C41.9255 15.7194 42.0463 15.768 42.1359 15.8558L51.7671 25.2932C51.8344 25.3589 51.8804 25.4431 51.8995 25.5352C51.9186 25.6272 51.9099 25.7229 51.8743 25.8099C51.8388 25.8969 51.7782 25.9714 51.7001 26.0238C51.6221 26.0762 51.5302 26.1041 51.4362 26.104Z" fill="#03624C"></path><path d="M8.76962 28.643C8.69379 28.643 8.61907 28.6247 8.55177 28.5898C8.48447 28.5548 8.42657 28.5042 8.38294 28.4422C8.33932 28.3802 8.31125 28.3085 8.30112 28.2334C8.29098 28.1582 8.29907 28.0817 8.3247 28.0104L12.9677 15.1026C13.0102 14.9846 13.0978 14.8883 13.2112 14.8348C13.3247 14.7814 13.4547 14.7753 13.5727 14.8177C13.6907 14.8602 13.787 14.9477 13.8404 15.0612C13.8938 15.1746 13.9 15.3047 13.8576 15.4227L9.21454 28.3305C9.18155 28.422 9.12112 28.5012 9.04149 28.5571C8.96187 28.613 8.86693 28.643 8.76962 28.643Z" fill="#03624C"></path><path d="M26.3553 23.8534C26.2338 23.8534 26.117 23.8067 26.0291 23.7229L16.6343 14.7674C16.5878 14.7249 16.5503 14.6736 16.524 14.6164C16.4976 14.5593 16.4829 14.4975 16.4807 14.4346C16.4786 14.3717 16.489 14.309 16.5114 14.2502C16.5338 14.1914 16.5677 14.1376 16.6111 14.0921C16.6546 14.0465 16.7066 14.0101 16.7643 13.985C16.822 13.9598 16.8842 13.9464 16.9471 13.9456C17.01 13.9448 17.0725 13.9565 17.1308 13.9801C17.1891 14.0038 17.2422 14.0388 17.2868 14.0832L26.6816 23.0383C26.75 23.1035 26.7973 23.1876 26.8174 23.28C26.8375 23.3723 26.8295 23.4686 26.7944 23.5563C26.7593 23.644 26.6987 23.7192 26.6204 23.7722C26.5422 23.8251 26.4498 23.8534 26.3553 23.8534Z" fill="#03624C"></path></svg>