<svg xmlns="http://www.w3.org/2000/svg" width="60" height="60" viewBox="0 0 60 60" fill="none"><path d="M51.2284 56.1922H8.77336C7.45707 56.1908 6.19512 55.6672 5.26436 54.7365C4.3336 53.8057 3.81006 52.5437 3.80859 51.2275V8.77239C3.81006 7.4561 4.3336 6.19414 5.26436 5.26338C6.19512 4.33263 7.45707 3.80908 8.77336 3.80762H51.2284C52.5447 3.80908 53.8067 4.33263 54.7374 5.26338C55.6682 6.19414 56.1917 7.4561 56.1932 8.77239V51.2275C56.1917 52.5437 55.6682 53.8057 54.7374 54.7365C53.8067 55.6672 52.5447 56.1908 51.2284 56.1922ZM8.77336 4.73069C7.70181 4.73192 6.6745 5.15813 5.9168 5.91583C5.1591 6.67353 4.73289 7.70084 4.73167 8.77239V51.2275C4.73289 52.299 5.1591 53.3263 5.9168 54.084C6.6745 54.8417 7.70181 55.2679 8.77336 55.2692H51.2284C52.3 55.2679 53.3273 54.8417 54.085 54.084C54.8427 53.3263 55.2689 52.299 55.2701 51.2275V8.77239C55.2689 7.70084 54.8427 6.67353 54.085 5.91583C53.3273 5.15813 52.3 4.73192 51.2284 4.73069H8.77336Z" fill="#03624C"></path><path d="M23.8868 56.1922C23.8 56.1921 23.7149 56.1675 23.6415 56.1213C23.568 56.075 23.5091 56.009 23.4714 55.9308C23.4338 55.8526 23.419 55.7653 23.4287 55.6791C23.4384 55.5928 23.4722 55.511 23.5263 55.4431L44.8983 28.588C44.9443 28.5311 45.0031 28.4857 45.0699 28.4555C45.1367 28.4254 45.2096 28.4113 45.2828 28.4145C45.3561 28.4182 45.4274 28.4394 45.4909 28.4762C45.5544 28.5131 45.6082 28.5645 45.6478 28.6263L56.1197 44.9648C56.1524 45.0158 56.1747 45.0728 56.1854 45.1325C56.1961 45.1921 56.1949 45.2533 56.1819 45.3125C56.169 45.3717 56.1445 45.4278 56.1098 45.4776C56.0752 45.5273 56.0311 45.5697 55.9801 45.6024C55.929 45.6351 55.8721 45.6574 55.8124 45.6681C55.7527 45.6788 55.6916 45.6776 55.6323 45.6647C55.5731 45.6517 55.5171 45.6272 55.4673 45.5926C55.4176 45.5579 55.3752 45.5138 55.3425 45.4628L45.2191 29.6676L24.2481 56.0182C24.2049 56.0725 24.1499 56.1164 24.0873 56.1465C24.0248 56.1766 23.9562 56.1922 23.8868 56.1922Z" fill="#03624C"></path><path d="M4.26978 51.6889C4.18838 51.6889 4.10845 51.6673 4.03809 51.6264C3.96773 51.5854 3.90945 51.5266 3.86914 51.4559C3.82884 51.3852 3.80796 51.3051 3.80861 51.2237C3.80926 51.1423 3.83143 51.0625 3.87286 50.9925L20.9165 22.1509C20.9571 22.0822 21.0147 22.0252 21.0839 21.9854C21.1531 21.9456 21.2314 21.9244 21.3112 21.9239C21.3913 21.921 21.4707 21.9401 21.5408 21.9792C21.6108 22.0182 21.6688 22.0757 21.7085 22.1454L34.327 42.8685C34.3907 42.9731 34.4102 43.0987 34.3812 43.2176C34.3523 43.3366 34.2772 43.4392 34.1726 43.5029C34.068 43.5665 33.9424 43.586 33.8235 43.5571C33.7045 43.5281 33.6019 43.4531 33.5382 43.3485L21.3199 23.2826L4.66762 51.4614C4.62687 51.5307 4.56872 51.5881 4.49894 51.628C4.42916 51.668 4.35017 51.6889 4.26978 51.6889Z" fill="#03624C"></path><path d="M11.6111 15.4614C10.7673 15.4617 9.94238 15.2117 9.24065 14.7431C8.53892 14.2745 7.99192 13.6083 7.66884 12.8288C7.34575 12.0493 7.2611 11.1915 7.42559 10.3639C7.59007 9.53624 7.99631 8.77598 8.59291 8.17925C9.18951 7.58252 9.94968 7.17612 10.7773 7.01146C11.6049 6.8468 12.4627 6.93126 13.2423 7.25418C14.0219 7.57709 14.6882 8.12394 15.1569 8.82557C15.6257 9.5272 15.8758 10.3521 15.8758 11.1959C15.8743 12.3266 15.4245 13.4106 14.6251 14.2102C13.8257 15.0098 12.7418 15.4597 11.6111 15.4614ZM11.6111 7.85252C10.9499 7.85225 10.3035 8.04806 9.75358 8.4152C9.20367 8.78234 8.77498 9.30431 8.52174 9.9151C8.26849 10.5259 8.20207 11.1981 8.33086 11.8466C8.45965 12.4951 8.77788 13.0909 9.2453 13.5586C9.71271 14.0263 10.3083 14.3448 10.9568 14.474C11.6053 14.6031 12.2775 14.5371 12.8884 14.2842C13.4993 14.0313 14.0215 13.6029 14.389 13.0532C14.7564 12.5034 14.9526 11.8571 14.9527 11.1959C14.9517 10.3098 14.5994 9.46034 13.973 8.83367C13.3466 8.207 12.4972 7.85387 11.6111 7.85252Z" fill="#03624C"></path><path d="M52.5955 60H7.40446C5.44135 59.9978 3.55927 59.217 2.17115 57.8289C0.783016 56.4407 0.00219888 54.5587 0 52.5955V7.40446C0.00219888 5.44135 0.783016 3.55927 2.17115 2.17115C3.55927 0.783016 5.44135 0.00219888 7.40446 0H52.5955C54.5587 0.00219888 56.4407 0.783016 57.8289 2.17115C59.217 3.55927 59.9978 5.44135 60 7.40446V52.5955C59.9978 54.5587 59.217 56.4407 57.8289 57.8289C56.4407 59.217 54.5587 59.9978 52.5955 60ZM7.40446 0.923077C5.68609 0.925031 4.03866 1.60852 2.82359 2.82359C1.60852 4.03866 0.925031 5.68609 0.923077 7.40446V52.5955C0.925031 54.3139 1.60852 55.9613 2.82359 57.1764C4.03866 58.3915 5.68609 59.075 7.40446 59.0769H52.5955C54.3139 59.075 55.9613 58.3915 57.1764 57.1764C58.3915 55.9613 59.075 54.3139 59.0769 52.5955V7.40446C59.075 5.68609 58.3915 4.03866 57.1764 2.82359C55.9613 1.60852 54.3139 0.925031 52.5955 0.923077H7.40446Z" fill="#03624C"></path></svg>