<svg xmlns="http://www.w3.org/2000/svg" width="49" height="60" viewBox="0 0 49 60" fill="none"><path d="M32.6441 46.6867H16.2881C16.1793 46.6866 16.0741 46.6482 15.9909 46.5781C15.9077 46.508 15.852 46.4108 15.8335 46.3036C15.2016 42.6515 13.6019 40.7882 11.1793 37.9682C10.8563 37.5939 10.5216 37.203 10.1723 36.7895C7.86403 34.058 6.38637 30.7226 5.91403 27.1778C5.4417 23.6329 5.99447 20.027 7.50695 16.7864C9.01943 13.5458 11.4284 10.8062 14.4488 8.89159C17.4692 6.97695 20.9748 5.9674 24.551 5.98234C28.1271 5.99728 31.6241 7.03609 34.6285 8.9759C37.6328 10.9157 40.0188 13.6754 41.5041 16.9285C42.9895 20.1816 43.5121 23.792 43.0101 27.3328C42.5082 30.8735 41.0027 34.1965 38.6717 36.9086C38.386 37.2404 38.1101 37.5575 37.8437 37.8635C35.2748 40.8145 33.7241 42.5961 33.101 46.3018C33.0828 46.4097 33.0269 46.5076 32.9432 46.5781C32.8595 46.6486 32.7535 46.6871 32.6441 46.6867ZM16.6721 45.7636H32.2587C32.9704 42.0556 34.649 40.1273 37.1473 37.2575C37.4127 36.9524 37.6877 36.6367 37.972 36.3062C40.1894 33.7275 41.6218 30.5676 42.0997 27.2004C42.5776 23.8331 42.081 20.3994 40.6688 17.3056C39.2565 14.2117 36.9877 11.587 34.1306 9.74205C31.2735 7.89712 27.9478 6.90911 24.5468 6.89492C21.1459 6.88073 17.812 7.84094 14.9396 9.66196C12.0673 11.483 9.77655 14.0886 8.33852 17.1706C6.90049 20.2526 6.37531 23.682 6.82509 27.0531C7.27487 30.4243 8.68081 33.596 10.8766 36.1932C11.225 36.6053 11.5592 36.9944 11.879 37.3669C14.3164 40.2053 15.9562 42.1129 16.6702 45.7636H16.6721Z" fill="#03624C"></path><path d="M25.6306 59.9998H23.3132C22.1294 60.0081 20.9821 59.5902 20.081 58.8225C19.1798 58.0547 18.585 56.9884 18.4052 55.8183C18.3947 55.7579 18.3964 55.696 18.4101 55.6363C18.4239 55.5766 18.4493 55.5202 18.4851 55.4704C18.5208 55.4207 18.5661 55.3785 18.6183 55.3464C18.6705 55.3143 18.7286 55.293 18.7891 55.2835C18.8497 55.2741 18.9115 55.2769 18.971 55.2916C19.0304 55.3064 19.0864 55.3328 19.1355 55.3694C19.1847 55.406 19.2261 55.452 19.2573 55.5047C19.2884 55.5575 19.3088 55.6159 19.3172 55.6766C19.4736 56.6243 19.9609 57.486 20.6925 58.1085C21.4241 58.731 22.3526 59.0741 23.3132 59.0767H25.6306C26.592 59.0826 27.5235 58.7423 28.2548 58.118C28.986 57.4937 29.4682 56.6271 29.6132 55.6766C29.632 55.5556 29.698 55.447 29.7969 55.3747C29.8957 55.3025 30.0192 55.2724 30.1402 55.2912C30.2612 55.31 30.3698 55.3761 30.4421 55.4749C30.5144 55.5738 30.5444 55.6973 30.5256 55.8183C30.3477 56.9869 29.7552 58.0524 28.8564 58.8201C27.9576 59.5879 26.8126 60.0066 25.6306 59.9998Z" fill="#03624C"></path><path d="M32.706 49.858H16.2402C15.6968 49.858 15.1757 49.6422 14.7915 49.258C14.4073 48.8737 14.1914 48.3526 14.1914 47.8093C14.1914 47.2659 14.4073 46.7448 14.7915 46.3606C15.1757 45.9763 15.6968 45.7605 16.2402 45.7605H32.706C33.2493 45.7605 33.7705 45.9763 34.1547 46.3606C34.5389 46.7448 34.7547 47.2659 34.7547 47.8093C34.7547 48.3526 34.5389 48.8737 34.1547 49.258C33.7705 49.6422 33.2493 49.858 32.706 49.858ZM16.2402 46.6836C15.9416 46.6836 15.6553 46.8022 15.4442 47.0133C15.2331 47.2244 15.1145 47.5107 15.1145 47.8093C15.1145 48.1078 15.2331 48.3941 15.4442 48.6052C15.6553 48.8164 15.9416 48.935 16.2402 48.935H32.706C33.0045 48.935 33.2909 48.8164 33.502 48.6052C33.7131 48.3941 33.8317 48.1078 33.8317 47.8093C33.8317 47.5107 33.7131 47.2244 33.502 47.0133C33.2909 46.8022 33.0045 46.6836 32.706 46.6836H16.2402Z" fill="#03624C"></path><path d="M32.7055 53.0306H16.2397C15.9681 53.0347 15.6984 52.9848 15.4462 52.8836C15.1941 52.7825 14.9647 52.6323 14.7711 52.4416C14.5776 52.251 14.424 52.0238 14.3191 51.7732C14.2142 51.5227 14.1602 51.2537 14.1602 50.9821C14.1602 50.7105 14.2142 50.4416 14.3191 50.191C14.424 49.9404 14.5776 49.7132 14.7711 49.5226C14.9647 49.332 15.1941 49.1817 15.4462 49.0806C15.6984 48.9795 15.9681 48.9295 16.2397 48.9336H32.7055C32.9771 48.9295 33.2468 48.9795 33.4989 49.0806C33.751 49.1817 33.9805 49.332 34.174 49.5226C34.3675 49.7132 34.5212 49.9404 34.6261 50.191C34.731 50.4416 34.785 50.7105 34.785 50.9821C34.785 51.2537 34.731 51.5227 34.6261 51.7732C34.5212 52.0238 34.3675 52.251 34.174 52.4416C33.9805 52.6323 33.751 52.7825 33.4989 52.8836C33.2468 52.9848 32.9771 53.0347 32.7055 53.0306ZM16.2397 49.8567C16.09 49.8536 15.9411 49.8805 15.8019 49.9357C15.6627 49.9909 15.5359 50.0733 15.429 50.1781C15.322 50.2829 15.2371 50.408 15.1791 50.5461C15.1211 50.6841 15.0912 50.8324 15.0912 50.9821C15.0912 51.1319 15.1211 51.2801 15.1791 51.4182C15.2371 51.5562 15.322 51.6813 15.429 51.7861C15.5359 51.8909 15.6627 51.9733 15.8019 52.0285C15.9411 52.0837 16.09 52.1106 16.2397 52.1076H32.7055C32.8552 52.1106 33.004 52.0837 33.1432 52.0285C33.2824 51.9733 33.4092 51.8909 33.5162 51.7861C33.6231 51.6813 33.7081 51.5562 33.7661 51.4182C33.8241 51.2801 33.854 51.1319 33.854 50.9821C33.854 50.8324 33.8241 50.6841 33.7661 50.5461C33.7081 50.408 33.6231 50.2829 33.5162 50.1781C33.4092 50.0733 33.2824 49.9909 33.1432 49.9357C33.004 49.8805 32.8552 49.8536 32.7055 49.8567H16.2397Z" fill="#03624C"></path><path d="M32.706 56.2064H16.2402C15.6968 56.2064 15.1757 55.9906 14.7915 55.6063C14.4073 55.2221 14.1914 54.701 14.1914 54.1577C14.1914 53.6143 14.4073 53.0932 14.7915 52.709C15.1757 52.3247 15.6968 52.1089 16.2402 52.1089H32.706C33.2493 52.1089 33.7705 52.3247 34.1547 52.709C34.5389 53.0932 34.7547 53.6143 34.7547 54.1577C34.7547 54.701 34.5389 55.2221 34.1547 55.6063C33.7705 55.9906 33.2493 56.2064 32.706 56.2064ZM16.2402 53.0306C15.9416 53.0306 15.6553 53.1492 15.4442 53.3603C15.2331 53.5714 15.1145 53.8577 15.1145 54.1563C15.1145 54.4548 15.2331 54.7411 15.4442 54.9522C15.6553 55.1634 15.9416 55.282 16.2402 55.282H32.706C33.0045 55.282 33.2909 55.1634 33.502 54.9522C33.7131 54.7411 33.8317 54.4548 33.8317 54.1563C33.8317 53.8577 33.7131 53.5714 33.502 53.3603C33.2909 53.1492 33.0045 53.0306 32.706 53.0306H16.2402Z" fill="#03624C"></path><path d="M25.5278 14.7456H23.4108C23.2883 14.7456 23.171 14.697 23.0844 14.6104C22.9978 14.5238 22.9492 14.4065 22.9492 14.284C22.9492 14.1616 22.9978 14.0442 23.0844 13.9577C23.171 13.8711 23.2883 13.8225 23.4108 13.8225H25.5278C25.6502 13.8225 25.7676 13.8711 25.8542 13.9577C25.9407 14.0442 25.9894 14.1616 25.9894 14.284C25.9894 14.4065 25.9407 14.5238 25.8542 14.6104C25.7676 14.697 25.6502 14.7456 25.5278 14.7456Z" fill="#03624C"></path><path d="M25.5278 32.9077H23.4108C23.2883 32.9077 23.171 32.8591 23.0844 32.7725C22.9978 32.686 22.9492 32.5686 22.9492 32.4462C22.9492 32.3237 22.9978 32.2064 23.0844 32.1198C23.171 32.0332 23.2883 31.9846 23.4108 31.9846H25.5278C25.6502 31.9846 25.7676 32.0332 25.8542 32.1198C25.9407 32.2064 25.9894 32.3237 25.9894 32.4462C25.9894 32.5686 25.9407 32.686 25.8542 32.7725C25.7676 32.8591 25.6502 32.9077 25.5278 32.9077Z" fill="#03624C"></path><path d="M18.9949 14.7456C18.8902 14.7454 18.7886 14.7096 18.7069 14.644C18.6252 14.5784 18.5682 14.4869 18.5454 14.3847C18.4767 14.1111 18.3333 13.862 18.1313 13.6651C17.9293 13.4682 17.6765 13.3313 17.4013 13.2696C17.2839 13.2394 17.1831 13.1643 17.1206 13.0604C17.0582 12.9565 17.0391 12.8322 17.0676 12.7144C17.096 12.5966 17.1696 12.4946 17.2726 12.4306C17.3755 12.3667 17.4995 12.3457 17.6177 12.3724C18.0604 12.4751 18.4658 12.6989 18.7886 13.0187C19.1115 13.3385 19.339 13.7418 19.4459 14.1835C19.4591 14.2426 19.4605 14.3038 19.4501 14.3635C19.4397 14.4232 19.4176 14.4803 19.3851 14.5315C19.3526 14.5826 19.3103 14.6269 19.2608 14.6617C19.2112 14.6966 19.1552 14.7213 19.096 14.7345C19.0628 14.7419 19.0289 14.7456 18.9949 14.7456Z" fill="#03624C"></path><path d="M14.9683 19.3053C14.365 19.3074 13.7802 19.0968 13.3169 18.7104C13.2705 18.6714 13.2322 18.6236 13.2043 18.5698C13.1764 18.516 13.1593 18.4573 13.1541 18.3969C13.1488 18.3365 13.1556 18.2757 13.1738 18.2179C13.1921 18.1601 13.2216 18.1065 13.2606 18.0601C13.2996 18.0137 13.3474 17.9754 13.4011 17.9475C13.4549 17.9195 13.5137 17.9025 13.5741 17.8972C13.6345 17.892 13.6953 17.8987 13.7531 17.917C13.8109 17.9353 13.8645 17.9648 13.9109 18.0038C14.2078 18.2505 14.5823 18.3845 14.9683 18.3822C15.0907 18.3822 15.2081 18.4308 15.2946 18.5174C15.3812 18.604 15.4298 18.7213 15.4298 18.8438C15.4298 18.9662 15.3812 19.0836 15.2946 19.1701C15.2081 19.2567 15.0907 19.3053 14.9683 19.3053Z" fill="#03624C"></path><path d="M13.8381 23.5805C13.3349 23.5809 12.8391 23.4596 12.393 23.2269C12.3373 23.1999 12.2877 23.1621 12.247 23.1155C12.2062 23.0689 12.1753 23.0147 12.156 22.9559C12.1366 22.8972 12.1293 22.8352 12.1344 22.7735C12.1395 22.7119 12.1569 22.6519 12.1857 22.5971C12.2144 22.5424 12.2539 22.494 12.3017 22.4547C12.3495 22.4155 12.4048 22.3863 12.4641 22.3689C12.5234 22.3514 12.5857 22.3461 12.6471 22.3531C12.7085 22.3602 12.7679 22.3795 12.8218 22.41C13.2851 22.6469 13.8162 22.7156 14.3245 22.6043C14.4439 22.5774 14.5691 22.599 14.6726 22.6644C14.7761 22.7298 14.8494 22.8336 14.8763 22.953C14.9032 23.0724 14.8816 23.1976 14.8162 23.3011C14.7508 23.4046 14.647 23.4778 14.5276 23.5048C14.3012 23.5553 14.07 23.5806 13.8381 23.5805Z" fill="#03624C"></path><path d="M18.2055 22.3892C18.086 22.3893 17.9712 22.3431 17.8852 22.2603C17.7991 22.1775 17.7485 22.0646 17.7439 21.9452C17.727 21.4718 17.8334 21.0022 18.0527 20.5823C18.2827 20.1431 18.6215 19.7701 19.0367 19.4991C19.0874 19.4657 19.1442 19.4427 19.2038 19.4313C19.2634 19.4199 19.3246 19.4204 19.384 19.4327C19.4435 19.4449 19.4999 19.4688 19.5501 19.5029C19.6003 19.537 19.6433 19.5806 19.6766 19.6313C19.7099 19.682 19.733 19.7388 19.7444 19.7984C19.7558 19.858 19.7553 19.9192 19.743 19.9786C19.7307 20.0381 19.7069 20.0945 19.6728 20.1447C19.6387 20.1949 19.5951 20.2379 19.5444 20.2712C19.2612 20.4558 19.0302 20.7101 18.8738 21.0097C18.7271 21.2871 18.6561 21.5984 18.6679 21.912C18.6703 21.9726 18.6607 22.033 18.6396 22.0899C18.6186 22.1468 18.5866 22.1989 18.5454 22.2434C18.5042 22.2879 18.4547 22.3238 18.3996 22.3492C18.3445 22.3745 18.285 22.3887 18.2244 22.3911L18.2055 22.3892Z" fill="#03624C"></path><path d="M19.2154 26.9077C19.1259 26.9077 19.0365 26.904 18.9472 26.8966C18.4463 26.8542 17.9632 26.6906 17.5396 26.4198C17.4886 26.387 17.4446 26.3444 17.4101 26.2946C17.3757 26.2447 17.3513 26.1886 17.3385 26.1293C17.3257 26.0701 17.3247 26.0089 17.3356 25.9492C17.3464 25.8896 17.3689 25.8327 17.4018 25.7817C17.4346 25.7308 17.4772 25.6868 17.527 25.6523C17.5769 25.6178 17.633 25.5935 17.6923 25.5807C17.7515 25.5679 17.8127 25.5669 17.8724 25.5778C17.932 25.5886 17.9889 25.6111 18.0399 25.644C18.3368 25.8333 18.6753 25.9475 19.0262 25.9767C19.3674 26.0058 19.7108 25.9557 20.0296 25.8304C20.1427 25.7873 20.2684 25.7903 20.3793 25.839C20.4903 25.8876 20.5777 25.9779 20.6226 26.0904C20.6676 26.2029 20.6665 26.3286 20.6196 26.4403C20.5727 26.552 20.4838 26.6408 20.372 26.6875C20.0039 26.8334 19.6114 26.9081 19.2154 26.9077Z" fill="#03624C"></path><path d="M14.1046 27.5205C13.8977 27.5209 13.6914 27.5012 13.4884 27.4614C13.3685 27.4375 13.263 27.3669 13.195 27.2653C13.1271 27.1636 13.1022 27.0392 13.126 26.9192C13.1497 26.7993 13.22 26.6937 13.3216 26.6255C13.4231 26.5574 13.5475 26.5323 13.6675 26.5559C14.0224 26.626 14.389 26.609 14.7359 26.5065C14.8532 26.4713 14.9796 26.4842 15.0874 26.5423C15.1951 26.6004 15.2754 26.6989 15.3106 26.8162C15.3457 26.9334 15.3328 27.0599 15.2747 27.1676C15.2166 27.2754 15.1181 27.3557 15.0009 27.3908C14.71 27.4773 14.408 27.521 14.1046 27.5205Z" fill="#03624C"></path><path d="M15.1365 31.8192C15.0759 31.8211 15.0155 31.8111 14.9587 31.7897C14.902 31.7682 14.8501 31.7358 14.8058 31.6943C14.7616 31.6528 14.726 31.603 14.7011 31.5477C14.6761 31.4925 14.6623 31.4328 14.6604 31.3722C14.6585 31.3116 14.6685 31.2512 14.69 31.1945C14.7114 31.1378 14.7438 31.0858 14.7853 31.0416C14.8268 30.9974 14.8766 30.9618 14.9319 30.9368C14.9871 30.9119 15.0468 30.8981 15.1074 30.8962C15.5246 30.8719 15.9257 30.7262 16.2612 30.4771C16.3097 30.4407 16.3649 30.4142 16.4236 30.3992C16.4823 30.3842 16.5434 30.3808 16.6034 30.3894C16.6634 30.398 16.7211 30.4183 16.7733 30.4492C16.8255 30.48 16.871 30.5209 16.9074 30.5694C16.9437 30.6179 16.9702 30.673 16.9852 30.7318C17.0003 30.7905 17.0036 30.8516 16.9951 30.9116C16.9865 30.9716 16.9662 31.0293 16.9353 31.0815C16.9044 31.1336 16.8636 31.1792 16.8151 31.2155C16.3361 31.5716 15.7636 31.7801 15.1678 31.8155L15.1365 31.8192Z" fill="#03624C"></path><path d="M18.747 34.594C18.6441 34.5941 18.5441 34.5598 18.4629 34.4965C18.3818 34.4332 18.3241 34.3446 18.299 34.2448C18.274 34.1449 18.283 34.0396 18.3247 33.9455C18.3664 33.8514 18.4384 33.7739 18.5292 33.7254C18.9378 33.5104 19.2587 33.1597 19.4366 32.7336C19.4827 32.6201 19.5719 32.5296 19.6848 32.4819C19.7976 32.4343 19.9247 32.4334 20.0382 32.4795C20.1517 32.5256 20.2422 32.6149 20.2898 32.7277C20.3375 32.8405 20.3384 32.9676 20.2923 33.0811C20.0326 33.7067 19.5631 34.2223 18.9644 34.5391C18.8977 34.5752 18.8229 34.5941 18.747 34.594Z" fill="#03624C"></path><path d="M23.4109 16.9757C23.3186 16.9758 23.2283 16.948 23.152 16.8959C22.8626 16.7005 22.5294 16.5795 22.182 16.5437C21.8346 16.5079 21.4837 16.5583 21.1605 16.6905C21.1029 16.7094 21.0422 16.7169 20.9817 16.7123C20.9213 16.7078 20.8623 16.6914 20.8082 16.6641C20.7541 16.6368 20.7059 16.599 20.6664 16.5531C20.6268 16.5071 20.5967 16.4539 20.5778 16.3963C20.5589 16.3387 20.5514 16.278 20.556 16.2175C20.5605 16.1571 20.5769 16.0981 20.6042 16.044C20.6316 15.9899 20.6693 15.9417 20.7152 15.9022C20.7612 15.8626 20.8144 15.8325 20.872 15.8136C21.3298 15.6383 21.823 15.5757 22.3101 15.6312C22.7971 15.6866 23.2637 15.8584 23.6703 16.132C23.752 16.1875 23.8136 16.2677 23.8463 16.3608C23.879 16.454 23.881 16.5551 23.852 16.6494C23.823 16.7438 23.7645 16.8263 23.6851 16.885C23.6057 16.9436 23.5096 16.9757 23.4109 16.9757Z" fill="#03624C"></path><path d="M22.0094 30.916C21.6216 30.9112 21.2373 30.8427 20.8717 30.7134C20.8141 30.6944 20.7609 30.6642 20.7149 30.6247C20.669 30.5851 20.6313 30.5368 20.6041 30.4827C20.5768 30.4285 20.5604 30.3695 20.5559 30.3091C20.5515 30.2486 20.5589 30.1878 20.5779 30.1303C20.5969 30.0727 20.6271 30.0194 20.6667 29.9735C20.7063 29.9276 20.7545 29.8899 20.8087 29.8626C20.8628 29.8353 20.9218 29.819 20.9823 29.8145C21.0428 29.81 21.1035 29.8175 21.1611 29.8365C21.4842 29.9689 21.835 30.0195 22.1823 29.9838C22.5297 29.948 22.8628 29.827 23.1522 29.6316C23.2022 29.5955 23.259 29.5698 23.3191 29.556C23.3793 29.5423 23.4416 29.5407 23.5024 29.5515C23.5631 29.5622 23.6211 29.585 23.6729 29.6186C23.7247 29.6521 23.7692 29.6957 23.8039 29.7467C23.8385 29.7978 23.8626 29.8552 23.8747 29.9158C23.8867 29.9763 23.8865 30.0386 23.8741 30.099C23.8617 30.1594 23.8372 30.2168 23.8023 30.2676C23.7673 30.3184 23.7225 30.3617 23.6705 30.3949C23.183 30.7342 22.6033 30.916 22.0094 30.916Z" fill="#03624C"></path><path d="M20.8819 35.7976C20.4367 35.8015 19.9961 35.7064 19.5921 35.5192C19.1881 35.332 18.8306 35.0575 18.5456 34.7153C18.211 34.8396 17.8568 34.9034 17.4998 34.9036C16.7255 34.9214 15.9758 34.6315 15.4148 34.0976C14.8538 33.5637 14.5273 32.8292 14.5067 32.055C14.5068 31.9674 14.5119 31.8799 14.522 31.7929C13.83 31.7078 13.1918 31.3765 12.7241 30.8595C12.2564 30.3425 11.9904 29.6745 11.9747 28.9775C11.9765 28.3098 12.2199 27.6653 12.6601 27.1632C12.2005 26.9276 11.8135 26.5716 11.5407 26.133C11.2679 25.6945 11.1194 25.1901 11.1112 24.6736C11.1123 23.9911 11.369 23.3338 11.8307 22.8312C11.526 22.5725 11.2804 22.2513 11.1108 21.8894C10.9412 21.5274 10.8514 21.1332 10.8477 20.7335C10.8527 20.1435 11.0423 19.5699 11.39 19.0932C11.7377 18.6165 12.2259 18.2606 12.7861 18.0755C12.5809 17.7265 12.4728 17.3289 12.4732 16.924C12.4846 16.3573 12.6946 15.8125 13.0667 15.3849C13.4388 14.9573 13.9493 14.674 14.509 14.5844C14.5297 14.2556 14.6168 13.9344 14.7649 13.6401C14.913 13.3458 15.1191 13.0846 15.3708 12.872C15.6226 12.6595 15.9147 12.5001 16.2297 12.4034C16.5446 12.3068 16.8759 12.2748 17.2035 12.3095C17.396 11.8869 17.707 11.5292 18.0988 11.2799C18.4905 11.0305 18.9462 10.9001 19.4106 10.9046C19.7348 10.9045 20.056 10.968 20.3558 11.0915C20.7873 10.6696 21.3677 10.4346 21.9712 10.4375C23.1278 10.4375 23.8759 11.2817 23.8759 12.5878V32.949C23.8554 33.7234 23.5287 34.458 22.9675 34.9919C22.4063 35.5259 21.6564 35.8156 20.8819 35.7976ZM18.7039 33.6819C18.7826 33.6819 18.86 33.702 18.9288 33.7403C18.9975 33.7786 19.0553 33.8338 19.0967 33.9007C19.286 34.2028 19.5499 34.4511 19.863 34.6216C20.1761 34.7922 20.5278 34.8793 20.8842 34.8745C21.4138 34.8924 21.9288 34.6999 22.3168 34.339C22.7048 33.9782 22.9341 33.4785 22.9547 32.949V12.5869C22.9547 12.1286 22.8269 11.3597 21.973 11.3597C21.7542 11.3571 21.538 11.4076 21.343 11.5069C21.148 11.6062 20.98 11.7512 20.8533 11.9297C20.7859 12.0272 20.6835 12.095 20.5674 12.119C20.4513 12.1431 20.3304 12.1216 20.2298 12.0589C19.9844 11.9071 19.7014 11.8271 19.4129 11.8281C19.0835 11.8195 18.7611 11.9237 18.4991 12.1235C18.2371 12.3233 18.0512 12.6067 17.9724 12.9266C17.9597 12.9873 17.9349 13.0448 17.8995 13.0957C17.8641 13.1467 17.8187 13.1899 17.7662 13.2229C17.7137 13.2559 17.6551 13.278 17.5938 13.2878C17.5326 13.2976 17.47 13.295 17.4098 13.2801C17.2781 13.245 17.1427 13.2262 17.0064 13.2243C16.6047 13.2104 16.2138 13.3559 15.9189 13.629C15.624 13.9021 15.449 14.2807 15.4321 14.6823C15.4338 14.7647 15.4431 14.8467 15.4598 14.9274C15.4721 14.9953 15.4691 15.0651 15.4508 15.1317C15.4326 15.1983 15.3997 15.2599 15.3545 15.3121C15.3092 15.3643 15.2529 15.4057 15.1896 15.4332C15.1262 15.4607 15.0576 15.4736 14.9886 15.4711C14.9733 15.4711 14.9424 15.4674 14.9263 15.4651C14.5313 15.4606 14.1503 15.6106 13.8644 15.8832C13.5786 16.1558 13.4106 16.5293 13.3963 16.924C13.3984 17.1333 13.4477 17.3395 13.5404 17.5273C13.633 17.715 13.7668 17.8795 13.9316 18.0086C14.0027 18.0671 14.0547 18.1456 14.0808 18.2339C14.1069 18.3222 14.106 18.4163 14.0782 18.5041C14.0504 18.5919 13.997 18.6694 13.9248 18.7266C13.8527 18.7838 13.765 18.8181 13.6732 18.825C13.1735 18.8423 12.6991 19.0489 12.3463 19.4031C11.9934 19.7573 11.7884 20.2324 11.773 20.7321C11.778 21.0738 11.8758 21.4078 12.0558 21.6982C12.2359 21.9887 12.4915 22.2247 12.7953 22.3812C12.8634 22.4189 12.9208 22.4731 12.9622 22.5389C13.0036 22.6047 13.0278 22.68 13.0324 22.7576C13.037 22.8352 13.0219 22.9127 12.9885 22.983C12.9552 23.0532 12.9046 23.1139 12.8415 23.1593C12.5961 23.3289 12.3949 23.5547 12.2547 23.8179C12.1145 24.0811 12.0394 24.3741 12.0357 24.6723C12.0463 25.1228 12.2127 25.5558 12.5067 25.8974C12.8006 26.2391 13.2039 26.4683 13.6478 26.5461C13.7376 26.5649 13.8198 26.61 13.8838 26.6757C13.9479 26.7414 13.9909 26.8247 14.0074 26.9149C14.0239 27.0051 14.0131 27.0983 13.9764 27.1824C13.9397 27.2664 13.8788 27.3377 13.8015 27.387C13.5292 27.5542 13.3036 27.7876 13.1458 28.0654C12.988 28.3433 12.9032 28.6566 12.8992 28.9761C12.9198 29.5055 13.1491 30.0053 13.5371 30.3661C13.9251 30.7269 14.4401 30.9195 14.9696 30.9016C15.0035 30.8957 15.0378 30.8919 15.0721 30.8901C15.1467 30.8873 15.2209 30.9023 15.2885 30.9338C15.3562 30.9653 15.4154 31.0125 15.4612 31.0715C15.5065 31.131 15.5367 31.2005 15.5491 31.2743C15.5616 31.348 15.556 31.4236 15.5327 31.4947C15.4691 31.6748 15.4348 31.864 15.4312 32.055C15.4516 32.5844 15.6809 33.0842 16.0688 33.445C16.4567 33.8058 16.9717 33.9984 17.5012 33.9806C17.8467 33.9786 18.1868 33.8936 18.4926 33.7327C18.558 33.6993 18.6305 33.6819 18.7039 33.6819Z" fill="#03624C"></path><path d="M29.9464 14.7456C29.9124 14.7456 29.8785 14.7418 29.8453 14.7345C29.7862 14.7213 29.7302 14.6966 29.6806 14.6617C29.631 14.6269 29.5888 14.5826 29.5563 14.5315C29.5238 14.4803 29.5017 14.4232 29.4913 14.3635C29.4808 14.3038 29.4823 14.2426 29.4955 14.1835C29.6022 13.7417 29.8298 13.3384 30.1526 13.0186C30.4755 12.6987 30.8809 12.475 31.3236 12.3724C31.4419 12.3457 31.5658 12.3667 31.6688 12.4306C31.7717 12.4946 31.8454 12.5966 31.8738 12.7144C31.9022 12.8322 31.8831 12.9565 31.8207 13.0604C31.7583 13.1643 31.6575 13.2394 31.5401 13.2696C31.2648 13.3313 31.0121 13.4682 30.8101 13.6651C30.6081 13.862 30.4647 14.1111 30.3959 14.3847C30.3731 14.4869 30.3162 14.5784 30.2345 14.644C30.1528 14.7096 30.0512 14.7454 29.9464 14.7456Z" fill="#03624C"></path><path d="M33.9772 19.3053C33.8548 19.3053 33.7374 19.2567 33.6508 19.1701C33.5643 19.0836 33.5156 18.9662 33.5156 18.8438C33.5156 18.7213 33.5643 18.604 33.6508 18.5174C33.7374 18.4308 33.8548 18.3822 33.9772 18.3822C34.3633 18.3845 34.7379 18.2505 35.035 18.0038C35.1287 17.925 35.2499 17.8867 35.3718 17.8972C35.4938 17.9078 35.6065 17.9664 35.6853 18.0601C35.7641 18.1538 35.8024 18.2749 35.7918 18.3969C35.7813 18.5188 35.7227 18.6316 35.629 18.7104C35.1655 19.0968 34.5806 19.3075 33.9772 19.3053Z" fill="#03624C"></path><path d="M35.1012 23.5804C34.8695 23.5806 34.6384 23.5552 34.4122 23.5047C34.2943 23.4763 34.1923 23.4027 34.1283 23.2998C34.0642 23.1969 34.0432 23.0729 34.0699 22.9546C34.0965 22.8364 34.1685 22.7333 34.2705 22.6678C34.3725 22.6022 34.4961 22.5794 34.6148 22.6042C35.1231 22.7157 35.6543 22.647 36.1175 22.4099C36.1713 22.38 36.2305 22.3612 36.2917 22.3545C36.3528 22.3479 36.4147 22.3535 36.4737 22.3711C36.5326 22.3887 36.5875 22.4178 36.635 22.4569C36.6825 22.496 36.7217 22.5442 36.7503 22.5987C36.7789 22.6531 36.7964 22.7128 36.8016 22.7741C36.8068 22.8354 36.7998 22.8971 36.7808 22.9556C36.7618 23.0141 36.7314 23.0683 36.6912 23.1149C36.651 23.1614 36.6019 23.1995 36.5468 23.2268C36.1005 23.4595 35.6045 23.5807 35.1012 23.5804Z" fill="#03624C"></path><path d="M30.7381 22.3891H30.7201C30.6595 22.3868 30.6 22.3726 30.5449 22.3472C30.4898 22.3219 30.4402 22.286 30.3991 22.2415C30.3579 22.197 30.3258 22.1448 30.3048 22.0879C30.2838 22.0311 30.2742 21.9706 30.2765 21.91C30.2882 21.5964 30.2172 21.2852 30.0707 21.0077C29.914 20.7081 29.6829 20.4538 29.3996 20.2693C29.2972 20.2019 29.2258 20.0967 29.201 19.9767C29.1762 19.8567 29.2001 19.7317 29.2674 19.6294C29.3347 19.527 29.44 19.4555 29.56 19.4307C29.68 19.4059 29.8049 19.4298 29.9073 19.4971C30.3227 19.7694 30.6612 20.1438 30.8904 20.5845C31.109 21.0046 31.2153 21.4741 31.1987 21.9474C31.1936 22.0662 31.1428 22.1784 31.057 22.2607C30.9712 22.343 30.857 22.389 30.7381 22.3891Z" fill="#03624C"></path><path d="M29.728 26.9075C29.332 26.9079 28.9395 26.8332 28.5714 26.6874C28.5151 26.6649 28.4638 26.6315 28.4204 26.5891C28.377 26.5468 28.3424 26.4963 28.3186 26.4406C28.2947 26.3849 28.282 26.325 28.2813 26.2644C28.2806 26.2038 28.2918 26.1437 28.3143 26.0874C28.3368 26.0311 28.3702 25.9798 28.4125 25.9364C28.4549 25.8931 28.5053 25.8584 28.561 25.8346C28.6168 25.8107 28.6766 25.798 28.7372 25.7973C28.7978 25.7966 28.858 25.8078 28.9143 25.8303C29.237 25.9583 29.5853 26.0083 29.931 25.9762C30.2767 25.9441 30.6099 25.8309 30.9035 25.6457C31.0064 25.5793 31.1314 25.5566 31.2511 25.5824C31.3707 25.6083 31.4752 25.6806 31.5416 25.7835C31.6079 25.8863 31.6307 26.0114 31.6048 26.131C31.579 26.2507 31.5067 26.3552 31.4038 26.4215C30.9803 26.6924 30.4971 26.8559 29.9961 26.8978C29.9072 26.9043 29.8178 26.9075 29.728 26.9075Z" fill="#03624C"></path><path d="M34.8395 27.5206C34.5354 27.5209 34.2328 27.4769 33.9414 27.3899C33.8264 27.353 33.7305 27.2725 33.6743 27.1656C33.618 27.0588 33.6058 26.9342 33.6404 26.8185C33.6749 26.7028 33.7534 26.6053 33.859 26.5468C33.9646 26.4883 34.089 26.4735 34.2054 26.5056C34.5523 26.6079 34.9189 26.6248 35.2738 26.555C35.3333 26.5432 35.3945 26.5432 35.4539 26.555C35.5134 26.5669 35.5699 26.5903 35.6203 26.624C35.6707 26.6577 35.714 26.701 35.7477 26.7514C35.7813 26.8018 35.8048 26.8583 35.8166 26.9178C35.8284 26.9772 35.8284 27.0384 35.8166 27.0979C35.8047 27.1574 35.7813 27.2139 35.7476 27.2643C35.7139 27.3147 35.6706 27.358 35.6202 27.3916C35.5698 27.4253 35.5133 27.4487 35.4538 27.4606C35.2515 27.5005 35.0457 27.5206 34.8395 27.5206Z" fill="#03624C"></path><path d="M33.8028 31.8192H33.7732C33.1775 31.7838 32.605 31.5752 32.126 31.2192C32.0775 31.1828 32.0367 31.1373 32.0058 31.0851C31.9749 31.033 31.9546 30.9752 31.946 30.9152C31.9375 30.8552 31.9408 30.7941 31.9558 30.7354C31.9709 30.6767 31.9973 30.6215 32.0337 30.573C32.0701 30.5246 32.1156 30.4837 32.1678 30.4528C32.2199 30.4219 32.2777 30.4016 32.3377 30.3931C32.3977 30.3845 32.4588 30.3878 32.5175 30.4029C32.5762 30.4179 32.6314 30.4444 32.6799 30.4807C33.0154 30.7299 33.4165 30.8755 33.8337 30.8998C33.9561 30.9037 34.072 30.956 34.1558 31.0453C34.2396 31.1346 34.2846 31.2535 34.2807 31.3759C34.2769 31.4983 34.2245 31.6142 34.1352 31.698C34.046 31.7818 33.927 31.8267 33.8046 31.8229L33.8028 31.8192Z" fill="#03624C"></path><path d="M30.1963 34.5942C30.1204 34.5942 30.0457 34.5753 29.9789 34.5393C29.3799 34.2228 28.9103 33.7071 28.651 33.0813C28.605 32.9678 28.606 32.8407 28.6536 32.7279C28.7013 32.6151 28.7919 32.5259 28.9053 32.4799C29.0188 32.4339 29.1459 32.4348 29.2587 32.4825C29.3715 32.5302 29.4607 32.6207 29.5067 32.7342C29.6845 33.1604 30.0056 33.5111 30.4146 33.7256C30.5054 33.7741 30.5774 33.8516 30.6191 33.9458C30.6608 34.0399 30.6698 34.1453 30.6447 34.2452C30.6196 34.345 30.5618 34.4336 30.4806 34.4969C30.3993 34.5601 30.2992 34.5944 30.1963 34.5942Z" fill="#03624C"></path><path d="M25.5318 16.9758C25.4331 16.9758 25.337 16.9441 25.2576 16.8855C25.1782 16.8268 25.1197 16.7443 25.0907 16.6499C25.0617 16.5556 25.0637 16.4545 25.0964 16.3614C25.1291 16.2682 25.1908 16.188 25.2724 16.1326C25.6791 15.859 26.1457 15.6873 26.6327 15.6319C27.1197 15.5765 27.6129 15.639 28.0707 15.8141C28.1283 15.833 28.1815 15.8631 28.2275 15.9027C28.2734 15.9422 28.3111 15.9904 28.3385 16.0445C28.3658 16.0986 28.3822 16.1576 28.3867 16.218C28.3913 16.2785 28.3838 16.3392 28.3649 16.3968C28.346 16.4544 28.3159 16.5077 28.2763 16.5536C28.2368 16.5996 28.1886 16.6373 28.1345 16.6646C28.0804 16.6919 28.0214 16.7083 27.961 16.7128C27.9005 16.7174 27.8398 16.71 27.7822 16.691C27.459 16.5588 27.1081 16.5084 26.7607 16.5442C26.4133 16.58 26.0801 16.701 25.7907 16.8964C25.7143 16.9483 25.6241 16.976 25.5318 16.9758Z" fill="#03624C"></path><path d="M26.9344 30.916C26.3403 30.9163 25.7604 30.7344 25.2729 30.3949C25.2227 30.3609 25.1797 30.3173 25.1464 30.2667C25.113 30.216 25.09 30.1593 25.0786 30.0997C25.0672 30.0402 25.0676 29.979 25.0798 29.9196C25.0921 29.8602 25.1159 29.8038 25.1499 29.7536C25.1839 29.7034 25.2275 29.6604 25.2782 29.6271C25.3288 29.5938 25.3855 29.5707 25.4451 29.5593C25.5046 29.5479 25.5658 29.5483 25.6252 29.5605C25.6846 29.5728 25.741 29.5966 25.7912 29.6306C26.0806 29.8262 26.4138 29.9472 26.7613 29.983C27.1087 30.0187 27.4596 29.9681 27.7827 29.8355C27.8403 29.8166 27.9011 29.8092 27.9615 29.8137C28.022 29.8182 28.0809 29.8346 28.135 29.862C28.1891 29.8893 28.2373 29.927 28.2769 29.973C28.3164 30.0189 28.3465 30.0722 28.3654 30.1298C28.3844 30.1873 28.3918 30.2481 28.3872 30.3085C28.3827 30.369 28.3663 30.4279 28.339 30.482C28.3117 30.5362 28.274 30.5843 28.228 30.6239C28.1821 30.6634 28.1288 30.6935 28.0712 30.7125C27.706 30.8421 27.3219 30.9109 26.9344 30.916Z" fill="#03624C"></path><path d="M28.0638 35.7976C27.2895 35.8154 26.5397 35.5257 25.9786 34.9917C25.4175 34.4578 25.0909 33.7232 25.0703 32.949V12.5869C25.0703 11.2807 25.8185 10.4366 26.9751 10.4366C27.5786 10.4336 28.1589 10.6686 28.5905 11.0905C28.8903 10.967 29.2114 10.9035 29.5357 10.9036C30.0001 10.8994 30.4557 11.0299 30.8475 11.2792C31.2393 11.5286 31.5504 11.8861 31.7432 12.3085C32.0709 12.2738 32.4022 12.3057 32.7172 12.4024C33.0322 12.4991 33.3243 12.6586 33.576 12.8713C33.8277 13.0839 34.0337 13.3453 34.1816 13.6398C34.3296 13.9342 34.4163 14.2555 34.4368 14.5844C34.9967 14.6737 35.5075 14.9568 35.8799 15.3845C36.2523 15.8121 36.4625 16.357 36.474 16.9239C36.473 17.3287 36.3637 17.7258 36.1574 18.0741C36.7175 18.2593 37.2057 18.6152 37.5533 19.0919C37.901 19.5686 38.0907 20.1421 38.0958 20.7321C38.0921 21.1318 38.0024 21.526 37.8328 21.888C37.6632 22.25 37.4176 22.5712 37.1128 22.8298C37.5744 23.3324 37.831 23.9897 37.8323 24.6722C37.8241 25.1887 37.6756 25.6932 37.4027 26.1317C37.1297 26.5703 36.7427 26.9263 36.2829 27.1617C36.7235 27.6636 36.9672 28.3082 36.9687 28.976C36.9531 29.673 36.6871 30.3411 36.2194 30.8581C35.7517 31.375 35.1135 31.7063 34.4215 31.7914C34.4318 31.8784 34.4369 31.966 34.4368 32.0536C34.4162 32.8278 34.0897 33.5623 33.5287 34.0962C32.9677 34.6301 32.2179 34.9199 31.4437 34.9022C31.0867 34.9019 30.7325 34.8382 30.3978 34.7139C30.1132 35.056 29.7562 35.3306 29.3526 35.518C28.949 35.7054 28.5088 35.8009 28.0638 35.7976ZM26.9751 11.3596C26.1212 11.3596 25.9934 12.1285 25.9934 12.5869V32.949C26.0139 33.4784 26.2433 33.9782 26.6313 34.339C27.0193 34.6998 27.5343 34.8923 28.0638 34.8745C28.4203 34.8792 28.772 34.7921 29.0851 34.6216C29.3982 34.451 29.6621 34.2028 29.8514 33.9007C29.9124 33.8019 30.0084 33.7298 30.1201 33.6987C30.2319 33.6676 30.3514 33.6797 30.4546 33.7327C30.7604 33.8935 31.1004 33.9785 31.446 33.9805C31.9755 33.9983 32.4905 33.8058 32.8784 33.445C33.2663 33.0841 33.4955 32.5844 33.516 32.055C33.5123 31.864 33.4781 31.6748 33.4144 31.4947C33.3912 31.4236 33.3856 31.3479 33.398 31.2742C33.4105 31.2005 33.4407 31.1309 33.486 31.0714C33.532 31.0127 33.5912 30.9657 33.6588 30.9342C33.7264 30.9027 33.8005 30.8876 33.8751 30.89C33.9069 30.89 33.9378 30.8951 33.9674 30.8993H33.9715C34.5019 30.9194 35.0186 30.7281 35.408 30.3675C35.7974 30.0069 36.0278 29.5064 36.0484 28.976C36.0446 28.6565 35.9598 28.3431 35.8021 28.0652C35.6444 27.7872 35.4189 27.5538 35.1466 27.3865C35.0694 27.3372 35.0086 27.266 34.972 27.182C34.9355 27.098 34.9247 27.005 34.9411 26.9149C34.9576 26.8247 35.0004 26.7415 35.0643 26.6758C35.1282 26.6102 35.2102 26.565 35.2998 26.5461C35.7438 26.4683 36.147 26.239 36.441 25.8974C36.7349 25.5557 36.9013 25.1228 36.912 24.6722C36.9083 24.374 36.8331 24.0809 36.6928 23.8177C36.5525 23.5545 36.3512 23.3287 36.1057 23.1593C36.0426 23.1138 35.992 23.0532 35.9586 22.9829C35.9253 22.9127 35.9102 22.8352 35.9148 22.7575C35.9194 22.6799 35.9435 22.6047 35.985 22.5389C36.0264 22.4731 36.0838 22.4188 36.1518 22.3811C36.4557 22.2247 36.7113 21.9886 36.8913 21.6982C37.0714 21.4077 37.1691 21.0738 37.1741 20.7321C37.1587 20.2323 36.9538 19.7572 36.6009 19.403C36.248 19.0489 35.7736 18.8422 35.274 18.825C35.1821 18.818 35.0944 18.7837 35.0222 18.7265C34.9499 18.6692 34.8965 18.5917 34.8688 18.5038C34.841 18.4159 34.8402 18.3217 34.8664 18.2334C34.8927 18.145 34.9448 18.0666 35.016 18.0081C35.1808 17.8791 35.3145 17.7147 35.4071 17.527C35.4997 17.3393 35.5488 17.1332 35.5509 16.9239C35.5339 16.5224 35.3588 16.1439 35.0639 15.8709C34.7691 15.5979 34.3782 15.4525 33.9766 15.4664C33.9064 15.4691 33.8365 15.4565 33.7718 15.4293C33.707 15.4021 33.649 15.361 33.6018 15.309C33.5553 15.2578 33.5208 15.1968 33.501 15.1305C33.4812 15.0642 33.4765 14.9943 33.4874 14.9259C33.5041 14.8453 33.5133 14.7632 33.5151 14.6808C33.4981 14.2792 33.3231 13.9005 33.0281 13.6274C32.7331 13.3543 32.3421 13.2089 31.9403 13.2229C31.8042 13.2248 31.6689 13.2435 31.5374 13.2787C31.4772 13.2936 31.4146 13.2962 31.3534 13.2864C31.2922 13.2766 31.2336 13.2546 31.1811 13.2216C31.1286 13.1887 31.0833 13.1455 31.0478 13.0946C31.0124 13.0438 30.9875 12.9863 30.9748 12.9256C30.8959 12.6057 30.71 12.3223 30.4481 12.1225C30.1861 11.9226 29.8637 11.8183 29.5343 11.8267C29.2458 11.8257 28.9627 11.9057 28.7174 12.0575C28.6167 12.1201 28.4958 12.1417 28.3798 12.1176C28.2637 12.0936 28.1613 12.0257 28.0938 11.9282C27.9671 11.7502 27.7992 11.6055 27.6043 11.5065C27.4095 11.4074 27.1936 11.3571 26.9751 11.3596Z" fill="#03624C"></path><path d="M24.4733 3.59999C24.3508 3.59999 24.2335 3.55137 24.1469 3.46481C24.0603 3.37826 24.0117 3.26086 24.0117 3.13845V0.461538C24.0117 0.33913 24.0603 0.221736 24.1469 0.135181C24.2335 0.0486262 24.3508 0 24.4733 0C24.5957 0 24.7131 0.0486262 24.7996 0.135181C24.8862 0.221736 24.9348 0.33913 24.9348 0.461538V3.13845C24.9348 3.26086 24.8862 3.37826 24.7996 3.46481C24.7131 3.55137 24.5957 3.59999 24.4733 3.59999Z" fill="#03624C"></path><path d="M15.735 5.44608C15.6458 5.44613 15.5584 5.4203 15.4835 5.37173C15.4087 5.32315 15.3495 5.25391 15.3132 5.17239L14.229 2.73686C14.2023 2.68123 14.1871 2.62082 14.1841 2.55919C14.1812 2.49756 14.1906 2.43597 14.2119 2.37806C14.2332 2.32015 14.2659 2.26709 14.308 2.22202C14.3501 2.17696 14.4009 2.14079 14.4572 2.11567C14.5136 2.09055 14.5744 2.07699 14.6361 2.07577C14.6977 2.07456 14.759 2.08573 14.8163 2.10861C14.8736 2.1315 14.9258 2.16564 14.9696 2.20902C15.0135 2.2524 15.0482 2.30413 15.0718 2.36116L16.1559 4.79531C16.1875 4.8656 16.201 4.94267 16.1952 5.01951C16.1893 5.09635 16.1643 5.1705 16.1225 5.23521C16.0806 5.29991 16.0233 5.3531 15.9556 5.38994C15.8879 5.42677 15.8121 5.44607 15.735 5.44608Z" fill="#03624C"></path><path d="M8.62967 10.8041C8.51499 10.8046 8.40426 10.7623 8.31906 10.6855L6.21814 8.79322C6.17172 8.75306 6.13378 8.70405 6.10654 8.64905C6.0793 8.59405 6.0633 8.53417 6.05949 8.47291C6.05567 8.41165 6.06411 8.35025 6.08431 8.29229C6.10451 8.23433 6.13607 8.18099 6.17714 8.13537C6.21821 8.08976 6.26797 8.0528 6.32349 8.02665C6.37902 8.0005 6.43921 7.98569 6.50053 7.98308C6.56185 7.98048 6.62308 7.99013 6.68062 8.01147C6.73817 8.03281 6.79088 8.06542 6.83567 8.10738L8.93659 9.99968C9.00593 10.0621 9.05471 10.1442 9.07648 10.2349C9.09826 10.3256 9.09202 10.4209 9.05858 10.508C9.02514 10.5951 8.96607 10.6701 8.88917 10.7229C8.81227 10.7758 8.72115 10.8041 8.62782 10.8041H8.62967Z" fill="#03624C"></path><path d="M4.28361 18.5099C4.23533 18.5099 4.18736 18.5022 4.14145 18.4873L1.36438 17.5845C1.25352 17.5425 1.16308 17.4595 1.11181 17.3526C1.06053 17.2457 1.05236 17.1231 1.08897 17.0104C1.12559 16.8976 1.20419 16.8033 1.30848 16.7469C1.41277 16.6906 1.53476 16.6765 1.64915 16.7076L4.42622 17.6099C4.53072 17.6439 4.61966 17.714 4.67706 17.8077C4.73447 17.9014 4.75656 18.0125 4.73937 18.121C4.72218 18.2296 4.66684 18.3284 4.5833 18.3998C4.49975 18.4711 4.39348 18.5099 4.28361 18.5099Z" fill="#03624C"></path><path d="M0.457379 27.5934C0.339698 27.5923 0.226866 27.5463 0.141956 27.4648C0.0570469 27.3834 0.00647442 27.2725 0.000579787 27.155C-0.00531484 27.0374 0.0339135 26.9221 0.110244 26.8325C0.186574 26.7429 0.29424 26.6859 0.411225 26.6731L3.16983 26.3828C3.2914 26.3711 3.41269 26.4076 3.50763 26.4844C3.60257 26.5612 3.66358 26.6722 3.67753 26.7935C3.68392 26.8538 3.67837 26.9148 3.66118 26.973C3.644 27.0311 3.61552 27.0854 3.57737 27.1325C3.53922 27.1797 3.49215 27.2188 3.43885 27.2478C3.38556 27.2767 3.32708 27.2949 3.26676 27.3012L0.508148 27.5915C0.490148 27.5924 0.472149 27.5934 0.457379 27.5934Z" fill="#03624C"></path><path d="M3.55917 37.1426C3.45758 37.1426 3.35882 37.1091 3.27822 37.0472C3.19762 36.9854 3.13968 36.8986 3.11338 36.8005C3.08709 36.7024 3.09391 36.5983 3.13278 36.5044C3.17166 36.4106 3.24042 36.3322 3.32841 36.2814L5.97625 34.7537C6.0822 34.6934 6.20767 34.6776 6.32529 34.7095C6.44291 34.7414 6.54312 34.8186 6.60406 34.9241C6.665 35.0297 6.68172 35.155 6.65057 35.2729C6.61942 35.3907 6.54292 35.4914 6.43778 35.5531L3.78948 37.0821C3.71939 37.1222 3.63993 37.1431 3.55917 37.1426Z" fill="#03624C"></path><path d="M33.207 5.44616C33.1301 5.44605 33.0545 5.42674 32.9869 5.38998C32.9194 5.35322 32.8622 5.30017 32.8203 5.23566C32.7785 5.17115 32.7535 5.09722 32.7475 5.02057C32.7415 4.94393 32.7548 4.867 32.7861 4.79678L33.8702 2.36263C33.8937 2.3056 33.9285 2.25386 33.9723 2.21049C34.0162 2.16711 34.0683 2.13297 34.1256 2.11008C34.1829 2.08719 34.2442 2.07603 34.3059 2.07724C34.3676 2.07845 34.4284 2.09202 34.4848 2.11714C34.5411 2.14226 34.5919 2.17842 34.634 2.22349C34.6761 2.26856 34.7088 2.32162 34.7301 2.37953C34.7513 2.43744 34.7608 2.49903 34.7579 2.56066C34.7549 2.62228 34.7397 2.68269 34.713 2.73832L33.6288 5.16924C33.593 5.25137 33.534 5.32128 33.4591 5.37046C33.3842 5.41963 33.2966 5.44594 33.207 5.44616Z" fill="#03624C"></path><path d="M40.3169 10.8041C40.2235 10.8041 40.1324 10.7758 40.0555 10.7229C39.9786 10.6701 39.9196 10.5951 39.8861 10.508C39.8527 10.4209 39.8464 10.3256 39.8682 10.2349C39.89 10.1442 39.9388 10.0621 40.0081 9.99968L42.109 8.10738C42.1538 8.06542 42.2065 8.03281 42.2641 8.01147C42.3216 7.99013 42.3828 7.98048 42.4442 7.98308C42.5055 7.98569 42.5657 8.0005 42.6212 8.02665C42.6767 8.0528 42.7265 8.08976 42.7676 8.13537C42.8086 8.18099 42.8402 8.23433 42.8604 8.29229C42.8806 8.35025 42.889 8.41165 42.8852 8.47291C42.8814 8.53417 42.8654 8.59405 42.8382 8.64905C42.8109 8.70405 42.773 8.75306 42.7266 8.79322L40.6275 10.6855C40.5423 10.7623 40.4316 10.8046 40.3169 10.8041Z" fill="#03624C"></path><path d="M44.6607 18.5099C44.5508 18.5099 44.4445 18.4706 44.361 18.3993C44.2774 18.3279 44.2221 18.2291 44.2049 18.1205C44.1877 18.012 44.2098 17.9009 44.2672 17.8072C44.3246 17.7135 44.4136 17.6434 44.5181 17.6094L47.2951 16.7071C47.4095 16.676 47.5315 16.6901 47.6358 16.7464C47.7401 16.8028 47.8187 16.8971 47.8553 17.0099C47.8919 17.1227 47.8837 17.2452 47.8325 17.3521C47.7812 17.459 47.6908 17.542 47.5799 17.584L44.8028 18.4859C44.757 18.5013 44.709 18.5094 44.6607 18.5099Z" fill="#03624C"></path><path d="M48.4865 27.5933C48.4703 27.5933 48.4537 27.5933 48.4376 27.5933L45.679 27.303C45.6186 27.2967 45.5602 27.2785 45.5069 27.2496C45.4536 27.2206 45.4065 27.1814 45.3684 27.1343C45.3302 27.0871 45.3017 27.0329 45.2845 26.9748C45.2674 26.9166 45.2618 26.8556 45.2682 26.7953C45.2819 26.6739 45.3429 26.5627 45.4379 26.4859C45.5329 26.409 45.6543 26.3726 45.7759 26.3845L48.5345 26.6749C48.6515 26.6877 48.7592 26.7447 48.8355 26.8343C48.9118 26.9239 48.951 27.0392 48.9451 27.1568C48.9393 27.2743 48.8887 27.3851 48.8038 27.4666C48.7189 27.5481 48.606 27.5941 48.4883 27.5952L48.4865 27.5933Z" fill="#03624C"></path><path d="M45.3845 37.1425C45.3035 37.1427 45.2239 37.1213 45.1538 37.0807L42.5055 35.5516C42.4003 35.49 42.3238 35.3892 42.2927 35.2714C42.2615 35.1536 42.2782 35.0282 42.3392 34.9227C42.4001 34.8171 42.5003 34.74 42.618 34.708C42.7356 34.6761 42.861 34.692 42.967 34.7522L45.6153 36.2813C45.7033 36.3321 45.772 36.4105 45.8109 36.5044C45.8498 36.5982 45.8566 36.7023 45.8303 36.8004C45.804 36.8986 45.7461 36.9853 45.6655 37.0471C45.5849 37.109 45.4861 37.1425 45.3845 37.1425Z" fill="#03624C"></path></svg>