<svg xmlns="http://www.w3.org/2000/svg" width="129" height="60" viewBox="0 0 129 60" fill="none"><path d="M82.4297 5.83951L81.5152 6.88625C80.3126 8.2537 79.0626 9.8238 77.796 11.5513L76.8167 12.8894L75.3262 11.8553C73.8618 10.838 71.9336 9.81747 69.5975 8.82954L68.1075 8.1981L69.0351 7.10563C70.4906 5.39123 71.629 3.88989 72.4105 2.65002L73.1961 1.40018L74.7211 2.15606C76.0525 2.81332 78.1736 3.83111 81.0252 5.17546L82.4297 5.83951Z" fill="black"></path><path d="M28.8378 33.1389C28.8378 36.783 28.0433 40.1689 26.4714 43.2114C26.3128 44.4576 25.0717 46.0152 22.5034 48.1969C19.0633 51.0987 14.6446 52.5711 9.36181 52.5711C5.0161 52.5711 2.11702 52.0016 0.498221 50.8372L0 50.4772V49.9538C0 49.2472 0.450704 48.5601 1.38243 47.8472L1.85097 47.4903H2.51193C9.21157 47.4903 14.4165 45.6063 18.4237 41.7295C21.3139 38.9032 22.7825 36.3777 22.7825 34.2313C22.7825 31.9841 20.9143 29.4192 17.2212 26.6061L16.3881 25.9714L21.438 18.7284L22.963 19.9127C26.8621 22.9389 28.8378 27.3877 28.8378 33.1389Z" fill="black"></path><path d="M49.731 38.0819C49.731 39.8552 49.516 41.7523 49.0956 43.725C48.5415 46.568 47.7939 48.1055 46.6045 48.8216C45.9429 49.2599 45.0629 49.2599 44.7624 49.2599C44.0878 49.2599 43.4827 49.0672 43.0575 48.7139C42.5765 48.3113 42.3746 47.7617 42.4559 47.0782C42.5206 46.0509 42.5545 44.8636 42.5545 43.6074C42.5545 41.3335 42.4173 39.2042 42.1513 37.2741L40.3128 23.809C39.9006 20.7764 39.6904 17.7213 39.6904 14.7344C39.6904 13.5434 39.8021 12.3365 40.0123 11.1455L40.055 10.9134L43.371 6.43156C44.1311 5.41739 45.1442 5.26721 45.681 5.26721C46.8836 5.26721 48.095 5.88195 48.095 7.26252C48.095 7.4982 48.0647 8.11294 47.8373 10.8415C47.6264 13.3145 47.5837 14.1522 47.5837 14.4205C47.5837 18.0352 47.9228 21.7775 48.5932 25.5428L48.6057 25.7066V26.1219L49.5208 34.1628C49.6621 35.3927 49.731 36.7113 49.731 38.0819Z" fill="black"></path><path d="M86.1744 33.1389C86.1744 36.783 85.3798 40.1689 83.8079 43.2114C83.6535 44.4576 82.4083 46.0152 79.8399 48.1969C76.404 51.0987 71.9811 52.5711 66.6984 52.5711C62.3527 52.5711 59.4536 52.0016 57.8349 50.8372L57.3367 50.4772V49.9538C57.3367 49.2472 57.7874 48.5601 58.7191 47.8472L59.1877 47.4903H59.8485C66.5481 47.4903 71.7531 45.6063 75.7603 41.7295C78.6546 38.9032 80.119 36.3777 80.119 34.2313C80.119 31.9841 78.2508 29.4192 74.5578 26.6061L73.7246 25.9714L78.7746 18.7284L80.3037 19.9127C84.1987 22.9389 86.1744 27.3877 86.1744 33.1389Z" fill="black"></path><path d="M127.802 36.1354C127.802 39.3837 126.26 42.3774 123.22 45.0304L122.884 45.3249L122.386 45.4131C118.831 46.0609 115.373 46.4662 112.07 46.6168C111.336 46.653 110.606 46.6756 109.889 46.6856C109.09 46.6661 108.27 46.6069 107.446 46.496C102.532 45.822 97.598 43.2179 96.8248 35.6872L95.5968 23.6226C95.326 20.937 94.8794 17.6294 94.2737 13.7889L93.0629 6.05559L100.677 0L103.378 29.5144C103.636 32.5601 104.198 34.7616 105.054 36.0603C106.127 37.7811 107.767 38.6021 110.215 38.6509C120.355 38.5659 121.209 37.3427 121.244 37.2903C121.223 37.1627 120.973 36.2042 117.623 32.3769L117.026 31.6929L122.94 25.1076L124.254 26.58C126.608 29.2131 127.802 32.4289 127.802 36.1354Z" fill="black"></path><path d="M129 53.3853L128.167 54.3895C127.355 55.3711 126.131 56.8725 124.499 58.8908L123.601 60L122.215 59.241C119.861 57.9617 117.744 56.8431 115.919 55.9171L114.54 55.2173L115.511 54.1932C116.885 52.7507 118.04 51.3145 118.955 49.9244L119.762 48.694L129 53.3853Z" fill="black"></path></svg>