<svg xmlns="http://www.w3.org/2000/svg" width="60" height="60" viewBox="0 0 60 60" fill="none"><path fill-rule="evenodd" clip-rule="evenodd" d="M41.2907 16.9335L41.2859 16.9335C40.5934 16.9348 39.9166 17.1407 39.3407 17.5255C38.8262 17.8692 38.4128 18.3419 38.1407 18.8946C38.1353 18.9071 38.1294 18.9193 38.1229 18.9313C38.0961 18.9874 38.0707 19.0443 38.0468 19.102C37.781 19.7439 37.7114 20.4502 37.847 21.1316C37.9178 21.4877 38.0429 21.8286 38.2164 22.143C38.2216 22.1516 38.2265 22.1604 38.2311 22.1694C38.3871 22.4466 38.5809 22.7028 38.8083 22.9302C39.2996 23.4215 39.9255 23.7561 40.6069 23.8916C40.8042 23.9309 41.0036 23.9529 41.2029 23.958C41.2612 23.9469 41.321 23.9469 41.3793 23.958C41.809 23.9474 42.2354 23.8579 42.6366 23.6917C43.2784 23.4258 43.8271 22.9756 44.2131 22.3979C44.5915 21.8316 44.7969 21.1678 44.8048 20.4873C44.8024 20.4608 44.8022 20.4341 44.8044 20.4075L44.8048 20.4026C44.7924 19.4871 44.4234 18.6117 43.7751 17.9635C43.1196 17.308 42.2319 16.9379 41.3052 16.9335L41.2907 16.9335ZM51.2154 8.78722C45.592 3.16384 37.966 0.00346396 30.0136 0.000429434C30.0046 0.000176435 29.9956 0.000182697 29.9866 0.000447127C28.5638 0.00262693 27.1428 0.102857 25.7337 0.300427C25.7119 0.304118 25.6905 0.309321 25.6697 0.315953C23.9905 0.560897 22.3289 0.948773 20.7036 1.47852C20.6642 1.48116 20.6249 1.4888 20.5868 1.50149C19.8734 1.73868 19.1833 1.99743 18.5374 2.2693C18.5111 2.28034 18.4861 2.29367 18.4625 2.30908C13.498 4.37737 9.17213 7.74629 5.9476 12.0719C2.44428 16.7715 0.394479 22.3944 0.0514313 28.2461C-0.121741 31.2 0.143844 34.1469 0.826275 36.9942C0.830418 37.04 0.841311 37.0852 0.858689 37.128C1.53004 39.8734 2.58948 42.5246 4.0173 44.9984C7.65181 51.2936 13.435 56.0341 20.2676 58.3766C20.2846 58.3836 20.302 58.3895 20.3197 58.3944C20.949 58.6089 21.5873 58.8031 22.2335 58.9762C22.3969 59.02 22.5605 59.0624 22.7244 59.1033C25.0908 59.6954 27.5327 59.9997 29.9974 60.0004L30.002 60.0005L30.0117 60.0004C37.9648 59.9979 45.5915 56.8375 51.2154 51.2136C56.8414 45.5875 60.0021 37.9569 60.0021 30.0004C60.0021 24.4643 58.472 19.086 55.6458 14.4309C55.6305 14.3854 55.6082 14.3423 55.5797 14.3034C55.5666 14.2854 55.5521 14.2683 55.5366 14.2524C55.1155 13.5696 54.6663 12.9026 54.1899 12.2533C53.9926 11.9829 53.7909 11.7158 53.5848 11.4519C53.5755 11.4406 53.5657 11.4298 53.5555 11.4196C52.8313 10.5016 52.0505 9.62234 51.2154 8.78722ZM53.0028 12.231C51.6518 10.4825 50.0972 8.88266 48.3616 7.46871C44.9538 4.69242 40.9852 2.74445 36.7663 1.73525C36.7555 1.7338 36.7447 1.73196 36.734 1.72975C35.1016 1.34092 33.4481 1.09633 31.7917 0.994013C38.964 5.75615 41.2458 14.1534 41.6736 16.0114C42.1259 16.0503 42.572 16.1584 42.996 16.3341C43.7196 16.6339 44.3496 17.1187 44.8241 17.7377C46.0665 16.4154 47.5968 15.3924 49.2997 14.7502C50.8873 14.1515 52.5808 13.9004 54.2664 14.0089C53.8669 13.4014 53.4454 12.8083 53.0028 12.231ZM54.8946 15.0063C49.672 14.2432 46.1681 17.6553 45.3299 18.5739C45.5408 19.0287 45.6735 19.5166 45.7219 20.0168C47.5926 20.2289 55.1378 21.3705 58.8203 26.2596C58.33 22.4831 57.0987 18.8123 55.1669 15.4672C55.0775 15.3127 54.9867 15.1591 54.8946 15.0063ZM59.0168 28.3768C56.2633 22.6373 47.8121 21.23 45.7116 20.9658C45.5945 21.9542 45.1486 22.8806 44.4377 23.5915C43.7319 24.2971 42.8136 24.7415 41.8332 24.8623C42.8009 31.4449 42.17 38.1647 39.9929 44.4534C40.4264 44.7405 40.8008 45.112 41.0924 45.5485C41.5251 46.196 41.756 46.9573 41.756 47.736C41.7556 47.99 41.7307 48.2414 41.6826 48.487C44.9232 49.121 48.2127 49.4732 51.5144 49.5397C55.2854 45.3873 57.79 40.2133 58.6908 34.6324C59.0267 32.5517 59.1332 30.4546 59.0168 28.3768ZM50.6475 50.4536C47.5392 50.345 44.4442 49.9873 41.3923 49.3838C41.1992 49.8017 40.9326 50.1866 40.6008 50.5183C39.8628 51.2564 38.8623 51.6718 37.8185 51.6735C37.4615 51.6735 37.1081 51.625 36.7677 51.5307C35.204 54.2524 33.3169 56.7739 31.1481 59.0405C32.1781 58.9999 33.2055 58.9046 34.226 58.7548C34.302 58.7437 34.3779 58.7323 34.4537 58.7205C39.956 57.8672 45.1221 55.4463 49.316 51.7155C49.7742 51.308 50.2181 50.8871 50.6475 50.4536ZM8.91699 9.99756C8.90816 10.0096 8.89873 10.0213 8.88871 10.0326C7.90115 11.077 6.9975 12.1877 6.18242 13.3542C6.95707 16.9053 8.15708 20.3497 9.75623 23.6128C9.9636 23.5333 10.1782 23.4711 10.398 23.4274C11.1618 23.2755 11.9535 23.3535 12.673 23.6515C13.249 23.89 13.7579 24.2611 14.16 24.7318C21.1589 20.4424 29.2178 18.193 37.4277 18.2384C37.6231 17.8963 37.8641 17.5798 38.1458 17.2982C38.7682 16.6758 39.5613 16.2521 40.4246 16.0805C40.5214 16.0612 40.6185 16.0453 40.7159 16.0325C40.1844 13.8298 37.647 5.15449 29.8838 0.938966C25.5747 0.956216 21.2934 1.93176 17.3611 3.83076C14.1734 5.3702 11.3184 7.46663 8.91699 9.99756ZM35.8932 51.1707C34.2213 54.0567 32.1761 56.7102 29.8101 59.0623C27.2058 59.0448 24.5978 58.6773 22.0574 57.955C21.6653 57.8435 21.2763 57.724 20.8905 57.5966C20.5924 53.1345 20.9543 48.653 21.9642 44.297C22.1998 44.3407 22.44 44.363 22.6819 44.363C23.7256 44.3612 24.7261 43.9459 25.4642 43.2078L25.4905 43.1812L25.5142 43.1569L25.5326 43.1377C28.1686 44.8126 30.9763 46.2008 33.9077 47.2785C33.8298 47.9441 33.923 48.6205 34.1807 49.2428C34.4788 49.9623 34.9834 50.5773 35.631 51.0099C35.7165 51.0671 35.804 51.1207 35.8932 51.1707ZM21.0679 44.017C20.0543 48.3545 19.6713 52.8149 19.9302 57.2607C14.3911 55.2136 9.58855 51.5195 6.18513 46.6504C4.13858 43.7226 2.66486 40.4655 1.81083 37.0499C3.77553 34.5214 5.97987 32.1888 8.39305 30.0845C8.57158 30.2617 8.7675 30.4221 8.97861 30.5632C9.62613 30.9958 10.3874 31.2267 11.1662 31.2267C11.7571 31.2256 12.3341 31.092 12.8574 30.8423C14.7407 33.5711 16.9115 36.0898 19.3325 38.3552C19.0866 38.7531 18.9122 39.1938 18.82 39.6573C18.6681 40.4211 18.7461 41.2128 19.0441 41.9323C19.3421 42.6518 19.8468 43.2667 20.4943 43.6994C20.6772 43.8216 20.8691 43.9277 21.0679 44.017ZM7.80988 29.3482C5.53035 31.3331 3.43306 33.5176 1.54288 35.8753C1.00282 33.2589 0.822309 30.5625 1.02181 27.8605C1.37638 23.0581 2.91575 18.4495 5.465 14.4312C6.25139 17.7575 7.41251 20.9847 8.92659 24.0507C8.73263 24.1848 8.55024 24.3367 8.38194 24.505C7.83127 25.0557 7.45626 25.7573 7.30433 26.5211C7.1524 27.2849 7.23038 28.0766 7.5284 28.7961C7.60792 28.988 7.70215 29.1726 7.80988 29.3482ZM9.71574 24.6575C9.64202 24.6983 9.56986 24.7422 9.49946 24.7892C9.00611 25.1189 8.6216 25.5874 8.39453 26.1356C8.16747 26.6838 8.10806 27.2869 8.22382 27.8689C8.33957 28.4508 8.6253 28.9854 9.04485 29.4049C9.46441 29.8245 9.99896 30.1102 10.5809 30.226C11.1628 30.3417 11.766 30.2823 12.3142 30.0553C12.8624 29.8282 13.3309 29.4437 13.6606 28.9503C13.9902 28.457 14.1662 27.877 14.1662 27.2836C14.1656 26.6885 13.9885 26.1117 13.6639 25.6232C13.6596 25.6172 13.6555 25.611 13.6515 25.6048C13.5451 25.4472 13.4232 25.2989 13.2868 25.1625C12.7244 24.5997 11.9618 24.283 11.1662 24.2817V24.2836C10.6884 24.2836 10.2193 24.3977 9.79717 24.6142C9.78009 24.6256 9.76218 24.636 9.74354 24.6451C9.73439 24.6496 9.72512 24.6537 9.71574 24.6575ZM14.6802 25.5128C14.9576 26.0616 15.1037 26.6699 15.1037 27.2892C15.1017 28.3329 14.6862 29.3333 13.9482 30.0713C13.8532 30.1663 13.7538 30.256 13.6505 30.3402C15.4765 32.9818 17.578 35.4219 19.9195 37.6195C20.4669 37.0807 21.16 36.7136 21.9137 36.5636C22.5055 36.4459 23.1141 36.4662 23.6929 36.62C28.2425 27.1929 35.3467 23.1018 37.1882 22.1663L37.1806 22.1482C36.8438 21.335 36.7557 20.4401 36.9275 19.5768C36.9547 19.4404 36.9881 19.3058 37.0276 19.1733C29.1399 19.2002 21.4092 21.3925 14.6802 25.5128ZM37.6514 23.0045C31.9238 26.1605 27.3416 31.0476 24.5605 36.965C25.1202 37.2689 25.5997 37.705 25.9558 38.2379C26.3884 38.8854 26.6194 39.6467 26.6194 40.4255C26.6182 41.1189 26.4345 41.7932 26.0949 42.3841C28.6263 43.9874 31.3192 45.3201 34.1292 46.3603C34.3256 45.8336 34.6334 45.3527 35.0343 44.9518C35.585 44.4011 36.2865 44.0261 37.0504 43.8742C37.752 43.7346 38.4773 43.7891 39.1484 44.0299C41.2584 37.879 41.8559 31.3093 40.8892 24.8774C40.1513 24.8103 39.4394 24.5597 38.8197 24.1456C38.3609 23.839 37.9655 23.4514 37.6514 23.0045ZM22.0966 43.3632C22.021 43.3481 21.9462 43.3302 21.8723 43.3095C21.8311 43.2837 21.7862 43.2645 21.7389 43.2524C21.7108 43.2453 21.6821 43.2408 21.6533 43.239C21.2443 43.0897 20.871 42.8525 20.5605 42.5421C20.141 42.1226 19.8553 41.588 19.7395 41.0061C19.6238 40.4241 19.6832 39.8209 19.9102 39.2727C20.1373 38.7246 20.5218 38.256 21.0152 37.9264C21.5085 37.5967 22.0885 37.4208 22.6819 37.4208C23.4771 37.4223 24.2393 37.7388 24.8015 38.3011C25.3638 38.8634 25.6804 39.6256 25.6819 40.4208C25.6819 41.0141 25.5059 41.5942 25.1763 42.0875C24.8466 42.5809 24.3781 42.9654 23.8299 43.1924C23.2817 43.4195 22.6785 43.4789 22.0966 43.3632ZM37.2332 50.6737C37.0822 50.6436 36.9343 50.6021 36.7908 50.5498L36.7848 50.5464C36.7452 50.5242 36.7025 50.5078 36.6583 50.4979C36.3008 50.348 35.974 50.1295 35.6972 49.8527C35.2776 49.4331 34.9919 48.8986 34.8762 48.3166C34.7604 47.7347 34.8198 47.1315 35.0469 46.5833C35.2739 46.0351 35.6585 45.5666 36.1518 45.2369C36.6452 44.9073 37.2252 44.7313 37.8185 44.7313C38.6138 44.7326 39.3761 45.049 39.9385 45.6114C40.5008 46.1737 40.8173 46.9361 40.8185 47.7313C40.8185 48.0155 40.7782 48.2965 40.6999 48.5665L40.6939 48.575C40.6573 48.6274 40.6318 48.6867 40.619 48.7493C40.6135 48.7763 40.6104 48.8036 40.6097 48.831C40.5317 49.0291 40.4324 49.2193 40.3129 49.398C39.9833 49.8914 39.5147 50.2759 38.9666 50.503C38.4184 50.73 37.8152 50.7894 37.2332 50.6737Z" fill="#03624C"></path></svg>