<svg xmlns="http://www.w3.org/2000/svg" width="60" height="60" viewBox="0 0 60 60" fill="none"><path d="M6.32807 49.2183H30.6091C31.3295 51.6767 32.6676 53.9097 34.4957 55.7043C36.3239 57.4989 38.5812 58.7954 41.0525 59.4702C43.5238 60.1451 46.1268 60.1757 48.6133 59.5592C51.0998 58.9427 53.387 57.6997 55.2568 55.9486C57.1267 54.1974 58.5169 51.9966 59.295 49.5558C60.073 47.115 60.213 44.5157 59.7015 42.0054C59.1901 39.4952 58.0442 37.1578 56.3732 35.216C54.7022 33.2742 52.5617 31.7928 50.1558 30.9129V6.32807C50.154 4.65033 49.4866 3.04184 48.3003 1.8555C47.114 0.669164 45.5055 0.00186105 43.8277 0L6.32807 0C4.65033 0.00186105 3.04184 0.669164 1.8555 1.8555C0.669164 3.04184 0.00186105 4.65033 0 6.32807L0 42.8902C0.00186105 44.568 0.669164 46.1765 1.8555 47.3628C3.04184 48.5492 4.65033 49.2165 6.32807 49.2183ZM58.5932 44.9996C58.5932 47.6882 57.796 50.3164 56.3023 52.5518C54.8086 54.7873 52.6856 56.5296 50.2017 57.5585C47.7178 58.5873 44.9845 58.8565 42.3476 58.332C39.7107 57.8075 37.2886 56.5129 35.3875 54.6118C33.4864 52.7106 32.1917 50.2885 31.6672 47.6516C31.1427 45.0147 31.4119 42.2815 32.4407 39.7976C33.4696 37.3136 35.2119 35.1906 37.4474 33.6969C39.6829 32.2032 42.311 31.406 44.9996 31.406C48.6036 31.4101 52.0588 32.8436 54.6072 35.392C57.1557 37.9404 58.5891 41.3956 58.5932 44.9996ZM18.0953 1.22048H32.0605V13.5667C32.0609 13.6979 32.0247 13.8265 31.9559 13.9381C31.8871 14.0498 31.7884 14.1399 31.6711 14.1984C31.5537 14.257 31.4223 14.2815 31.2918 14.2692C31.1612 14.257 31.0367 14.2085 30.9322 14.1292L26.3529 10.7931C25.9856 10.5161 25.538 10.3662 25.0779 10.3662C24.6178 10.3662 24.1702 10.5161 23.8029 10.7931L19.2236 14.1273C19.1193 14.2065 18.9949 14.255 18.8645 14.2673C18.7341 14.2796 18.6029 14.2553 18.4856 14.197C18.3683 14.1387 18.2696 14.0488 18.2006 13.9375C18.1317 13.8261 18.0952 13.6977 18.0953 13.5667V1.22048ZM1.22048 6.14231C1.22197 4.83742 1.74099 3.58639 2.66369 2.66369C3.58639 1.74099 4.83742 1.22197 6.14231 1.22048H16.8749V13.1952C16.8748 13.5879 16.9845 13.9729 17.1914 14.3067C17.3983 14.6405 17.6944 14.9099 18.0461 15.0845C18.3979 15.2592 18.7914 15.3322 19.1824 15.2953C19.5734 15.2584 19.9463 15.113 20.2592 14.8757L24.6528 11.5419C24.7753 11.4497 24.9245 11.3999 25.0779 11.3999C25.2313 11.3999 25.3805 11.4497 25.5031 11.5419L29.8966 14.8757C30.2095 15.113 30.5824 15.2584 30.9734 15.2953C31.3644 15.3322 31.7579 15.2592 32.1097 15.0845C32.4615 14.9099 32.7575 14.6405 32.9644 14.3067C33.1713 13.9729 33.281 13.5879 33.281 13.1952V1.22048H44.0135C45.3184 1.22197 46.5694 1.74099 47.4921 2.66369C48.4148 3.58639 48.9338 4.83742 48.9353 6.14231V30.2888C46.487 29.6551 43.7323 29.8367 41.282 30.4626C38.8316 31.0885 36.5794 32.3241 34.7349 34.0544C32.8904 35.7847 31.5136 37.9535 30.7325 40.3589C29.9515 42.7644 29.7917 45.514 30.2679 47.9978H6.14231C4.83742 47.9964 3.58639 47.2916 2.66369 46.3689C1.74099 45.4462 1.22197 44.1951 1.22048 42.8902V6.14231Z" fill="#03624C"></path><path d="M8.20311 42.6559H16.6405C17.1998 42.6553 17.7359 42.4329 18.1314 42.0374C18.5268 41.642 18.7493 41.1058 18.7499 40.5466V37.7341C18.7493 37.1749 18.5268 36.6387 18.1314 36.2433C17.7359 35.8478 17.1998 35.6254 16.6405 35.6248H8.20311C7.64386 35.6254 7.1077 35.8478 6.71225 36.2433C6.3168 36.6387 6.09437 37.1749 6.09375 37.7341V40.5466C6.09437 41.1058 6.3168 41.642 6.71225 42.0374C7.1077 42.4329 7.64386 42.6553 8.20311 42.6559ZM7.12847 37.4442C7.12847 37.2577 7.20255 37.0789 7.33441 36.947C7.46627 36.8151 7.64511 36.7411 7.83159 36.7411H17.012C17.1985 36.7411 17.3774 36.8151 17.5092 36.947C17.6411 37.0789 17.7152 37.2577 17.7152 37.4442V40.8139C17.7152 41.0004 17.6411 41.1793 17.5092 41.3111C17.3774 41.443 17.1985 41.5171 17.012 41.5171H7.83159C7.64511 41.5171 7.46627 41.443 7.33441 41.3111C7.20255 41.1793 7.12847 41.0004 7.12847 40.8139V37.4442Z" fill="#03624C"></path><path fill-rule="evenodd" clip-rule="evenodd" d="M51.9175 42.1307C52.1645 42.3913 52.1534 42.8028 51.8928 43.0498L44.565 49.9943C44.5646 49.9947 44.5642 49.9951 44.5638 49.9955C44.1676 50.3742 43.6387 50.5822 43.0906 50.5749C42.5427 50.5675 42.0196 50.3453 41.6338 49.9562C41.6334 49.9557 41.6329 49.9553 41.6325 49.9548L38.0634 46.3854C37.8096 46.1315 37.8096 45.7198 38.0635 45.4659C38.3174 45.212 38.7291 45.2121 38.983 45.466L42.5555 49.039L42.5567 49.0402C42.7026 49.1877 42.9007 49.2719 43.1081 49.2747C43.3156 49.2775 43.5158 49.1986 43.6657 49.0551L43.6669 49.054L50.9984 42.106C51.259 41.859 51.6705 41.87 51.9175 42.1307Z" fill="#03624C"></path></svg>