<svg xmlns="http://www.w3.org/2000/svg" width="60" height="60" viewBox="0 0 60 60" fill="none"><path d="M51.2265 56.1922H8.77141C7.45512 56.1908 6.19316 55.6672 5.26241 54.7365C4.33165 53.8057 3.80811 52.5437 3.80664 51.2275V8.77239C3.80811 7.4561 4.33165 6.19414 5.26241 5.26338C6.19316 4.33263 7.45512 3.80908 8.77141 3.80762H51.2265C52.5428 3.80908 53.8047 4.33263 54.7355 5.26338C55.6662 6.19414 56.1898 7.4561 56.1913 8.77239V51.2275C56.1898 52.5437 55.6662 53.8057 54.7355 54.7365C53.8047 55.6672 52.5428 56.1908 51.2265 56.1922ZM8.77141 4.73069C7.69986 4.73192 6.67255 5.15813 5.91485 5.91583C5.15715 6.67353 4.73094 7.70084 4.72972 8.77239V51.2275C4.73094 52.299 5.15715 53.3263 5.91485 54.084C6.67255 54.8417 7.69986 55.2679 8.77141 55.2692H51.2265C52.298 55.2679 53.3253 54.8417 54.083 54.084C54.8407 53.3263 55.267 52.299 55.2682 51.2275V8.77239C55.267 7.70084 54.8407 6.67353 54.083 5.91583C53.3253 5.15813 52.298 4.73192 51.2265 4.73069H8.77141Z" fill="#03624C"></path><path d="M23.8848 56.1922C23.798 56.1921 23.713 56.1675 23.6395 56.1213C23.5661 56.075 23.5071 56.009 23.4695 55.9308C23.4318 55.8526 23.417 55.7653 23.4267 55.6791C23.4364 55.5928 23.4703 55.511 23.5243 55.4431L44.8963 28.588C44.9424 28.5311 45.0012 28.4857 45.0679 28.4555C45.1347 28.4254 45.2076 28.4113 45.2808 28.4145C45.3541 28.4182 45.4255 28.4394 45.489 28.4762C45.5525 28.5131 45.6063 28.5645 45.6459 28.6263L56.1177 44.9648C56.1504 45.0158 56.1728 45.0728 56.1834 45.1325C56.1941 45.1921 56.1929 45.2533 56.18 45.3125C56.167 45.3717 56.1425 45.4278 56.1079 45.4776C56.0732 45.5273 56.0292 45.5697 55.9781 45.6024C55.9271 45.6351 55.8701 45.6574 55.8104 45.6681C55.7508 45.6788 55.6896 45.6776 55.6304 45.6647C55.5712 45.6517 55.5151 45.6272 55.4654 45.5926C55.4156 45.5579 55.3732 45.5138 55.3405 45.4628L45.2171 29.6676L24.2462 56.0182C24.2029 56.0725 24.148 56.1164 24.0854 56.1465C24.0228 56.1766 23.9543 56.1922 23.8848 56.1922Z" fill="#03624C"></path><path d="M4.26783 51.6892C4.18643 51.6891 4.1065 51.6675 4.03614 51.6266C3.96578 51.5857 3.90749 51.5269 3.86719 51.4562C3.82689 51.3855 3.806 51.3053 3.80666 51.2239C3.80731 51.1426 3.82947 51.0628 3.8709 50.9927L20.9146 22.1512C20.9551 22.0825 21.0128 22.0254 21.082 21.9856C21.1511 21.9458 21.2294 21.9246 21.3092 21.9241C21.3894 21.9213 21.4688 21.9404 21.5388 21.9794C21.6089 22.0185 21.6669 22.076 21.7066 22.1456L34.3251 42.8687C34.3887 42.9733 34.4082 43.0989 34.3793 43.2179C34.3503 43.3369 34.2753 43.4395 34.1707 43.5031C34.0661 43.5668 33.9405 43.5863 33.8215 43.5573C33.7025 43.5283 33.5999 43.4533 33.5363 43.3487L21.318 23.2829L4.66567 51.4616C4.62492 51.5309 4.56677 51.5884 4.49699 51.6283C4.42721 51.6682 4.34821 51.6892 4.26783 51.6892Z" fill="#03624C"></path><path d="M11.6111 15.4614C10.7673 15.4617 9.94238 15.2117 9.24065 14.7431C8.53892 14.2745 7.99192 13.6083 7.66884 12.8288C7.34575 12.0493 7.2611 11.1915 7.42559 10.3639C7.59007 9.53624 7.99631 8.77598 8.59291 8.17925C9.18951 7.58252 9.94968 7.17612 10.7773 7.01146C11.6049 6.8468 12.4627 6.93126 13.2423 7.25418C14.0219 7.57709 14.6882 8.12394 15.1569 8.82557C15.6257 9.5272 15.8758 10.3521 15.8758 11.1959C15.8743 12.3266 15.4245 13.4106 14.6251 14.2102C13.8257 15.0098 12.7418 15.4597 11.6111 15.4614ZM11.6111 7.85252C10.9499 7.85225 10.3035 8.04806 9.75358 8.4152C9.20367 8.78234 8.77498 9.30431 8.52174 9.9151C8.26849 10.5259 8.20207 11.1981 8.33086 11.8466C8.45965 12.4951 8.77788 13.0909 9.2453 13.5586C9.71271 14.0263 10.3083 14.3448 10.9568 14.474C11.6053 14.6031 12.2775 14.5371 12.8884 14.2842C13.4993 14.0313 14.0215 13.6029 14.389 13.0532C14.7564 12.5034 14.9526 11.8571 14.9527 11.1959C14.9517 10.3098 14.5994 9.46034 13.973 8.83367C13.3466 8.207 12.4972 7.85387 11.6111 7.85252Z" fill="#03624C"></path><path d="M52.5955 60H7.40446C5.44135 59.9978 3.55927 59.217 2.17115 57.8289C0.783016 56.4407 0.00219888 54.5587 0 52.5955V7.40446C0.00219888 5.44135 0.783016 3.55927 2.17115 2.17115C3.55927 0.783016 5.44135 0.00219888 7.40446 0H52.5955C54.5587 0.00219888 56.4407 0.783016 57.8289 2.17115C59.217 3.55927 59.9978 5.44135 60 7.40446V52.5955C59.9978 54.5587 59.217 56.4407 57.8289 57.8289C56.4407 59.217 54.5587 59.9978 52.5955 60ZM7.40446 0.923077C5.68609 0.925031 4.03866 1.60852 2.82359 2.82359C1.60852 4.03866 0.925031 5.68609 0.923077 7.40446V52.5955C0.925031 54.3139 1.60852 55.9613 2.82359 57.1764C4.03866 58.3915 5.68609 59.075 7.40446 59.0769H52.5955C54.3139 59.075 55.9613 58.3915 57.1764 57.1764C58.3915 55.9613 59.075 54.3139 59.0769 52.5955V7.40446C59.075 5.68609 58.3915 4.03866 57.1764 2.82359C55.9613 1.60852 54.3139 0.925031 52.5955 0.923077H7.40446Z" fill="#03624C"></path></svg>